<?xml version="1.0" encoding="utf-8"?>
<!-- Generator: Adobe Illustrator 16.0.0, SVG Export Plug-In . SVG Version: 6.00 Build 0)  -->
<!DOCTYPE svg PUBLIC "-//W3C//DTD SVG 1.1//EN" "http://www.w3.org/Graphics/SVG/1.1/DTD/svg11.dtd">
<svg version="1.1" id="Layer_1" xmlns="http://www.w3.org/2000/svg" xmlns:xlink="http://www.w3.org/1999/xlink" x="0px" y="0px"
	 width="512px" height="512px" viewBox="0 0 512 512" enable-background="new 0 0 512 512" xml:space="preserve">
<g>
	<path d="M256,103.5c-84.089,0-152.502,68.411-152.502,152.5S171.911,408.5,256,408.5c84.09,0,152.5-68.411,152.5-152.5
		S340.09,103.5,256,103.5z M256,383.5c-70.304,0-127.502-57.196-127.502-127.5S185.696,128.5,256,128.5
		c70.305,0,127.5,57.196,127.5,127.5S326.305,383.5,256,383.5z"/>
	<path d="M329.497,243.5H268.5v-60.996c0-6.903-5.596-12.5-12.5-12.5c-6.902,0-12.5,5.597-12.5,12.5V243.5h-60.995
		c-6.903,0-12.5,5.597-12.5,12.5s5.597,12.5,12.5,12.5H243.5v60.996c0,6.903,5.598,12.5,12.5,12.5c6.904,0,12.5-5.597,12.5-12.5
		V268.5h60.997c6.903,0,12.5-5.597,12.5-12.5S336.4,243.5,329.497,243.5z"/>
</g>
</svg>
