<?xml version="1.0" encoding="utf-8"?>
<!-- Generator: Adobe Illustrator 16.0.0, SVG Export Plug-In . SVG Version: 6.00 Build 0)  -->
<!DOCTYPE svg PUBLIC "-//W3C//DTD SVG 1.1//EN" "http://www.w3.org/Graphics/SVG/1.1/DTD/svg11.dtd">
<svg version="1.1" id="Layer_1" xmlns="http://www.w3.org/2000/svg" xmlns:xlink="http://www.w3.org/1999/xlink" x="0px" y="0px"
	 width="512px" height="512px" viewBox="0 0 512 512" enable-background="new 0 0 512 512" xml:space="preserve">
<path d="M436.442,215.002v-35.137c0-17.921-14.579-32.5-32.5-32.5H88.058c-17.921,0-32.5,14.579-32.5,32.5v152.27
	c0,17.921,14.579,32.5,32.5,32.5h315.885c17.921,0,32.5-14.579,32.5-32.5v-35.137c11.233-1.248,20-10.797,20-22.357v-37.281
	C456.442,225.799,447.676,216.25,436.442,215.002z M411.442,332.135c0,4.136-3.364,7.5-7.5,7.5H88.058c-4.136,0-7.5-3.364-7.5-7.5
	v-152.27c0-4.136,3.364-7.5,7.5-7.5h315.885c4.136,0,7.5,3.364,7.5,7.5v57.494v37.281V332.135z"/>
</svg>
