<?xml version="1.0" encoding="utf-8"?>
<!-- Generator: Adobe Illustrator 16.0.0, SVG Export Plug-In . SVG Version: 6.00 Build 0)  -->
<!DOCTYPE svg PUBLIC "-//W3C//DTD SVG 1.1//EN" "http://www.w3.org/Graphics/SVG/1.1/DTD/svg11.dtd">
<svg version="1.1" id="Layer_1" xmlns="http://www.w3.org/2000/svg" xmlns:xlink="http://www.w3.org/1999/xlink" x="0px" y="0px"
	 width="512px" height="512px" viewBox="0 0 512 512" enable-background="new 0 0 512 512" xml:space="preserve">
<g>
	<path d="M363.928,98.288h-75.561c-1.73-4.829-6.334-8.29-11.758-8.29h-41.219c-5.424,0-10.027,3.461-11.758,8.29h-75.561
		c-19.063,0-34.572,15.509-34.572,34.571v31.448c0,6.903,5.597,12.5,12.5,12.5h23.509v232.694c0,6.903,5.597,12.5,12.5,12.5h187.982
		c6.903,0,12.5-5.597,12.5-12.5V176.808H386c6.903,0,12.5-5.597,12.5-12.5v-31.448C398.5,113.797,382.991,98.288,363.928,98.288z
		 M337.491,397.002H174.509V176.808h162.982V397.002z M373.5,151.808h-235v-18.948c0-5.277,4.293-9.571,9.572-9.571h215.855
		c5.277,0,9.572,4.294,9.572,9.571V151.808z"/>
	<path d="M223.243,353.871c6.903,0,12.5-5.597,12.5-12.5V209.636c0-6.903-5.597-12.5-12.5-12.5s-12.5,5.597-12.5,12.5v131.735
		C210.743,348.274,216.34,353.871,223.243,353.871z"/>
	<path d="M288.757,353.871c6.903,0,12.5-5.597,12.5-12.5V209.636c0-6.903-5.597-12.5-12.5-12.5s-12.5,5.597-12.5,12.5v131.735
		C276.257,348.274,281.854,353.871,288.757,353.871z"/>
</g>
</svg>
