<?xml version="1.0" encoding="utf-8"?>
<!-- Generator: Adobe Illustrator 16.0.0, SVG Export Plug-In . SVG Version: 6.00 Build 0)  -->
<!DOCTYPE svg PUBLIC "-//W3C//DTD SVG 1.1//EN" "http://www.w3.org/Graphics/SVG/1.1/DTD/svg11.dtd">
<svg version="1.1" id="Layer_1" xmlns="http://www.w3.org/2000/svg" xmlns:xlink="http://www.w3.org/1999/xlink" x="0px" y="0px"
	 width="512px" height="512px" viewBox="0 0 512 512" enable-background="new 0 0 512 512" xml:space="preserve">
<g>
	<path d="M466,138.96h-24.191v-1.337c0-5.249-3.279-9.939-8.21-11.741c-29.977-10.955-60.577-16.51-90.946-16.51
		c-28.924,0-58.052,5.049-86.652,14.992c-28.604-9.942-57.732-14.992-86.656-14.992c-30.371,0-60.969,5.555-90.943,16.51
		c-4.93,1.802-8.209,6.491-8.209,11.74v1.337H46c-6.903,0-12.5,5.596-12.5,12.5v238.667c0,6.904,5.597,12.5,12.5,12.5h420
		c6.902,0,12.5-5.596,12.5-12.5V151.46C478.5,144.557,472.902,138.96,466,138.96z M416.809,146.518v188.064
		c-24.571-7.277-49.443-10.957-74.161-10.957c-24.717,0-49.584,3.679-74.147,10.955V146.517
		c24.568-8.063,49.471-12.144,74.152-12.144S392.238,138.455,416.809,146.518z M95.191,146.517
		c24.568-8.063,49.471-12.144,74.152-12.144s49.586,4.082,74.156,12.145v188.064c-24.571-7.277-49.443-10.957-74.161-10.957
		c-24.717,0-49.584,3.679-74.147,10.955V146.517z M58.5,163.96h11.691v187.913c0,4.081,1.992,7.905,5.337,10.244
		c2.129,1.488,4.635,2.256,7.164,2.256c1.444,0,2.896-0.25,4.289-0.759c27.219-9.946,54.928-14.989,82.357-14.989
		c24.678,0,49.584,4.096,74.161,12.157v16.845h-185V163.96z M453.5,377.627h-185v-16.846c24.568-8.061,49.471-12.156,74.147-12.156
		c27.43,0,55.144,5.043,82.372,14.989c3.834,1.4,8.108,0.841,11.453-1.498c3.344-2.339,5.336-6.163,5.336-10.244V163.96H453.5
		V377.627z"/>
	<path d="M133,205.5h65.332c6.903,0,12.5-5.596,12.5-12.5s-5.597-12.5-12.5-12.5H133c-6.903,0-12.5,5.596-12.5,12.5
		S126.097,205.5,133,205.5z"/>
	<path d="M210.832,263c0-6.904-5.597-12.5-12.5-12.5H133c-6.903,0-12.5,5.596-12.5,12.5s5.597,12.5,12.5,12.5h65.332
		C205.235,275.5,210.832,269.904,210.832,263z"/>
	<path d="M313.668,205.5H379c6.902,0,12.5-5.596,12.5-12.5s-5.598-12.5-12.5-12.5h-65.332c-6.903,0-12.5,5.596-12.5,12.5
		S306.765,205.5,313.668,205.5z"/>
	<path d="M313.668,275.5H379c6.902,0,12.5-5.596,12.5-12.5s-5.598-12.5-12.5-12.5h-65.332c-6.903,0-12.5,5.596-12.5,12.5
		S306.765,275.5,313.668,275.5z"/>
</g>
</svg>
