<?xml version="1.0" encoding="utf-8"?>
<!-- Generator: Adobe Illustrator 16.0.0, SVG Export Plug-In . SVG Version: 6.00 Build 0)  -->
<!DOCTYPE svg PUBLIC "-//W3C//DTD SVG 1.1//EN" "http://www.w3.org/Graphics/SVG/1.1/DTD/svg11.dtd">
<svg version="1.1" id="Layer_1" xmlns="http://www.w3.org/2000/svg" xmlns:xlink="http://www.w3.org/1999/xlink" x="0px" y="0px"
	 width="512px" height="512px" viewBox="0 0 512 512" enable-background="new 0 0 512 512" xml:space="preserve">
<g>
	<path d="M378.67,186.168C378.67,118.529,323.641,63.5,256,63.5s-122.67,55.029-122.67,122.668c0,46.923,18.832,71.88,35.447,93.9
		c14.031,18.595,26.148,34.653,26.148,62.873l-0.006,51.556c0,29.777,23.928,54.003,53.706,54.003h14.748
		c29.778,0,53.806-24.226,53.806-54.003l-0.105-51.556c0-28.22,12.117-44.278,26.148-62.873
		C359.838,258.049,378.67,233.091,378.67,186.168z M263.374,423.5h-14.748c-12.76,0-23.614-8.286-27.484-19.756h69.717
		C286.988,415.214,276.134,423.5,263.374,423.5z M292.379,378.744h-72.758v-11.952h72.758V378.744z M292.079,341.792H219.92
		c-0.327-35.887-16.013-56.672-31.187-76.782c-15.636-20.721-30.403-40.292-30.403-78.841c0-53.854,43.814-97.668,97.67-97.668
		s97.67,43.814,97.67,97.668c0,38.549-14.768,58.121-30.403,78.841C308.093,285.12,292.407,305.905,292.079,341.792z"/>
	<path d="M238.07,283.872c6.487-2.362,9.83-9.536,7.468-16.023l-27.179-74.628l9.22-14.428l19.927,18.455
		c4.793,4.438,12.195,4.438,16.988,0l19.926-18.455l9.221,14.428l-27.179,74.628c-2.362,6.487,0.98,13.661,7.468,16.023
		c1.412,0.515,2.855,0.758,4.276,0.758c5.104,0,9.898-3.151,11.746-8.226l29.293-80.432c1.332-3.658,0.884-7.728-1.212-11.009
		l-20.6-32.236c-1.994-3.121-5.27-5.196-8.943-5.667c-3.668-0.472-7.365,0.71-10.084,3.228L256,171.04l-22.406-20.751
		c-2.719-2.517-6.419-3.696-10.084-3.228c-3.674,0.471-6.949,2.547-8.943,5.667l-20.6,32.236c-2.096,3.281-2.544,7.351-1.212,11.009
		l29.293,80.432C224.409,282.891,231.586,286.236,238.07,283.872z"/>
</g>
</svg>
