<?xml version="1.0" encoding="utf-8"?>
<!-- Generator: Adobe Illustrator 16.0.0, SVG Export Plug-In . SVG Version: 6.00 Build 0)  -->
<!DOCTYPE svg PUBLIC "-//W3C//DTD SVG 1.1//EN" "http://www.w3.org/Graphics/SVG/1.1/DTD/svg11.dtd">
<svg version="1.1" id="Layer_1" xmlns="http://www.w3.org/2000/svg" xmlns:xlink="http://www.w3.org/1999/xlink" x="0px" y="0px"
	 width="512px" height="512px" viewBox="0 0 512 512" enable-background="new 0 0 512 512" xml:space="preserve">
<g>
	<path d="M252.479,126.294h7.041c4.324,0,8.341-2.235,10.621-5.909c3.031-4.884,3.358-10.622,3.358-12.861
		c0-7.845-5.273-15.645-7.54-18.635c-2.363-3.116-6.049-4.947-9.96-4.947s-7.597,1.831-9.96,4.947
		c-2.267,2.99-7.54,10.79-7.54,18.635c0,2.24,0.327,7.977,3.358,12.861C244.138,124.06,248.155,126.294,252.479,126.294z"/>
	<path d="M355.479,126.294h7.041c4.324,0,8.341-2.235,10.621-5.909c3.031-4.884,3.358-10.622,3.358-12.861
		c0-7.845-5.273-15.645-7.54-18.635c-2.363-3.116-6.049-4.947-9.96-4.947s-7.597,1.831-9.96,4.947
		c-2.267,2.99-7.54,10.79-7.54,18.635c0,2.24,0.327,7.977,3.358,12.861C347.138,124.06,351.155,126.294,355.479,126.294z"/>
	<path d="M149.479,126.294h7.041c4.324,0,8.341-2.235,10.621-5.909c3.031-4.884,3.358-10.622,3.358-12.861
		c0-7.845-5.273-15.645-7.54-18.635c-2.363-3.116-6.049-4.947-9.96-4.947s-7.597,1.831-9.96,4.947
		c-2.267,2.99-7.54,10.79-7.54,18.635c0,2.24,0.327,7.977,3.358,12.861C141.138,124.06,145.155,126.294,149.479,126.294z"/>
	<path d="M449.5,334.342v-96.598c0-34.462-28.038-62.5-62.5-62.5h-15.5v-29.551c0-6.904-5.596-12.5-12.5-12.5s-12.5,5.596-12.5,12.5
		v29.551h-78v-29.551c0-6.904-5.596-12.5-12.5-12.5s-12.5,5.596-12.5,12.5v29.551h-78v-29.551c0-6.904-5.596-12.5-12.5-12.5
		s-12.5,5.596-12.5,12.5v29.551H125c-34.462,0-62.5,28.038-62.5,62.5v96.598c-6.195,0.743-11,6.007-11,12.402
		c0,6.903,5.597,12.5,12.5,12.5h11h168.5v43.814H197c-6.903,0-12.5,5.597-12.5,12.5s5.597,12.5,12.5,12.5h118
		c6.903,0,12.5-5.597,12.5-12.5s-5.597-12.5-12.5-12.5h-46.5v-43.814H437h11c6.903,0,12.5-5.597,12.5-12.5
		C460.5,340.349,455.695,335.084,449.5,334.342z M87.5,334.244v-96.5c0-20.678,16.822-37.5,37.5-37.5h262
		c20.678,0,37.5,16.822,37.5,37.5v96.5H87.5z"/>
</g>
</svg>
