<?xml version="1.0" encoding="utf-8"?>
<!-- Generator: Adobe Illustrator 16.0.0, SVG Export Plug-In . SVG Version: 6.00 Build 0)  -->
<!DOCTYPE svg PUBLIC "-//W3C//DTD SVG 1.1//EN" "http://www.w3.org/Graphics/SVG/1.1/DTD/svg11.dtd">
<svg version="1.1" id="Layer_1" xmlns="http://www.w3.org/2000/svg" xmlns:xlink="http://www.w3.org/1999/xlink" x="0px" y="0px"
	 width="512px" height="512px" viewBox="0 0 512 512" enable-background="new 0 0 512 512" xml:space="preserve">
<g>
	<path d="M256.001,103.5c-84.09,0-152.502,68.411-152.502,152.5s68.412,152.5,152.502,152.5c84.089,0,152.5-68.411,152.5-152.5
		S340.09,103.5,256.001,103.5z M256.001,383.5c-70.305,0-127.502-57.196-127.502-127.5s57.197-127.5,127.502-127.5
		c70.304,0,127.5,57.196,127.5,127.5S326.305,383.5,256.001,383.5z"/>
	<path d="M273.679,255.999l43.13-43.129c4.881-4.882,4.881-12.796,0-17.678c-4.881-4.882-12.796-4.881-17.678,0l-43.13,43.13
		l-43.131-43.131c-4.882-4.881-12.796-4.881-17.678,0c-4.881,4.882-4.881,12.796,0,17.678l43.13,43.13l-43.131,43.131
		c-4.881,4.882-4.881,12.796,0,17.678c2.441,2.441,5.64,3.661,8.839,3.661c3.199,0,6.398-1.221,8.839-3.661L256,273.677
		l43.131,43.131c2.441,2.44,5.64,3.661,8.839,3.661s6.398-1.221,8.839-3.661c4.881-4.882,4.881-12.796,0-17.678L273.679,255.999z"/>
</g>
</svg>
