<?xml version="1.0" encoding="utf-8"?>
<!-- Generator: Adobe Illustrator 16.0.0, SVG Export Plug-In . SVG Version: 6.00 Build 0)  -->
<!DOCTYPE svg PUBLIC "-//W3C//DTD SVG 1.1//EN" "http://www.w3.org/Graphics/SVG/1.1/DTD/svg11.dtd">
<svg version="1.1" id="Layer_1" xmlns="http://www.w3.org/2000/svg" xmlns:xlink="http://www.w3.org/1999/xlink" x="0px" y="0px"
	 width="512px" height="512px" viewBox="0 0 512 512" enable-background="new 0 0 512 512" xml:space="preserve">
<g>
	<path d="M422.15,100.407l-10.557-10.559c-12.432-12.432-28.961-19.278-46.541-19.278c-17.582,0-34.109,6.847-46.541,19.279
		l-76.629,76.628c-12.432,12.433-19.277,28.961-19.277,46.542c0,3.522,0.287,6.999,0.826,10.412
		c-3.412-0.539-6.891-0.826-10.412-0.826c-17.582,0-34.111,6.847-46.543,19.278L89.85,318.512
		c-25.662,25.664-25.662,67.421-0.002,93.082l10.557,10.558c12.434,12.433,28.963,19.278,46.543,19.278
		c17.582,0,34.109-6.847,46.539-19.279l76.629-76.628c15.486-15.485,21.611-36.829,18.408-56.962
		c3.428,0.544,6.918,0.835,10.455,0.835h0.006c17.58,0,34.107-6.847,46.537-19.278l76.629-76.63
		C447.813,167.824,447.813,126.068,422.15,100.407z M252.438,327.845l-76.629,76.629c-7.709,7.71-17.959,11.956-28.861,11.956
		c-10.904,0-21.154-4.246-28.863-11.955l-10.557-10.558c-15.916-15.915-15.916-41.812,0-57.728l76.627-76.629
		c7.711-7.709,17.961-11.955,28.865-11.955c10.902,0,21.154,4.246,28.863,11.955l10.557,10.557
		C268.354,286.033,268.354,311.93,252.438,327.845z M404.473,175.811l-76.631,76.629c-7.709,7.711-17.955,11.956-28.857,11.956
		h-0.004c-10.904-0.001-21.156-4.246-28.863-11.954l-10.555-10.558c-7.711-7.71-11.957-17.961-11.957-28.864
		s4.246-21.154,11.955-28.864l76.629-76.629c7.711-7.71,17.961-11.956,28.863-11.956s21.154,4.246,28.863,11.956l10.557,10.558
		C420.389,133.999,420.387,159.895,404.473,175.811z"/>
	<path d="M352.443,141.878l-58.531,58.531c-4.881,4.882-4.881,12.797,0,17.678c2.441,2.441,5.641,3.661,8.84,3.661
		s6.398-1.22,8.838-3.661l58.531-58.531c4.883-4.881,4.883-12.796,0-17.678C365.24,136.996,357.324,136.996,352.443,141.878z"/>
	<path d="M200.408,293.913l-58.531,58.531c-4.881,4.881-4.881,12.796,0,17.678c2.441,2.44,5.641,3.661,8.84,3.661
		s6.398-1.221,8.838-3.661l58.531-58.531c4.883-4.882,4.883-12.797,0-17.678C213.205,289.031,205.289,289.031,200.408,293.913z"/>
</g>
</svg>
