<?xml version="1.0" encoding="utf-8"?>
<!-- Generator: Adobe Illustrator 16.0.0, SVG Export Plug-In . SVG Version: 6.00 Build 0)  -->
<!DOCTYPE svg PUBLIC "-//W3C//DTD SVG 1.1//EN" "http://www.w3.org/Graphics/SVG/1.1/DTD/svg11.dtd">
<svg version="1.1" id="Layer_1" xmlns="http://www.w3.org/2000/svg" xmlns:xlink="http://www.w3.org/1999/xlink" x="0px" y="0px"
	 width="512px" height="512px" viewBox="0 0 512 512" enable-background="new 0 0 512 512" xml:space="preserve">
<g>
	<g>
		<path d="M164.873,397.906h-57.746c-6.903,0-12.5-5.597-12.5-12.5V246.594c0-6.903,5.597-12.5,12.5-12.5h57.746
			c6.903,0,12.5,5.597,12.5,12.5v138.813C177.373,392.31,171.776,397.906,164.873,397.906z M119.627,372.906h32.746V259.094h-32.746
			V372.906z"/>
	</g>
	<g>
		<path d="M284.873,397.906h-57.746c-6.904,0-12.5-5.597-12.5-12.5V126.594c0-6.903,5.596-12.5,12.5-12.5h57.746
			c6.903,0,12.5,5.597,12.5,12.5v258.813C297.373,392.31,291.776,397.906,284.873,397.906z M239.627,372.906h32.746V139.094h-32.746
			V372.906z"/>
	</g>
	<g>
		<path d="M404.873,397.906h-57.746c-6.904,0-12.5-5.597-12.5-12.5V162.594c0-6.903,5.596-12.5,12.5-12.5h57.746
			c6.903,0,12.5,5.597,12.5,12.5v222.813C417.373,392.31,411.776,397.906,404.873,397.906z M359.627,372.906h32.746V175.094h-32.746
			V372.906z"/>
	</g>
</g>
</svg>
