<?xml version="1.0" encoding="utf-8"?>
<!-- Generator: Adobe Illustrator 16.0.0, SVG Export Plug-In . SVG Version: 6.00 Build 0)  -->
<!DOCTYPE svg PUBLIC "-//W3C//DTD SVG 1.1//EN" "http://www.w3.org/Graphics/SVG/1.1/DTD/svg11.dtd">
<svg version="1.1" id="Layer_1" xmlns="http://www.w3.org/2000/svg" xmlns:xlink="http://www.w3.org/1999/xlink" x="0px" y="0px"
	 width="512px" height="512px" viewBox="0 0 512 512" enable-background="new 0 0 512 512" xml:space="preserve">
<path d="M431,397.034H109.105l52.362-104.942l54.308,35.322c3.451,2.245,7.788,2.648,11.593,1.072
	c3.806-1.573,6.592-4.921,7.448-8.948l21.218-99.675l59.662,30.512c5.044,2.581,11.192,1.445,14.982-2.767l49.665-55.179
	l1.561,16.711c0.605,6.479,6.053,11.339,12.432,11.339c0.389,0,0.782-0.018,1.177-0.055c6.874-0.642,11.925-6.734,11.284-13.608
	l-4.435-47.497c-0.643-6.874-6.728-11.928-13.608-11.284l-47.496,4.433c-6.873,0.642-11.926,6.734-11.285,13.607
	c0.644,6.874,6.718,11.927,13.609,11.284l18.221-1.701l-43.278,48.083l-65.629-33.564c-3.462-1.772-7.553-1.829-11.063-0.158
	c-3.512,1.671-6.045,4.881-6.855,8.685l-20.824,97.831l-50.8-33.04c-2.987-1.943-6.662-2.519-10.098-1.583
	c-3.438,0.935-6.313,3.292-7.902,6.48L93.5,372.317V102.466c0-6.904-5.597-12.5-12.5-12.5s-12.5,5.596-12.5,12.5v307.068
	c0,6.904,5.597,12.5,12.5,12.5h350c6.902,0,12.5-5.596,12.5-12.5C443.5,402.631,437.902,397.034,431,397.034z"/>
</svg>
