<?xml version="1.0" encoding="utf-8"?>
<!-- Generator: Adobe Illustrator 16.0.0, SVG Export Plug-In . SVG Version: 6.00 Build 0)  -->
<!DOCTYPE svg PUBLIC "-//W3C//DTD SVG 1.1//EN" "http://www.w3.org/Graphics/SVG/1.1/DTD/svg11.dtd">
<svg version="1.1" id="Layer_1" xmlns="http://www.w3.org/2000/svg" xmlns:xlink="http://www.w3.org/1999/xlink" x="0px" y="0px"
	 width="512px" height="512px" viewBox="0 0 512 512" enable-background="new 0 0 512 512" xml:space="preserve">
<path d="M389.839,151.505c3.574-3.575,4.645-8.952,2.709-13.623c-1.934-4.671-6.492-7.716-11.548-7.716h-50.286l19.568-22.664
	c4.512-5.226,3.933-13.119-1.292-17.63c-5.225-4.511-13.117-3.933-17.63,1.292l-33.674,39.002H131
	c-5.056,0-9.614,3.045-11.548,7.716c-1.935,4.671-0.865,10.047,2.709,13.623L243.5,272.844v127.322H216
	c-6.903,0-12.5,5.597-12.5,12.5s5.597,12.5,12.5,12.5h80c6.903,0,12.5-5.597,12.5-12.5s-5.597-12.5-12.5-12.5h-27.5V272.844
	L389.839,151.505z M350.822,155.167L256,249.989l-94.822-94.822H350.822z"/>
</svg>
