<?xml version="1.0" encoding="utf-8"?>
<!-- Generator: Adobe Illustrator 16.0.0, SVG Export Plug-In . SVG Version: 6.00 Build 0)  -->
<!DOCTYPE svg PUBLIC "-//W3C//DTD SVG 1.1//EN" "http://www.w3.org/Graphics/SVG/1.1/DTD/svg11.dtd">
<svg version="1.1" id="Layer_1" xmlns="http://www.w3.org/2000/svg" xmlns:xlink="http://www.w3.org/1999/xlink" x="0px" y="0px"
	 width="512px" height="512px" viewBox="0 0 512 512" enable-background="new 0 0 512 512" xml:space="preserve">
<g>
	<path d="M357.968,276.444c-6.904,0-12.5,5.596-12.5,12.5v41c0,6.904,5.596,12.5,12.5,12.5s12.5-5.596,12.5-12.5v-41
		C370.468,282.04,364.872,276.444,357.968,276.444z"/>
	<path d="M357.673,228.344h-1c-7.13,0-14.093,1.189-20.673,3.498c-2.248-2.166-5.305-3.498-8.673-3.498h-223
		c-6.904,0-12.5,5.596-12.5,12.5v107c0,20.543,9.873,39.42,26.578,51.139l8.528,15.157c2.215,3.936,6.379,6.371,10.895,6.371h156
		c4.516,0,8.68-2.436,10.894-6.371l8.534-15.168c5.863-4.136,10.986-9.274,15.118-15.111c8.708,4.427,18.396,6.783,28.3,6.783h1
		c34.463,0,62.5-28.038,62.5-62.5v-37.3C420.173,256.381,392.136,228.344,357.673,228.344z M395.173,328.144
		c0,20.678-16.822,37.5-37.5,37.5h-1c-9.01,0-17.727-3.254-24.543-9.164c-3.072-2.664-7.249-3.667-11.197-2.688
		c-3.947,0.979-7.171,3.817-8.644,7.609c-2.903,7.479-8.266,13.958-15.102,18.244c-1.768,1.109-3.23,2.643-4.254,4.461
		l-6.416,11.403h-141.38l-6.416-11.402c-1.024-1.82-2.488-3.355-4.258-4.464c-11.043-6.917-17.636-18.806-17.636-31.801v-94.5
		h198.358c0.853,3.485,3.183,6.491,6.466,8.165c4.188,2.134,9.219,1.739,13.021-1.023c6.433-4.672,14.04-7.141,22-7.141h1
		c20.678,0,37.5,16.822,37.5,37.5V328.144z"/>
	<path d="M211.439,191.728c3.909,10.23,15.889,20.959,19.401,23.224c5.804,3.742,13.512,2.427,17.396-3.279
		c3.885-5.707,2.437-13.462-3.27-17.348c-2.105-1.469-7.274-5.945-9.925-11.118c-0.531-1.281-1.033-2.919-1.21-4.814
		c-0.575-6.165,2.499-12.656,9.137-19.293c11.494-11.495,13.171-23.046,12.553-30.712c-1.592-19.777-19.297-33.079-21.31-34.531
		c-5.602-4.038-13.441-2.79-17.478,2.809c-4.037,5.6-2.798,13.392,2.802,17.43c2.705,1.997,10.544,9.29,11.072,16.358
		c0.098,1.301,0.393,5.259-5.316,10.969c-8.949,8.949-13.586,17.914-15.491,26.205c-1.473,5.096-1.589,9.696-1.191,13.38
		C209.023,184.857,210.049,188.438,211.439,191.728z"/>
</g>
</svg>
