<?xml version="1.0" encoding="utf-8"?>
<!-- Generator: Adobe Illustrator 16.0.0, SVG Export Plug-In . SVG Version: 6.00 Build 0)  -->
<!DOCTYPE svg PUBLIC "-//W3C//DTD SVG 1.1//EN" "http://www.w3.org/Graphics/SVG/1.1/DTD/svg11.dtd">
<svg version="1.1" id="Layer_1" xmlns="http://www.w3.org/2000/svg" xmlns:xlink="http://www.w3.org/1999/xlink" x="0px" y="0px"
	 width="512px" height="512px" viewBox="0 0 512 512" enable-background="new 0 0 512 512" xml:space="preserve">
<path d="M284.499,356.957c40.734,0,79.03-15.863,107.834-44.666c2.344-2.344,3.661-5.523,3.661-8.839s-1.317-6.495-3.661-8.839
	l-53.337-53.337V162.46c0-6.904-5.596-12.5-12.5-12.5H247.68l-53.337-53.337c-4.882-4.882-12.796-4.882-17.678,0
	c-59.459,59.459-59.459,156.208,0,215.668c14.325,14.325,31,25.446,49.154,33.01v52.049h-38c-6.903,0-12.5,5.597-12.5,12.5
	s5.597,12.5,12.5,12.5h101c6.903,0,12.5-5.597,12.5-12.5s-5.597-12.5-12.5-12.5h-38v-44.103
	C261.747,355.698,273.026,356.957,284.499,356.957z M313.996,174.96v41.316L272.68,174.96H313.996z M185.934,123.569
	l179.458,179.458c-22.749,18.738-51.037,28.93-80.893,28.93c-34.057,0-66.075-13.262-90.156-37.344
	C147.613,247.883,144.812,173.604,185.934,123.569z"/>
</svg>
