<?xml version="1.0" encoding="utf-8"?>
<!-- Generator: Adobe Illustrator 16.0.0, SVG Export Plug-In . SVG Version: 6.00 Build 0)  -->
<!DOCTYPE svg PUBLIC "-//W3C//DTD SVG 1.1//EN" "http://www.w3.org/Graphics/SVG/1.1/DTD/svg11.dtd">
<svg version="1.1" id="Layer_1" xmlns="http://www.w3.org/2000/svg" xmlns:xlink="http://www.w3.org/1999/xlink" x="0px" y="0px"
	 width="512px" height="512px" viewBox="0 0 512 512" enable-background="new 0 0 512 512" xml:space="preserve">
<g>
	<path d="M247.161,331.193c2.441,2.44,5.64,3.661,8.839,3.661s6.398-1.221,8.839-3.661l80-80c4.881-4.882,4.881-12.796,0-17.678
		c-4.882-4.881-12.796-4.881-17.678,0L268.5,292.177V78.522c0-6.903-5.597-12.5-12.5-12.5c-6.904,0-12.5,5.597-12.5,12.5v213.655
		l-58.661-58.66c-4.882-4.881-12.797-4.881-17.678,0c-4.881,4.882-4.881,12.796,0,17.678L247.161,331.193z"/>
	<path d="M424.885,309.854H311.497c-6.904,0-12.5,5.597-12.5,12.5v23.454c0,6.903,5.596,12.5,12.5,12.5s12.5-5.597,12.5-12.5
		v-10.954h88.388v86.123H99.615v-86.123h88.388v10.954c0,6.903,5.596,12.5,12.5,12.5s12.5-5.597,12.5-12.5v-23.454
		c0-6.903-5.596-12.5-12.5-12.5H87.115c-6.904,0-12.5,5.597-12.5,12.5v111.123c0,6.903,5.596,12.5,12.5,12.5h337.77
		c6.903,0,12.5-5.597,12.5-12.5V322.354C437.385,315.451,431.788,309.854,424.885,309.854z"/>
</g>
</svg>
