<?xml version="1.0" encoding="utf-8"?>
<!-- Generator: Adobe Illustrator 16.0.0, SVG Export Plug-In . SVG Version: 6.00 Build 0)  -->
<!DOCTYPE svg PUBLIC "-//W3C//DTD SVG 1.1//EN" "http://www.w3.org/Graphics/SVG/1.1/DTD/svg11.dtd">
<svg version="1.1" id="Layer_1" xmlns="http://www.w3.org/2000/svg" xmlns:xlink="http://www.w3.org/1999/xlink" x="0px" y="0px"
	 width="512px" height="512px" viewBox="0 0 512 512" enable-background="new 0 0 512 512" xml:space="preserve">
<g>
	<path d="M356.723,423.5c-1.989,0-3.986-0.475-5.815-1.436L256,372.168l-94.908,49.896c-4.212,2.213-9.315,1.845-13.164-0.952
		c-3.85-2.796-5.777-7.536-4.973-12.226l18.125-105.682L84.298,228.36c-3.407-3.321-4.633-8.289-3.163-12.813
		c1.47-4.525,5.382-7.823,10.091-8.508l106.111-15.418l47.454-96.153c2.105-4.267,6.451-6.968,11.209-6.968
		c4.758,0,9.104,2.701,11.209,6.968l47.454,96.153l106.11,15.418c4.709,0.685,8.621,3.982,10.091,8.508
		c1.471,4.524,0.245,9.492-3.163,12.813l-76.783,74.845l18.126,105.682c0.804,4.689-1.124,9.43-4.973,12.226
		C361.894,422.695,359.315,423.5,356.723,423.5z M119.885,228.138l63.352,61.752c2.946,2.872,4.291,7.01,3.594,11.064
		l-14.955,87.196l78.306-41.169c3.642-1.914,7.993-1.914,11.634,0l78.306,41.168l-14.956-87.195
		c-0.695-4.055,0.649-8.192,3.595-11.064l63.352-61.752l-87.549-12.722c-4.071-0.592-7.591-3.148-9.412-6.838L256,129.244
		l-39.153,79.334c-1.82,3.689-5.341,6.246-9.412,6.838L119.885,228.138z"/>
</g>
</svg>
