<?xml version="1.0" encoding="utf-8"?>
<!-- Generator: Adobe Illustrator 16.0.0, SVG Export Plug-In . SVG Version: 6.00 Build 0)  -->
<!DOCTYPE svg PUBLIC "-//W3C//DTD SVG 1.1//EN" "http://www.w3.org/Graphics/SVG/1.1/DTD/svg11.dtd">
<svg version="1.1" id="Layer_1" xmlns="http://www.w3.org/2000/svg" xmlns:xlink="http://www.w3.org/1999/xlink" x="0px" y="0px"
	 width="512px" height="512px" viewBox="0 0 512 512" enable-background="new 0 0 512 512" xml:space="preserve">
<path d="M399.564,419.705l-85.316-208.281V87.557c0-6.903-5.596-12.5-12.5-12.5h-91.496c-6.904,0-12.5,5.597-12.5,12.5v123.867
	l-85.316,208.281c-1.579,3.855-1.134,8.244,1.188,11.703c2.321,3.46,6.214,5.535,10.38,5.535h263.994
	c4.166,0,8.059-2.075,10.38-5.535C400.698,427.949,401.144,423.561,399.564,419.705z M221.819,218.623
	c0.616-1.504,0.933-3.113,0.933-4.738V100.057h66.496v113.828c0,1.625,0.317,3.234,0.933,4.738l15.612,38.113h-99.586
	L221.819,218.623z M142.631,411.943l53.335-130.207h120.066l53.335,130.207H142.631z"/>
</svg>
