<?xml version="1.0" encoding="utf-8"?>
<!-- Generator: Adobe Illustrator 16.0.0, SVG Export Plug-In . SVG Version: 6.00 Build 0)  -->
<!DOCTYPE svg PUBLIC "-//W3C//DTD SVG 1.1//EN" "http://www.w3.org/Graphics/SVG/1.1/DTD/svg11.dtd">
<svg version="1.1" id="Layer_1" xmlns="http://www.w3.org/2000/svg" xmlns:xlink="http://www.w3.org/1999/xlink" x="0px" y="0px"
	 width="512px" height="512px" viewBox="0 0 512 512" enable-background="new 0 0 512 512" xml:space="preserve">
<path d="M460.773,167.021c-2.37-2.629-5.744-4.13-9.284-4.13h-2.345c-2.904-26.221-25.189-46.685-52.171-46.685H258.5v-12.298
	c0-6.903-5.597-12.5-12.5-12.5H100.511c-28.948,0-52.5,23.552-52.5,52.5c0,0.371,0.017,0.741,0.05,1.11l20,224.184
	c0.005,0.063,0.012,0.126,0.018,0.188c3.199,30.625,24.27,51.201,52.433,51.201h270.979c27.082,0,47.633-19.862,52.355-50.602
	c0.03-0.202,0.057-0.405,0.078-0.608l20-192.701C464.288,173.16,463.144,169.649,460.773,167.021z M423.85,162.891H286
	c-13.169,0-24.199-9.306-26.875-21.685h137.849C410.142,141.206,421.172,150.512,423.85,162.891z M419.09,366.479
	c-1.155,7.209-6.427,29.112-27.601,29.112H120.511c-18.068,0-26.078-14.811-27.558-28.706L73.016,143.402
	c-1.138-14.935,12.5-26.994,27.495-26.994H233.5v18.982c0,28.948,23.552,52.5,52.5,52.5h151.625L419.09,366.479z"/>
</svg>
