<?xml version="1.0" encoding="utf-8"?>
<!-- Generator: Adobe Illustrator 16.0.0, SVG Export Plug-In . SVG Version: 6.00 Build 0)  -->
<!DOCTYPE svg PUBLIC "-//W3C//DTD SVG 1.1//EN" "http://www.w3.org/Graphics/SVG/1.1/DTD/svg11.dtd">
<svg version="1.1" id="Layer_1" xmlns="http://www.w3.org/2000/svg" xmlns:xlink="http://www.w3.org/1999/xlink" x="0px" y="0px"
	 width="512px" height="512px" viewBox="0 0 512 512" enable-background="new 0 0 512 512" xml:space="preserve">
<path d="M256,58.5C147.098,58.5,58.5,147.098,58.5,256S147.098,453.5,256,453.5S453.5,364.902,453.5,256S364.902,58.5,256,58.5z
	 M428.044,243.5h-89.72c-1.199-43.439-8.627-84.031-21.228-115.404c-6.881-17.133-15.077-30.779-24.215-40.613
	C366.387,103.557,422.512,166.629,428.044,243.5z M256,417.795c-12.865,0-27.032-16.152-37.898-43.208
	c-11.462-28.54-18.255-65.831-19.421-106.087h114.639c-1.167,40.256-7.959,77.547-19.422,106.087
	C283.032,401.643,268.864,417.795,256,417.795z M198.681,243.5c1.166-40.256,7.959-77.547,19.421-106.087
	c10.866-27.056,25.034-43.208,37.898-43.208c12.864,0,27.032,16.152,37.897,43.208c11.463,28.54,18.255,65.831,19.422,106.087
	H198.681z M219.118,87.482c-9.138,9.834-17.334,23.48-24.215,40.613c-12.6,31.374-20.028,71.965-21.227,115.404h-89.72
	C89.488,166.629,145.613,103.557,219.118,87.482z M83.956,268.5h89.72c1.199,43.439,8.627,84.031,21.227,115.404
	c6.881,17.133,15.077,30.779,24.215,40.613C145.613,408.443,89.488,345.371,83.956,268.5z M292.882,424.518
	c9.138-9.834,17.334-23.48,24.215-40.613c12.601-31.374,20.028-71.965,21.228-115.404h89.72
	C422.512,345.371,366.387,408.443,292.882,424.518z"/>
</svg>
