<?xml version="1.0" encoding="utf-8"?>
<!-- Generator: Adobe Illustrator 16.0.0, SVG Export Plug-In . SVG Version: 6.00 Build 0)  -->
<!DOCTYPE svg PUBLIC "-//W3C//DTD SVG 1.1//EN" "http://www.w3.org/Graphics/SVG/1.1/DTD/svg11.dtd">
<svg version="1.1" id="Layer_1" xmlns="http://www.w3.org/2000/svg" xmlns:xlink="http://www.w3.org/1999/xlink" x="0px" y="0px"
	 width="512px" height="512px" viewBox="0 0 512 512" enable-background="new 0 0 512 512" xml:space="preserve">
<g>
	<path d="M438.409,204.107l-176.65-91.701c-3.611-1.874-7.907-1.874-11.519,0l-176.65,91.701c-4.141,2.15-6.74,6.427-6.741,11.093
		c0,0,0,0,0,0.001v47.864c0,6.903,5.596,12.5,12.5,12.5s12.5-5.597,12.5-12.5v-27.291l26.793,13.909v99.542
		c0,2.608,0.815,5.15,2.333,7.271C122.275,358.313,153.975,401,256,401s133.723-42.687,135.022-44.504
		c1.517-2.121,2.332-4.664,2.332-7.271v-99.542l45.055-23.388c4.142-2.15,6.741-6.428,6.741-11.094S442.551,206.257,438.409,204.107
		z M368.354,344.397C360.053,352.377,329.274,376,256,376c-73.275,0-104.054-23.623-112.356-31.603V262.66l106.597,55.335
		c1.806,0.937,3.782,1.406,5.759,1.406s3.954-0.469,5.759-1.406l106.595-55.334V344.397z M256,292.817l-149.519-77.616L256,137.584
		l149.519,77.617L256,292.817z"/>
	<path d="M79.35,286.586c-6.904,0-12.5,5.596-12.5,12.5v15.117c0,6.903,5.596,12.5,12.5,12.5s12.5-5.597,12.5-12.5v-15.117
		C91.85,292.182,86.254,286.586,79.35,286.586z"/>
</g>
</svg>
