<?xml version="1.0" encoding="utf-8"?>
<!-- Generator: Adobe Illustrator 16.0.0, SVG Export Plug-In . SVG Version: 6.00 Build 0)  -->
<!DOCTYPE svg PUBLIC "-//W3C//DTD SVG 1.1//EN" "http://www.w3.org/Graphics/SVG/1.1/DTD/svg11.dtd">
<svg version="1.1" id="Layer_1" xmlns="http://www.w3.org/2000/svg" xmlns:xlink="http://www.w3.org/1999/xlink" x="0px" y="0px"
	 width="512px" height="512px" viewBox="0 0 512 512" enable-background="new 0 0 512 512" xml:space="preserve">
<path d="M428.5,226.763c0-95.117-77.383-172.5-172.5-172.5s-172.5,77.383-172.5,172.5c0,56.08,27.084,108.31,72.689,140.699
	c0.834,8.94,4.465,17.357,10.541,24.197l38.226,43.036c0.385,0.433,0.784,0.852,1.197,1.257
	c10.26,10.05,29.396,21.786,49.559,21.786h37.635c16.22,0,31.597-5.769,43.3-16.244c12.3-11.01,19.355-26.487,19.355-42.461
	l-0.014-31.703C401.469,334.935,428.5,282.718,428.5,226.763z M293.346,432.737h-37.635c-11.272,0-24.383-7.12-32.064-14.645
	l-38.225-43.034c-6.425-7.235-5.771-18.309,1.465-24.735c3.338-2.964,7.491-4.422,11.63-4.422c4.833,0,9.644,1.989,13.105,5.886
	l6.202,6.981v-79.057c0-9.677,7.844-17.522,17.521-17.522s17.521,7.845,17.521,17.522v40.984c2.615-1.552,5.658-2.459,8.919-2.459
	c7.436,0,13.775,4.64,16.318,11.177c2.723-1.745,5.953-2.769,9.427-2.769c8.56,0,15.676,6.142,17.206,14.257
	c2.572-1.481,5.545-2.341,8.726-2.341c9.676,0,17.521,7.845,17.521,17.521L331,399.032C331,417.648,314.143,432.737,293.346,432.737
	z M352.206,338.563c-6.196-13.651-19.405-23.474-35.002-24.84c-7.724-7.524-18.252-12.079-29.674-12.079
	c-0.124,0-0.247,0-0.371,0.001c-0.353-0.262-0.71-0.52-1.071-0.772c-2.592-1.809-5.347-3.31-8.223-4.487v-16.675
	c0-23.447-19.075-42.522-42.521-42.522c-23.446,0-42.521,19.075-42.521,42.522v41.572c-8.333,1.124-16.18,4.7-22.538,10.348
	c-3.066,2.723-5.676,5.823-7.8,9.201C128.447,312.924,108.5,271.26,108.5,226.763c0-81.332,66.168-147.5,147.5-147.5
	s147.5,66.168,147.5,147.5C403.5,270.032,384.591,310.688,352.206,338.563z"/>
</svg>
