<?xml version="1.0" encoding="utf-8"?>
<!-- Generator: Adobe Illustrator 16.0.0, SVG Export Plug-In . SVG Version: 6.00 Build 0)  -->
<!DOCTYPE svg PUBLIC "-//W3C//DTD SVG 1.1//EN" "http://www.w3.org/Graphics/SVG/1.1/DTD/svg11.dtd">
<svg version="1.1" id="Layer_1" xmlns="http://www.w3.org/2000/svg" xmlns:xlink="http://www.w3.org/1999/xlink" x="0px" y="0px"
	 width="512px" height="512px" viewBox="0 0 512 512" enable-background="new 0 0 512 512" xml:space="preserve">
<g>
	<path d="M256,73.483C155.36,73.483,73.483,155.36,73.483,256S155.36,438.517,256,438.517S438.517,356.64,438.517,256
		S356.64,73.483,256,73.483z M268.5,413.021v-17.223c0-6.903-5.597-12.5-12.5-12.5s-12.5,5.597-12.5,12.5v17.223
		c-76.908-6.067-138.454-67.613-144.521-144.521h17.223c6.903,0,12.5-5.597,12.5-12.5s-5.597-12.5-12.5-12.5H98.979
		c6.067-76.908,67.613-138.454,144.521-144.521v17.223c0,6.903,5.597,12.5,12.5,12.5s12.5-5.597,12.5-12.5V98.979
		c76.908,6.067,138.454,67.613,144.521,144.521h-17.223c-6.903,0-12.5,5.597-12.5,12.5s5.597,12.5,12.5,12.5h17.223
		C406.954,345.408,345.408,406.954,268.5,413.021z"/>
	<path d="M291.236,261.141c1.555-10.749-1.794-22.077-10.047-30.331c-6.729-6.729-15.674-10.434-25.189-10.434
		c-1.743,0-3.467,0.127-5.161,0.372l-53.493-40.926c-4.979-3.809-12.005-3.341-16.435,1.089c-4.431,4.431-4.896,11.457-1.089,16.435
		l40.941,53.514c-1.555,10.749,1.794,22.077,10.047,30.331c6.729,6.729,15.674,10.434,25.189,10.434
		c1.743,0,3.467-0.127,5.161-0.372l53.493,40.926c2.255,1.725,4.929,2.572,7.592,2.572c3.218,0,6.419-1.237,8.843-3.661
		c4.431-4.431,4.896-11.457,1.089-16.435L291.236,261.141z"/>
</g>
</svg>
