<?xml version="1.0" encoding="utf-8"?>
<!-- Generator: Adobe Illustrator 16.0.0, SVG Export Plug-In . SVG Version: 6.00 Build 0)  -->
<!DOCTYPE svg PUBLIC "-//W3C//DTD SVG 1.1//EN" "http://www.w3.org/Graphics/SVG/1.1/DTD/svg11.dtd">
<svg version="1.1" id="Layer_1" xmlns="http://www.w3.org/2000/svg" xmlns:xlink="http://www.w3.org/1999/xlink" x="0px" y="0px"
	 width="512px" height="512px" viewBox="0 0 512 512" enable-background="new 0 0 512 512" xml:space="preserve">
<path d="M406.098,105.902c-27.344-27.344-63.7-42.403-102.37-42.402c-0.002,0,0.001,0-0.001,0
	c-38.667,0-75.026,15.06-102.368,42.402c-27.343,27.344-42.402,63.7-42.402,102.37c0,26.388,7.018,51.696,20.161,73.801
	L73.752,387.438C67.141,394.05,63.5,402.84,63.5,412.19s3.641,18.14,10.252,24.75l1.307,1.307
	C81.67,444.859,90.46,448.5,99.81,448.5s18.14-3.641,24.751-10.252l105.365-105.366c22.104,13.144,47.413,20.161,73.801,20.161
	c38.67,0,75.026-15.059,102.37-42.402c27.344-27.343,42.403-63.699,42.402-102.369C448.5,169.602,433.442,133.247,406.098,105.902z
	 M106.884,420.57c-1.89,1.89-4.402,2.93-7.074,2.93c-2.671,0-5.183-1.041-7.073-2.93l-1.308-1.308
	c-1.889-1.889-2.93-4.401-2.93-7.072c0-2.672,1.041-5.184,2.93-7.074l102.489-102.488c2.369,2.748,4.849,5.421,7.44,8.013
	s5.265,5.072,8.013,7.44L106.884,420.57z M388.42,292.963c-22.622,22.622-52.7,35.08-84.692,35.08
	c-31.992,0-62.069-12.458-84.69-35.08c-22.622-22.622-35.081-52.699-35.08-84.69c0-31.993,12.458-62.07,35.08-84.692
	c22.622-22.622,52.699-35.081,84.691-35.08c31.993,0,62.07,12.458,84.692,35.08s35.081,52.7,35.08,84.692
	C423.5,240.264,411.042,270.341,388.42,292.963z"/>
</svg>
