<?xml version="1.0" encoding="utf-8"?>
<!-- Generator: Adobe Illustrator 16.0.0, SVG Export Plug-In . SVG Version: 6.00 Build 0)  -->
<!DOCTYPE svg PUBLIC "-//W3C//DTD SVG 1.1//EN" "http://www.w3.org/Graphics/SVG/1.1/DTD/svg11.dtd">
<svg version="1.1" id="Layer_1" xmlns="http://www.w3.org/2000/svg" xmlns:xlink="http://www.w3.org/1999/xlink" x="0px" y="0px"
	 width="512px" height="512px" viewBox="0 0 512 512" enable-background="new 0 0 512 512" xml:space="preserve">
<path d="M385.83,118.902C351.033,90.763,304.926,75.266,256,75.266s-95.033,15.497-129.83,43.637
	c-35.571,28.767-55.161,67.248-55.161,108.355c0,41.108,19.59,79.591,55.161,108.356c34.797,28.141,80.904,43.638,129.83,43.638
	c4.982,0,10-0.166,14.995-0.495l31.509,51.959c2.213,3.648,6.134,5.916,10.399,6.016c0.097,0.003,0.192,0.003,0.29,0.003
	c4.156,0,8.051-2.069,10.376-5.53l66.711-99.325c32.727-28.33,50.711-65.372,50.711-104.621
	C440.991,186.15,421.401,147.669,385.83,118.902z M371.913,314.682l-58.183,86.333l-25.371-41.838
	c-2.28-3.761-6.348-6.019-10.686-6.019c-0.419,0-0.84,0.021-1.262,0.063c-6.752,0.684-13.619,1.03-20.412,1.03
	c-88.22,0-159.991-56.97-159.991-126.994c0-70.023,71.771-126.992,159.991-126.992s159.991,56.969,159.991,126.992
	C415.991,259.894,400.337,290.941,371.913,314.682z"/>
</svg>
