<?xml version="1.0" encoding="utf-8"?>
<!-- Generator: Adobe Illustrator 16.0.0, SVG Export Plug-In . SVG Version: 6.00 Build 0)  -->
<!DOCTYPE svg PUBLIC "-//W3C//DTD SVG 1.1//EN" "http://www.w3.org/Graphics/SVG/1.1/DTD/svg11.dtd">
<svg version="1.1" id="Layer_1" xmlns="http://www.w3.org/2000/svg" xmlns:xlink="http://www.w3.org/1999/xlink" x="0px" y="0px"
	 width="512px" height="512px" viewBox="0 0 512 512" enable-background="new 0 0 512 512" xml:space="preserve">
<g>
	<path d="M373.461,212.709h-36.963l10.94-46.389c8.437-35.774-13.806-71.743-49.579-80.18l-51.125-12.057
		c-17.325-4.085-35.212-1.181-50.357,8.183c-15.145,9.364-25.736,24.065-29.822,41.396c-1.585,6.72,2.578,13.451,9.297,15.035
		c6.717,1.585,13.451-2.578,15.035-9.297c2.554-10.83,9.173-20.018,18.638-25.87c9.465-5.852,20.64-7.67,31.472-5.114l51.125,12.057
		c22.357,5.273,36.258,27.752,30.985,50.109l-12.294,52.127H138.539c-6.903,0-12.5,5.597-12.5,12.5v122.094
		c0,50.953,41.453,92.406,92.405,92.406h75.111c50.952,0,92.405-41.453,92.405-92.406V225.209
		C385.961,218.306,380.364,212.709,373.461,212.709z M360.961,347.303c0,37.168-30.238,67.406-67.405,67.406h-75.111
		c-37.167,0-67.405-30.238-67.405-67.406V237.709h209.922V347.303z"/>
	<path d="M243.5,373.209c0,6.903,5.596,12.5,12.5,12.5c6.903,0,12.5-5.597,12.5-12.5v-35.69c1.488-2.057,2.375-4.577,2.375-7.31
		c0-6.903-5.597-12.5-12.5-12.5h-4.75c-6.903,0-12.5,5.597-12.5,12.5c0,2.732,0.887,5.253,2.375,7.31V373.209z"/>
</g>
</svg>
