<?xml version="1.0" encoding="utf-8"?>
<!-- Generator: Adobe Illustrator 16.0.0, SVG Export Plug-In . SVG Version: 6.00 Build 0)  -->
<!DOCTYPE svg PUBLIC "-//W3C//DTD SVG 1.1//EN" "http://www.w3.org/Graphics/SVG/1.1/DTD/svg11.dtd">
<svg version="1.1" id="Layer_1" xmlns="http://www.w3.org/2000/svg" xmlns:xlink="http://www.w3.org/1999/xlink" x="0px" y="0px"
	 width="512px" height="512px" viewBox="0 0 512 512" enable-background="new 0 0 512 512" xml:space="preserve">
<path d="M388.691,123.309C366.246,100.862,336.4,88.5,304.655,88.5s-61.591,12.362-84.038,34.809
	c-15.987,15.987-27.031,36.051-31.938,58.024c-4.195,18.785-3.78,38.241,1.156,56.734l-97.674,97.673
	c-2.419,2.419-3.741,5.723-3.657,9.143l1.577,64.845c0.162,6.666,5.526,12.03,12.192,12.193l64.845,1.576
	c0.102,0.003,0.203,0.004,0.304,0.004c3.311,0,6.492-1.314,8.839-3.661l72.549-72.549c0.001-0.001,0.003-0.003,0.005-0.004
	s0.003-0.003,0.005-0.005l25.115-25.115c10.002,2.67,20.307,4.021,30.73,4.021c0.002,0,0,0,0.002,0
	c31.741,0,61.583-12.361,84.024-34.804C435.03,245.044,435.03,169.646,388.691,123.309z M371.014,273.706
	c-17.722,17.722-41.285,27.482-66.349,27.481c-10.334,0-20.516-1.678-30.262-4.986c-4.507-1.53-9.492-0.367-12.857,2.998
	l-21.569,21.569l-5.871-5.872c-4.881-4.881-12.795-4.882-17.678-0.001c-4.882,4.881-4.882,12.796-0.001,17.678l5.872,5.873
	l-24.1,24.1l-5.872-5.873c-4.881-4.881-12.795-4.881-17.678,0c-4.881,4.881-4.882,12.796,0,17.678l5.872,5.873l-18.151,18.151
	l-47.587-1.157l-1.157-47.587l99.176-99.175c3.365-3.365,4.528-8.35,2.998-12.857c-11.586-34.131-2.967-71.15,22.495-96.611
	c17.725-17.725,41.292-27.486,66.36-27.486c20.851,0,40.66,6.76,56.936,19.232l-36.033,36.033
	c-5.959-3.139-12.628-4.809-19.555-4.809c-11.229,0-21.787,4.373-29.729,12.314c-16.391,16.392-16.39,43.063,0.002,59.455
	c7.94,7.94,18.498,12.313,29.727,12.313c11.228,0,21.786-4.373,29.726-12.313c7.941-7.941,12.315-18.499,12.315-29.728
	c0-6.927-1.669-13.596-4.809-19.555l36.012-36.011C407.334,187.193,404.606,240.113,371.014,273.706z M318.053,193.949
	c3.219,3.219,4.992,7.498,4.992,12.048c0,4.551-1.773,8.831-4.993,12.05c-3.219,3.218-7.498,4.991-12.048,4.991
	c-4.551,0-8.831-1.772-12.048-4.991c-6.645-6.645-6.646-17.456-0.003-24.099c3.219-3.219,7.499-4.992,12.051-4.992
	C310.554,188.957,314.833,190.729,318.053,193.949z"/>
</svg>
