<?xml version="1.0" encoding="utf-8"?>
<!-- Generator: Adobe Illustrator 16.0.0, SVG Export Plug-In . SVG Version: 6.00 Build 0)  -->
<!DOCTYPE svg PUBLIC "-//W3C//DTD SVG 1.1//EN" "http://www.w3.org/Graphics/SVG/1.1/DTD/svg11.dtd">
<svg version="1.1" id="Layer_1" xmlns="http://www.w3.org/2000/svg" xmlns:xlink="http://www.w3.org/1999/xlink" x="0px" y="0px"
	 width="512px" height="512px" viewBox="0 0 512 512" enable-background="new 0 0 512 512" xml:space="preserve">
<path d="M439.839,207.216L304.782,72.16c-4.882-4.881-12.796-4.881-17.678,0c-10.44,10.439-19.515,44.235-22.42,55.99
	c-0.001,0.001-0.002,0.002-0.003,0.003l-54.232,54.233c-4.916-1.649-10.096-2.502-15.334-2.502
	c-12.848,0-24.927,5.003-34.016,14.089c-18.75,18.755-18.75,49.271,0.001,68.026l35.61,35.61L72.161,422.162
	c-4.881,4.882-4.881,12.796,0,17.678c2.441,2.44,5.64,3.661,8.839,3.661s6.398-1.221,8.839-3.661l124.549-124.552l35.613,35.613
	c9.086,9.085,21.166,14.089,34.014,14.089c12.849,0,24.928-5.004,34.011-14.088c13.125-13.122,17.339-32.322,11.595-49.359
	l54.225-54.225c11.751-2.903,45.55-11.976,55.996-22.428C444.721,220.009,444.719,212.097,439.839,207.216z M374.851,223.777
	c-2.641,0.531-5.039,1.9-6.838,3.904c-0.667,0.743-1.271,1.385-1.844,1.958l-60.319,60.319c-4.033,4.033-4.825,10.284-1.924,15.195
	c5.355,9.067,3.885,20.609-3.577,28.069c-4.362,4.363-10.164,6.767-16.334,6.767c-6.171,0-11.973-2.403-16.336-6.767l-44.43-44.431
	c-0.007-0.007-0.013-0.016-0.021-0.022s-0.016-0.013-0.023-0.021l-44.426-44.427c-9.006-9.008-9.006-23.665-0.002-32.672
	c4.365-4.363,10.167-6.767,16.338-6.767c4.141,0,8.197,1.103,11.731,3.189c4.912,2.9,11.163,2.109,15.196-1.924l60.304-60.306
	c0.607-0.605,1.258-1.218,1.936-1.821c2.023-1.802,3.407-4.213,3.941-6.869c1.773-8.813,6.467-24.428,10.739-35.46l111.341,111.34
	C399.259,217.319,383.659,222.007,374.851,223.777z"/>
</svg>
