<?xml version="1.0" encoding="utf-8"?>
<!-- Generator: Adobe Illustrator 16.0.0, SVG Export Plug-In . SVG Version: 6.00 Build 0)  -->
<!DOCTYPE svg PUBLIC "-//W3C//DTD SVG 1.1//EN" "http://www.w3.org/Graphics/SVG/1.1/DTD/svg11.dtd">
<svg version="1.1" id="Layer_1" xmlns="http://www.w3.org/2000/svg" xmlns:xlink="http://www.w3.org/1999/xlink" x="0px" y="0px"
	 width="512px" height="512px" viewBox="0 0 512 512" enable-background="new 0 0 512 512" xml:space="preserve">
<g>
	<path d="M381.351,58.5H130.649c-39.784,0-72.15,32.367-72.15,72.151v250.698c0,39.784,32.366,72.151,72.15,72.151h250.701
		c39.784,0,72.15-32.367,72.15-72.151V130.651C453.501,90.867,421.135,58.5,381.351,58.5z M428.501,381.349
		c0,25.999-21.151,47.151-47.15,47.151H130.649c-25.999,0-47.15-21.152-47.15-47.151V130.651c0-25.999,21.151-47.151,47.15-47.151
		h250.701c25.999,0,47.15,21.152,47.15,47.151V381.349z"/>
	<path d="M342.4,246.246L215.234,144.325c-3.751-3.006-8.893-3.596-13.228-1.515c-4.333,2.08-7.09,6.461-7.09,11.269v203.842
		c0,4.807,2.757,9.188,7.09,11.269c1.722,0.827,3.569,1.231,5.408,1.231c2.791,0,5.559-0.934,7.819-2.746L342.4,265.754
		c2.96-2.373,4.683-5.96,4.683-9.754S345.36,248.619,342.4,246.246z M219.917,331.883V180.117L314.596,256L219.917,331.883z"/>
</g>
</svg>
