<?xml version="1.0" encoding="utf-8"?>
<!-- Generator: Adobe Illustrator 16.0.0, SVG Export Plug-In . SVG Version: 6.00 Build 0)  -->
<!DOCTYPE svg PUBLIC "-//W3C//DTD SVG 1.1//EN" "http://www.w3.org/Graphics/SVG/1.1/DTD/svg11.dtd">
<svg version="1.1" id="Layer_1" xmlns="http://www.w3.org/2000/svg" xmlns:xlink="http://www.w3.org/1999/xlink" x="0px" y="0px"
	 width="512px" height="512px" viewBox="0 0 512 512" enable-background="new 0 0 512 512" xml:space="preserve">
<g>
	<g>
		<path d="M256,254.883c-6.903,0-12.5-5.597-12.5-12.5V91.018c0-6.903,5.597-12.5,12.5-12.5s12.5,5.597,12.5,12.5v151.365
			C268.5,249.286,262.903,254.883,256,254.883z"/>
	</g>
	<g>
		<path d="M256,433.482c-87.831,0-159.286-71.455-159.286-159.285c0-35.123,11.209-68.43,32.417-96.319
			c20.515-26.979,49.637-47.061,82-56.545c6.625-1.949,13.569,1.855,15.511,8.479c1.941,6.625-1.855,13.569-8.48,15.511
			c-56.788,16.644-96.449,69.638-96.449,128.874c0,74.045,60.24,134.285,134.286,134.285c74.045,0,134.286-60.24,134.286-134.285
			c0-59.236-39.661-112.23-96.449-128.874c-6.625-1.941-10.421-8.886-8.48-15.511s8.885-10.426,15.511-8.479
			c32.364,9.484,61.485,29.566,82,56.545c21.208,27.89,32.417,61.196,32.417,96.319C415.286,362.027,343.831,433.482,256,433.482z"
			/>
	</g>
</g>
</svg>
