<?xml version="1.0" encoding="utf-8"?>
<!-- Generator: Adobe Illustrator 16.0.0, SVG Export Plug-In . SVG Version: 6.00 Build 0)  -->
<!DOCTYPE svg PUBLIC "-//W3C//DTD SVG 1.1//EN" "http://www.w3.org/Graphics/SVG/1.1/DTD/svg11.dtd">
<svg version="1.1" id="Layer_1" xmlns="http://www.w3.org/2000/svg" xmlns:xlink="http://www.w3.org/1999/xlink" x="0px" y="0px"
	 width="512px" height="512px" viewBox="0 0 512 512" enable-background="new 0 0 512 512" xml:space="preserve">
<path d="M333.357,263.702h-16.123c31.147-20.151,51.804-55.193,51.804-94.971c0-62.33-50.708-113.038-113.038-113.038
	c-62.33,0-113.038,50.708-113.038,113.038c0,39.778,20.656,74.82,51.804,94.971h-16.123c-41.434,0-75.143,33.708-75.143,75.141
	v104.964c0,6.903,5.597,12.5,12.5,12.5h280c6.903,0,12.5-5.597,12.5-12.5V338.843C408.5,297.41,374.791,263.702,333.357,263.702z
	 M167.962,168.731c0-48.544,39.493-88.038,88.038-88.038c48.544,0,88.038,39.494,88.038,88.038
	c0,48.543-39.494,88.036-88.038,88.036C207.455,256.767,167.962,217.274,167.962,168.731z M292.573,275.691L256,312.265
	l-36.573-36.573c11.477,3.935,23.779,6.075,36.573,6.075S281.097,279.626,292.573,275.691z M383.5,431.307h-34v-60.06
	c0-6.903-5.597-12.5-12.5-12.5s-12.5,5.597-12.5,12.5v60.06h-137v-60.06c0-6.903-5.597-12.5-12.5-12.5s-12.5,5.597-12.5,12.5v60.06
	h-34v-92.464c0-27.647,22.494-50.141,50.143-50.141h18.439l50.079,50.079c2.441,2.441,5.64,3.661,8.839,3.661
	s6.397-1.22,8.839-3.661l50.079-50.079h18.439c27.649,0,50.143,22.493,50.143,50.141V431.307z"/>
</svg>
