<?xml version="1.0" encoding="utf-8"?>
<!-- Generator: Adobe Illustrator 16.0.0, SVG Export Plug-In . SVG Version: 6.00 Build 0)  -->
<!DOCTYPE svg PUBLIC "-//W3C//DTD SVG 1.1//EN" "http://www.w3.org/Graphics/SVG/1.1/DTD/svg11.dtd">
<svg version="1.1" id="Layer_1" xmlns="http://www.w3.org/2000/svg" xmlns:xlink="http://www.w3.org/1999/xlink" x="0px" y="0px"
	 width="512px" height="512px" viewBox="0 0 512 512" enable-background="new 0 0 512 512" xml:space="preserve">
<g>
	<path d="M381.351,58.5H130.649c-39.784,0-72.15,32.366-72.15,72.15V381.35c0,39.784,32.367,72.15,72.15,72.15h250.701
		c39.784,0,72.15-32.366,72.15-72.15V130.65C453.501,90.866,421.134,58.5,381.351,58.5z M428.501,381.35
		c0,25.999-21.151,47.15-47.15,47.15H130.649c-25.999,0-47.15-21.151-47.15-47.15V130.65c0-25.999,21.151-47.15,47.15-47.15h250.701
		c25.999,0,47.15,21.151,47.15,47.15V381.35z"/>
	<path d="M256,138.407c-33.775,0-61.253,27.479-61.253,61.254c0,6.903,5.596,12.5,12.5,12.5s12.5-5.597,12.5-12.5
		c0-19.99,16.263-36.254,36.253-36.254s36.253,16.264,36.253,36.254c0,11.497-8.315,19.183-22.01,30.474
		c-12.536,10.334-26.743,22.048-26.743,40.67v40.103c0,6.903,5.597,12.5,12.5,12.5s12.5-5.597,12.5-12.5v-40.103
		c0-6.832,8.178-13.574,17.646-21.381c13.859-11.426,31.106-25.646,31.106-49.763C317.253,165.886,289.775,138.407,256,138.407z"/>
	<path d="M256,341.524c-8.842,0-16.034,7.193-16.034,16.034s7.192,16.034,16.034,16.034c8.841,0,16.034-7.193,16.034-16.034
		S264.841,341.524,256,341.524z"/>
</g>
</svg>
