<?xml version="1.0" encoding="utf-8"?>
<!-- Generator: Adobe Illustrator 16.0.0, SVG Export Plug-In . SVG Version: 6.00 Build 0)  -->
<!DOCTYPE svg PUBLIC "-//W3C//DTD SVG 1.1//EN" "http://www.w3.org/Graphics/SVG/1.1/DTD/svg11.dtd">
<svg version="1.1" id="Layer_1" xmlns="http://www.w3.org/2000/svg" xmlns:xlink="http://www.w3.org/1999/xlink" x="0px" y="0px"
	 width="512px" height="512px" viewBox="0 0 512 512" enable-background="new 0 0 512 512" xml:space="preserve">
<g>
	<path d="M431.117,157.388c-1.666-3.766-5.078-6.469-9.125-7.228c-4.053-0.762-8.21,0.523-11.127,3.429l-46.148,45.966
		c-6.986,6.987-16.279,10.835-26.162,10.836c-9.881,0-19.172-3.848-26.16-10.837c-6.988-6.988-10.837-16.278-10.838-26.161
		c0-9.883,3.85-19.173,10.823-26.148l46.107-45.974c2.921-2.912,4.218-7.079,3.464-11.135s-3.46-7.479-7.232-9.147
		c-12.121-5.362-25.594-8.197-38.964-8.198c-24.839,0.001-47.881,9.362-64.88,26.361l-15.197,15.197
		c-26.348,26.348-34.146,65.179-20.72,99.207L90.02,338.494c-11.143,11.144-17.28,25.959-17.281,41.718s6.136,30.574,17.279,41.719
		c11.145,11.143,25.961,17.279,41.719,17.279c15.759-0.001,30.574-6.137,41.719-17.279l124.951-124.952
		c10.719,4.191,22.238,6.379,33.797,6.379c24.705,0,47.929-9.62,65.396-27.088l15.195-15.195
		C439.416,234.453,446.778,192.785,431.117,157.388z M332.203,278.357c-10.801-0.001-21.475-2.541-31.001-7.481
		c-5.296-2.744-11.397-1.079-15.518,3.293L155.777,404.251c-6.422,6.423-14.96,9.958-24.041,9.958s-17.619-3.536-24.041-9.957
		c-6.42-6.422-9.957-14.959-9.957-24.04s3.537-17.619,9.959-24.041l130.06-129.925c4.485-4.262,6.041-10.226,3.294-15.521
		c-13.596-26.223-8.598-57.795,12.305-78.698l15.197-15.196c12.277-12.278,29.041-19.04,47.201-19.04
		c3.373,0,6.752,0.243,10.096,0.719l-31.135,31.045c-11.71,11.71-18.158,27.279-18.158,43.839c0.002,16.561,6.45,32.13,18.16,43.839
		c11.71,11.711,27.279,18.16,43.84,18.159c16.561-0.002,32.13-6.45,43.82-18.141l31.216-31.093
		c2.965,20.931-3.602,42.364-18.476,57.238l-15.195,15.196C367.176,271.337,350.229,278.357,332.203,278.357z"/>
	<path d="M134.633,357.816c-5.209,0-10.106,2.028-13.789,5.712c-3.682,3.683-5.711,8.579-5.711,13.788s2.028,10.105,5.711,13.789
		c3.683,3.683,8.58,5.711,13.789,5.711c5.209-0.001,10.105-2.028,13.789-5.712c3.684-3.683,5.711-8.58,5.711-13.788
		c0-5.209-2.028-10.106-5.711-13.789C144.738,359.843,139.842,357.816,134.633,357.816z"/>
</g>
</svg>
