<?xml version="1.0" encoding="utf-8"?>
<!-- Generator: Adobe Illustrator 16.0.0, SVG Export Plug-In . SVG Version: 6.00 Build 0)  -->
<!DOCTYPE svg PUBLIC "-//W3C//DTD SVG 1.1//EN" "http://www.w3.org/Graphics/SVG/1.1/DTD/svg11.dtd">
<svg version="1.1" id="Layer_1" xmlns="http://www.w3.org/2000/svg" xmlns:xlink="http://www.w3.org/1999/xlink" x="0px" y="0px"
	 width="512px" height="512px" viewBox="0 0 512 512" enable-background="new 0 0 512 512" xml:space="preserve">
<g>
	<path d="M473.646,161.951c-1.666-3.766-5.078-6.469-9.125-7.229c-4.053-0.762-8.21,0.523-11.127,3.43l-46.148,45.965
		c-6.986,6.988-16.279,10.836-26.162,10.836c-9.881,0-19.172-3.848-26.16-10.836s-10.837-16.279-10.838-26.162
		c0-9.883,3.85-19.172,10.823-26.148l46.107-45.973c2.921-2.912,4.218-7.08,3.464-11.135c-0.754-4.057-3.46-7.479-7.232-9.148
		c-12.121-5.361-25.594-8.197-38.964-8.197c-24.839,0-47.881,9.361-64.88,26.361l-15.197,15.197
		c-26.348,26.348-34.146,65.178-20.72,99.207l-15.468,15.468L225.91,217.48l6.475-6.474c4.882-4.882,4.882-12.796,0-17.678
		l-62.931-62.931c4.058-16.895-0.817-34.763-13.438-47.377c-9.538-9.539-22.22-14.793-35.709-14.793
		c-13.488,0-26.17,5.252-35.71,14.79l-39.596,39.599c-9.539,9.537-14.793,22.219-14.793,35.708S35.462,184.496,45,194.036
		c9.532,9.532,22.209,14.782,35.693,14.783h0.002c3.97,0,7.874-0.455,11.677-1.356l62.938,62.94
		c2.344,2.344,5.523,3.661,8.839,3.661s6.495-1.317,8.839-3.661l6.471-6.472l16.108,16.107l-63.019,63.018
		c-11.143,11.143-17.28,25.959-17.281,41.717c-0.001,15.76,6.136,30.574,17.279,41.719c11.145,11.143,25.961,17.279,41.719,17.279
		c15.759,0,30.574-6.137,41.719-17.279l63.028-63.028l62.729,62.748c1.393,1.393,3.095,2.437,4.968,3.047l42.669,13.898
		c1.271,0.413,2.576,0.614,3.87,0.614c3.265,0,6.458-1.279,8.841-3.661c3.326-3.325,4.502-8.237,3.047-12.71l-13.896-42.672
		c-0.611-1.872-1.654-3.575-3.047-4.968l-62.729-62.749l15.471-15.471c10.719,4.191,22.238,6.379,33.797,6.379
		c24.705,0,47.929-9.621,65.396-27.088l15.195-15.195C481.945,239.016,489.308,197.348,473.646,161.951z M164.149,243.887
		l-59.519-59.521c-2.394-2.394-5.591-3.661-8.842-3.661c-1.671,0-3.356,0.335-4.954,1.024c-3.209,1.387-6.62,2.09-10.14,2.09
		c-6.809-0.001-13.207-2.65-18.018-7.46c-4.816-4.817-7.469-11.222-7.469-18.033s2.652-13.214,7.469-18.03l39.597-39.599
		c4.817-4.816,11.222-7.469,18.033-7.469c6.811,0,13.214,2.652,18.032,7.472c7.438,7.435,9.547,18.485,5.371,28.152
		c-2.031,4.704-0.986,10.172,2.637,13.795l59.521,59.521L164.149,243.887z M197.138,246.254l11.096-11.096l16.107,16.107
		l-11.096,11.096L197.138,246.254z M368.396,395.319l5.359,16.456l-16.455-5.359l-60.609-60.631l11.096-11.096L368.396,395.319z
		 M437.646,247.959l-15.195,15.195c-12.746,12.746-29.692,19.766-47.719,19.766c-10.801-0.002-21.475-2.541-31.001-7.482
		c-5.296-2.744-11.397-1.078-15.518,3.293L198.307,408.814c-6.422,6.422-14.96,9.957-24.041,9.957s-17.619-3.535-24.041-9.957
		c-6.42-6.422-9.957-14.959-9.957-24.039c0-9.082,3.537-17.619,9.959-24.041l130.06-129.926c4.485-4.262,6.041-10.225,3.294-15.521
		c-13.596-26.223-8.598-57.795,12.305-78.697l15.197-15.197c12.277-12.277,29.041-19.039,47.201-19.039
		c3.373,0,6.752,0.242,10.096,0.719l-31.135,31.045c-11.71,11.709-18.158,27.279-18.158,43.838
		c0.002,16.561,6.45,32.131,18.16,43.84c11.71,11.711,27.279,18.16,43.84,18.158s32.13-6.449,43.82-18.141l31.216-31.092
		C459.087,211.65,452.521,233.084,437.646,247.959z"/>
	<path d="M177.162,362.379c-5.209,0-10.106,2.027-13.789,5.711c-3.682,3.684-5.711,8.58-5.711,13.789s2.028,10.105,5.711,13.789
		c3.683,3.682,8.58,5.711,13.789,5.711c5.209-0.002,10.105-2.029,13.789-5.713c3.684-3.682,5.711-8.58,5.711-13.787
		c0-5.209-2.028-10.107-5.711-13.789C187.268,364.406,182.371,362.379,177.162,362.379z"/>
</g>
</svg>
