<?xml version="1.0" encoding="utf-8"?>
<!-- Generator: Adobe Illustrator 16.0.0, SVG Export Plug-In . SVG Version: 6.00 Build 0)  -->
<!DOCTYPE svg PUBLIC "-//W3C//DTD SVG 1.1//EN" "http://www.w3.org/Graphics/SVG/1.1/DTD/svg11.dtd">
<svg version="1.1" id="Layer_1" xmlns="http://www.w3.org/2000/svg" xmlns:xlink="http://www.w3.org/1999/xlink" x="0px" y="0px"
	 width="512px" height="512px" viewBox="0 0 512 512" enable-background="new 0 0 512 512" xml:space="preserve">
<path d="M449.839,187.463l-29.509-29.51c-0.004-0.004-0.006-0.008-0.01-0.011s-0.007-0.006-0.01-0.009L390.8,128.422
	c-2.343-2.344-5.523-3.661-8.839-3.661s-6.495,1.317-8.839,3.661l-14.59,14.59V68.665c0-6.903-5.597-12.5-12.5-12.5H71
	c-6.903,0-12.5,5.597-12.5,12.5v374.67c0,6.903,5.597,12.5,12.5,12.5h275.032c6.903,0,12.5-5.597,12.5-12.5v-146.89l91.307-91.305
	C454.721,200.259,454.721,192.345,449.839,187.463z M333.532,430.835H83.5V81.165h250.032v86.847L230.238,271.304
	c-1.726,1.727-2.908,3.921-3.402,6.312l-15.359,74.401c-0.851,4.12,0.429,8.392,3.403,11.366c2.368,2.368,5.558,3.661,8.839,3.661
	c0.841,0,1.688-0.085,2.527-0.258l74.397-15.362c2.392-0.494,4.585-1.677,6.312-3.403l26.577-26.576V430.835z M246.633,305.375
	l26.252,26.253l-33.082,6.831L246.633,305.375z M298.116,321.504l-41.36-41.361l125.205-125.204l11.842,11.843l-76.361,76.362
	c-4.882,4.882-4.882,12.796,0,17.678c2.44,2.44,5.64,3.661,8.839,3.661s6.398-1.221,8.839-3.661l76.361-76.361l11.842,11.842
	L298.116,321.504z"/>
</svg>
