<?xml version="1.0" encoding="utf-8"?>
<!-- Generator: Adobe Illustrator 16.0.0, SVG Export Plug-In . SVG Version: 6.00 Build 0)  -->
<!DOCTYPE svg PUBLIC "-//W3C//DTD SVG 1.1//EN" "http://www.w3.org/Graphics/SVG/1.1/DTD/svg11.dtd">
<svg version="1.1" id="Layer_1" xmlns="http://www.w3.org/2000/svg" xmlns:xlink="http://www.w3.org/1999/xlink" x="0px" y="0px"
	 width="512px" height="512px" viewBox="0 0 512 512" enable-background="new 0 0 512 512" xml:space="preserve">
<path d="M395,66.5H117c-6.903,0-12.5,5.597-12.5,12.5v354c0,6.903,5.597,12.5,12.5,12.5h278c6.903,0,12.5-5.597,12.5-12.5V79
	C407.5,72.097,401.903,66.5,395,66.5z M339.359,91.5v0.766c0,6.903,5.597,12.5,12.5,12.5s12.5-5.597,12.5-12.5V91.5H382.5v281.073
	h-253V91.5H339.359z M129.5,420.5v-22.927h109.914c2.736,6.46,9.14,11.004,16.586,11.004s13.85-4.544,16.586-11.004H382.5V420.5
	H129.5z"/>
</svg>
