<?xml version="1.0" encoding="utf-8"?>
<!-- Generator: Adobe Illustrator 16.0.0, SVG Export Plug-In . SVG Version: 6.00 Build 0)  -->
<!DOCTYPE svg PUBLIC "-//W3C//DTD SVG 1.1//EN" "http://www.w3.org/Graphics/SVG/1.1/DTD/svg11.dtd">
<svg version="1.1" id="Layer_1" xmlns="http://www.w3.org/2000/svg" xmlns:xlink="http://www.w3.org/1999/xlink" x="0px" y="0px"
	 width="512px" height="512px" viewBox="0 0 512 512" enable-background="new 0 0 512 512" xml:space="preserve">
<path d="M351,173.929h-15.69c-0.112-6.806-5.656-12.292-12.489-12.292h-48.52l-18.482-57.291c-0.767-2.375-2.227-4.468-4.193-6.006
	l-55.532-43.458c-5.438-4.254-13.295-3.295-17.548,2.141c-4.256,5.437-3.297,13.293,2.14,17.548l52.518,41.098l14.829,45.97H189.18
	c-6.833,0-12.377,5.485-12.489,12.292H161c-6.903,0-12.5,5.597-12.5,12.5s5.597,12.5,12.5,12.5h0.791l21.109,249.4
	c0.548,6.472,5.959,11.446,12.455,11.446h121.289c6.494,0,11.908-4.974,12.455-11.446l21.108-249.4H351
	c6.903,0,12.5-5.597,12.5-12.5S357.903,173.929,351,173.929z M305.158,434.774h-98.316l-7.303-86.275h14.889
	c4.031,26.827,20.846,46.4,41.572,46.4s37.541-19.573,41.572-46.4h14.888L305.158,434.774z M238.5,336
	c0-19.402,9.239-33.9,17.5-33.9c8.26,0,17.5,14.498,17.5,33.9s-9.24,33.9-17.5,33.9C247.739,369.899,238.5,355.402,238.5,336z
	 M314.576,323.5h-17.004c-4.031-26.827-20.846-46.4-41.572-46.4s-37.541,19.573-41.572,46.4h-17.004L186.88,198.929h138.239
	L314.576,323.5z"/>
</svg>
