<?xml version="1.0" encoding="utf-8"?>
<!-- Generator: Adobe Illustrator 16.0.0, SVG Export Plug-In . SVG Version: 6.00 Build 0)  -->
<!DOCTYPE svg PUBLIC "-//W3C//DTD SVG 1.1//EN" "http://www.w3.org/Graphics/SVG/1.1/DTD/svg11.dtd">
<svg version="1.1" id="Layer_1" xmlns="http://www.w3.org/2000/svg" xmlns:xlink="http://www.w3.org/1999/xlink" x="0px" y="0px"
	 width="512px" height="512px" viewBox="0 0 512 512" enable-background="new 0 0 512 512" xml:space="preserve">
<path d="M307.352,295.234v-185.48c0-28.315-23.036-51.352-51.352-51.352s-51.352,23.036-51.352,51.352v185.48
	c-22.764,16.442-36.148,42.436-36.148,70.863c0,48.248,39.252,87.5,87.5,87.5s87.5-39.252,87.5-87.5
	C343.5,337.67,330.115,311.677,307.352,295.234z M256,428.598c-34.463,0-62.5-28.037-62.5-62.5
	c0-22.036,11.265-42.027,30.134-53.478c3.734-2.267,6.015-6.318,6.015-10.687v-192.18c0-14.53,11.821-26.352,26.352-26.352
	s26.352,11.821,26.352,26.352v11.105h-4.634c-6.903,0-12.5,5.597-12.5,12.5s5.597,12.5,12.5,12.5h4.634v45h-4.634
	c-6.903,0-12.5,5.597-12.5,12.5s5.597,12.5,12.5,12.5h4.634v45h-4.634c-6.903,0-12.5,5.597-12.5,12.5s5.597,12.5,12.5,12.5h4.634
	v16.074c0,4.368,2.28,8.42,6.015,10.687c18.869,11.45,30.134,31.441,30.134,53.478C318.5,400.561,290.463,428.598,256,428.598z"/>
</svg>
