<?xml version="1.0" encoding="utf-8"?>
<!-- Generator: Adobe Illustrator 16.0.0, SVG Export Plug-In . SVG Version: 6.00 Build 0)  -->
<!DOCTYPE svg PUBLIC "-//W3C//DTD SVG 1.1//EN" "http://www.w3.org/Graphics/SVG/1.1/DTD/svg11.dtd">
<svg version="1.1" id="Layer_1" xmlns="http://www.w3.org/2000/svg" xmlns:xlink="http://www.w3.org/1999/xlink" x="0px" y="0px"
	 width="512px" height="512px" viewBox="0 0 512 512" enable-background="new 0 0 512 512" xml:space="preserve">
<g>
	<path d="M418.301,121.278c-6.753-1.449-13.396,2.853-14.842,9.603l-9.084,42.391c-28.923-49.341-82.009-80.302-140.192-80.302
		c-89.603,0-162.5,72.896-162.5,162.5c0,6.903,5.596,12.5,12.5,12.5c6.903,0,12.5-5.597,12.5-12.5
		c0-75.818,61.682-137.5,137.5-137.5c49.429,0,94.515,26.403,118.925,68.443l-41.673-8.931c-6.752-1.447-13.396,2.854-14.841,9.604
		c-1.447,6.75,2.853,13.396,9.603,14.842l71.536,15.33c1.215,0.261,2.45,0.336,3.666,0.234c2.028-0.171,4.003-0.836,5.744-1.962
		c2.784-1.801,4.738-4.634,5.432-7.875l15.331-71.536C429.351,129.369,425.051,122.725,418.301,121.278z"/>
	<path d="M405.723,239.086c-6.9,0.228-12.309,6.006-12.081,12.905c1.212,36.708-11.943,71.69-37.042,98.504
		c-25.099,26.813-59.137,42.248-95.844,43.46c-1.531,0.05-3.052,0.075-4.576,0.075c-47.896-0.002-92.018-24.876-116.936-65.179
		l43.447,11.65c6.668,1.787,13.523-2.168,15.311-8.837c1.788-6.668-2.168-13.522-8.836-15.311l-70.664-18.947
		c-3.202-0.857-6.615-0.409-9.485,1.247c-2.872,1.657-4.967,4.387-5.826,7.589l-18.946,70.664
		c-1.788,6.668,2.168,13.522,8.836,15.311c1.085,0.291,2.173,0.43,3.245,0.43c5.518,0,10.569-3.683,12.066-9.266l10.649-39.717
		c29.624,46.648,81.189,75.367,137.132,75.365c1.797,0,3.603-0.029,5.408-0.089c43.381-1.433,83.608-19.673,113.271-51.362
		c29.662-31.688,45.209-73.031,43.776-116.413C418.401,244.267,412.62,238.841,405.723,239.086z"/>
</g>
</svg>
