<?xml version="1.0" encoding="utf-8"?>
<!-- Generator: Adobe Illustrator 16.0.0, SVG Export Plug-In . SVG Version: 6.00 Build 0)  -->
<!DOCTYPE svg PUBLIC "-//W3C//DTD SVG 1.1//EN" "http://www.w3.org/Graphics/SVG/1.1/DTD/svg11.dtd">
<svg version="1.1" id="Layer_1" xmlns="http://www.w3.org/2000/svg" xmlns:xlink="http://www.w3.org/1999/xlink" x="0px" y="0px"
	 width="512px" height="512px" viewBox="0 0 512 512" enable-background="new 0 0 512 512" xml:space="preserve">
<path d="M442.498,204.034c0,0,1.371-66.827-34.954-104.305c-17.161-17.706-39.612-26.684-66.729-26.684H116.949
	c-26.167,0-47.454,21.288-47.454,47.454v255.954c0,34.462,28.038,62.5,62.5,62.5h248c34.462,0,62.5-28.038,62.5-62.5
	L442.498,204.034z M116.949,98.046h223.866c20.341,0,36.275,6.22,48.713,19.017c9.067,9.329,15.197,21.132,19.342,32.989
	c-7.102-3.716-15.029-7.097-28.875-7.097s-248,0-248,0h-15.046c-12.381,0-22.454-10.073-22.454-22.454
	S104.568,98.046,116.949,98.046z M417.495,284.792h-22.18c-6.904,0-12.5,5.596-12.5,12.5s5.596,12.5,12.5,12.5h22.18v25.803h-28.492
	c-20.678,0-37.5-16.822-37.5-37.5v-1.605c0-20.678,16.822-37.5,37.5-37.5h28.492V284.792z M417.495,233.989h-28.492
	c-34.462,0-62.5,28.038-62.5,62.5v1.605c0,34.462,28.038,62.5,62.5,62.5h28.492v15.859c0,20.678-16.822,37.5-37.5,37.5h-248
	c-20.678,0-37.5-16.822-37.5-37.5V162.293c6.689,3.608,14.336,5.661,22.454,5.661h15.046h248c20.678,0,37.5,16.822,37.5,37.5
	V233.989z"/>
</svg>
