<?xml version="1.0" encoding="utf-8"?>
<!-- Generator: Adobe Illustrator 16.0.0, SVG Export Plug-In . SVG Version: 6.00 Build 0)  -->
<!DOCTYPE svg PUBLIC "-//W3C//DTD SVG 1.1//EN" "http://www.w3.org/Graphics/SVG/1.1/DTD/svg11.dtd">
<svg version="1.1" id="Layer_1" xmlns="http://www.w3.org/2000/svg" xmlns:xlink="http://www.w3.org/1999/xlink" x="0px" y="0px"
	 width="512px" height="512px" viewBox="0 0 512 512" enable-background="new 0 0 512 512" xml:space="preserve">
<path d="M423.629,202.611l-55-97.495c-2.216-3.929-6.377-6.358-10.887-6.358H154.258c-4.51,0-8.671,2.43-10.887,6.358l-55,97.495
	c-2.529,4.483-2.051,10.059,1.204,14.047l156.743,191.99c2.374,2.908,5.929,4.595,9.683,4.595s7.309-1.687,9.683-4.595
	l156.743-191.99C425.681,212.67,426.159,207.094,423.629,202.611z M196.989,123.757h118.022L256,189.966L196.989,123.757z
	 M243.5,365.666L125.6,221.252h117.9V365.666z M268.5,221.252h117.9L268.5,365.666V221.252z M391.339,196.252H283.885l64.614-72.495
	h1.942L391.339,196.252z M161.558,123.757h1.942l64.614,72.495H120.661L161.558,123.757z"/>
</svg>
