<?xml version="1.0" encoding="UTF-8"?><!DOCTYPE svg PUBLIC "-//W3C//DTD SVG 1.1//EN" "http://www.w3.org/Graphics/SVG/1.1/DTD/svg11.dtd"><svg xmlns="http://www.w3.org/2000/svg"><symbol id="add" viewBox="0 0 24 24"><path d="M5.6 7.2H4v11.2c0 .88.721 1.6 1.6 1.6h11.2v-1.6H5.6V7.2zM18.4 4H8.8c-.88 0-1.6.72-1.6 1.6v9.6c0 .88.72 1.6 1.6 1.6h9.6c.879 0 1.6-.72 1.6-1.6V5.6c0-.88-.721-1.6-1.6-1.6zm-.8 7.2h-3.2v3.2h-1.6v-3.2H9.6V9.6h3.2V6.4h1.6v3.2h3.2v1.6z"/></symbol><symbol id="arrow-left" viewBox="0 0 24 24"><path d="M12.96 4l2.791 2.777L10.554 12l5.197 5.223L12.96 20 5 12z"/></symbol><symbol id="arrow-right" viewBox="0 0 24 24"><path d="M17.751 12l-7.96 8L7 17.223 12.196 12 7 6.777 9.791 4z"/></symbol><symbol id="caret-down" viewBox="0 0 24 24"><path d="M16 10l-4 4.5L8 10z"/></symbol><symbol id="caret-up" viewBox="0 0 24 24"><path d="M8 14.5l4-4.5 4 4.5z"/></symbol><symbol id="code" viewBox="0 0 16 12"><path d="M1.207 5.736L4.852 9.4l-.606.603L0 5.736l4.246-4.268.606.604-3.645 3.664zm13.586 0l-3.645-3.664.606-.604L16 5.736l-4.246 4.267-.606-.603 3.645-3.664zM9.092 0l1.085.34-3.4 10.833-1.084-.34L9.092 0z"/></symbol><symbol id="delete" viewBox="0 0 24 24"><path d="M6.705 7.572v10.06A2.368 2.368 0 0 0 9.073 20h6.44a2.368 2.368 0 0 0 2.367-2.368V7.572H6.705zm3.172 9.455a.55.55 0 0 1-1.097 0v-7.26a.548.548 0 0 1 1.097 0v7.26zm2.964 0a.548.548 0 1 1-1.098 0v-7.26a.548.548 0 0 1 1.098 0v7.26zm2.964 0a.549.549 0 0 1-1.099 0v-7.26a.55.55 0 0 1 1.099 0v7.26zm.411-12.17c1.309 0 2.369.778 2.369 1.738v.063H6v-.063c0-.96 1.06-1.739 2.368-1.739h1.035c-.002-.029-.009-.056-.009-.085 0-.976.795-1.771 1.771-1.771h2.255c.976 0 1.771.795 1.771 1.771 0 .029-.008.056-.009.085h1.034zm-6.1-.086c0 .029.005.057.008.085h4.338c.002-.028.008-.056.008-.085 0-.579-.471-1.05-1.05-1.05h-2.255c-.579 0-1.05.471-1.05 1.05z"/></symbol><symbol id="edit" viewBox="0 0 24 24"><path d="M16.277 4.008L20 7.73l-9.574 9.577-3.723-3.722 9.574-9.577zM4.52 15.764l3.726 3.725-4.247.46.521-4.185z"/></symbol><symbol id="email" viewBox="0 0 24 24"><path fill-rule="evenodd" d="M12.001 13.773L4 8.693v7.972c0 .818.673 1.476 1.498 1.476h13c.833 0 1.502-.658 1.502-1.476V8.694l-7.999 5.08zM5.498 5.001c-.772 0-1.408.58-1.489 1.321-.004.051-.009.1-.009.155l8.001 5.076L20 6.477A1.494 1.494 0 0 0 18.497 5H5.498z"/></symbol><symbol id="export" viewBox="0 0 24 24"><path fill-rule="evenodd" d="M12.74 13.368l2.044-1.552 1.216.872-4 3.04-4-3.04 1.216-.872 2.043 1.552a.756.756 0 0 1-.009-.118V5.522a.75.75 0 1 1 1.5 0v7.728c0 .04-.003.08-.01.118zM18 18v-3h2v5H4v-5h2v3h12z"/></symbol><symbol id="help" viewBox="0 0 24 24"><path d="M12 4a8 8 0 1 0 0 16 8 8 0 0 0 0-16zm.813 12.091H11v-1.543h1.814v1.543zm1.75-5.062c-.307.445-.69.817-1.15 1.118-.252.193-.416.388-.494.583-.079.196-.118.464-.118.806h-1.796c.004-.576.09-.998.256-1.266.167-.267.499-.592.997-.975.292-.239.526-.496.701-.772.174-.275.262-.584.262-.926 0-.378-.1-.675-.3-.888-.199-.214-.484-.321-.854-.321-.305 0-.563.09-.775.271-.212.181-.32.447-.324.796H9.214l-.012-.037c-.012-.79.248-1.395.78-1.814.534-.42 1.228-.63 2.084-.63.922 0 1.645.233 2.17.7.524.467.787 1.102.787 1.905 0 .523-.153 1.006-.46 1.45z"/></symbol><symbol id="home" viewBox="0 0 24 24"><path d="M15.097 11.23l2.655 2.304a1 1 0 0 1 .344.755V19a1 1 0 0 1-1 1H14.33v-4.996a1 1 0 0 0-1-1h-2.466a1 1 0 0 0-1 1V20H7.096a1 1 0 0 1-1-1v-4.71a1 1 0 0 1 .345-.756l2.655-2.304 2.346-2.035a1 1 0 0 1 1.31 0l2.345 2.035zm-11.553.403l-.448-.386 8.2-7.081a1 1 0 0 1 1.308 0L21 11.416l-.446.384a1 1 0 0 1-1.307 0L11.95 5.501l-7.1 6.131a1 1 0 0 1-1.306.001z"/></symbol><symbol id="import" viewBox="0 0 24 24"><path fill-rule="evenodd" d="M12.75 8.019v7.231a.75.75 0 1 1-1.5 0V8.019L9.216 9.564 8 8.692l4-3.04 4 3.04-1.216.872L12.75 8.02zM18 18v-3h2v5H4v-5h2v3h12z"/></symbol><symbol id="menu" viewBox="0 0 24 24"><path d="M4 5h16v2.139H4V5zm0 5.854h16v2.139H4v-2.14zm0 5.853h16v2.14H4v-2.14z"/></symbol><symbol id="minus" viewBox="0 0 24 24"><path d="M4 10h16v3.879H4z"/></symbol><symbol id="notification" viewBox="0 0 24 24"><path d="M17.39 10.982c0-2.54-1.334-4.632-3.661-5.191v-.559c0-.68-.547-1.232-1.22-1.232-.675 0-1.22.552-1.22 1.232v.559c-2.337.559-3.662 2.663-3.662 5.19v4.108L6 16.73v.822h13v-.822l-1.61-1.642v-4.107zM12.508 20a1.618 1.618 0 0 0 1.623-1.643h-3.258c.007.908.736 1.64 1.635 1.643z"/></symbol><symbol id="pdf" viewBox="0 0 24 24"><path d="M18.4 4H8.8c-.88 0-1.6.72-1.6 1.6v9.6c0 .88.72 1.6 1.6 1.6h9.6c.88 0 1.6-.72 1.6-1.6V5.6c0-.88-.72-1.6-1.6-1.6zm-6.8 6c0 .664-.536 1.2-1.2 1.2h-.8v1.6H8.4V8h2c.664 0 1.2.536 1.2 1.2v.8zm4 1.6c0 .664-.536 1.2-1.2 1.2h-2V8h2c.664 0 1.2.536 1.2 1.2v2.4zm3.2-2.4h-1.2v.8h1.2v1.2h-1.2v1.6h-1.2V8h2.4v1.2zm-9.2.8h.8v-.8h-.8v.8zm-4-2.8H4v11.2c0 .88.72 1.6 1.6 1.6h11.2v-1.6H5.6V7.2zm8 4.4h.8V9.2h-.8v2.4z"/></symbol><symbol id="phone" viewBox="0 0 24 24"><path d="M9.011 11.328a8.416 8.416 0 0 0 3.661 3.66l1.222-1.221c.15-.15.373-.2.567-.134a6.337 6.337 0 0 0 1.983.317c.306 0 .556.25.556.556v1.938c0 .306-.25.556-.556.556A9.444 9.444 0 0 1 7 7.556C7 7.25 7.25 7 7.556 7H9.5c.306 0 .556.25.556.556 0 .694.11 1.36.316 1.983a.558.558 0 0 1-.139.567l-1.222 1.222z"/></symbol><symbol id="plus" viewBox="0 0 24 24"><path d="M4 13.914v-3.856h6.058V4h3.886v6.058h6.055v3.856h-6.055v6.085h-3.886v-6.085z"/></symbol><symbol id="print" viewBox="0 0 24 24"><path d="M17.6 8.167H6.4c-1.328 0-2.4 1.116-2.4 2.5v5h3.2V19h9.6v-3.333H20v-5c0-1.384-1.072-2.5-2.4-2.5zm-2.4 9.166H8.8v-4.166h6.4v4.166zm2.4-5.833c-.44 0-.8-.375-.8-.833 0-.459.36-.834.8-.834.44 0 .8.375.8.834 0 .458-.36.833-.8.833zM16.8 4H7.2v3.333h9.6V4z"/></symbol><symbol id="search" viewBox="0 0 24 24"><path d="M19.945 17.575c-.642-1.043-4.408-4.407-4.408-4.407A6.162 6.162 0 1 0 4 10.164a6.161 6.161 0 0 0 6.161 6.162 6.11 6.11 0 0 0 3.317-.977s3.153 3.907 4.347 4.348c.703.26 2.511-1.485 2.12-2.122zM6 10.165A4.169 4.169 0 0 1 10.161 6a4.169 4.169 0 0 1 4.165 4.164 4.168 4.168 0 0 1-4.165 4.162A4.168 4.168 0 0 1 6 10.164z"/></symbol><symbol id="settings" viewBox="0 0 24 24"><path d="M20 12.713v-1.445a1 1 0 0 0-.598-.916l-.86-.377a7.09 7.09 0 0 0-.442-1.084l.431-1.104a1 1 0 0 0-.224-1.071l-1.02-1.02a1 1 0 0 0-1.07-.224l-1.106.431a6.997 6.997 0 0 0-1.06-.436l-.382-.869A1 1 0 0 0 12.753 4H11.31a1 1 0 0 0-.917.6l-.369.847a6.79 6.79 0 0 0-1.076.428L7.861 5.45a1 1 0 0 0-1.07.223L5.77 6.694a1 1 0 0 0-.225 1.072L5.948 8.8a6.881 6.881 0 0 0-.49 1.175l-.86.377a1 1 0 0 0-.598.916v1.445a1 1 0 0 0 .598.915l.854.376c.104.336.232.664.384.98l-.557 1.426a1 1 0 0 0 .224 1.071l1.02 1.02a1 1 0 0 0 1.07.224l1.426-.557a6.89 6.89 0 0 0 1.004.39l.369.846a1 1 0 0 0 .917.6h1.444a1 1 0 0 0 .915-.599l.381-.868c.316-.1.624-.221.918-.363l1.355.529a1 1 0 0 0 1.071-.225l1.02-1.021a1 1 0 0 0 .223-1.072l-.515-1.317c.173-.341.315-.695.427-1.064l.854-.376a1 1 0 0 0 .598-.915zM12 16a4 4 0 1 1 0-8 4 4 0 0 1 0 8z"/></symbol><symbol id="social-dribbble" viewBox="0 0 24 24"><path d="M12 20c-4.412 0-8-3.59-8-8s3.588-8 8-8c4.41 0 8 3.59 8 8s-3.59 8-8 8zm6.746-6.905c-.233-.075-2.115-.635-4.257-.291.894 2.455 1.258 4.456 1.327 4.872a6.847 6.847 0 0 0 2.93-4.58zM14.67 18.3c-.102-.599-.499-2.688-1.458-5.181l-.045.015c-3.854 1.342-5.237 4.015-5.36 4.267A6.802 6.802 0 0 0 12 18.843c.945 0 1.849-.192 2.67-.543zm-7.746-1.72c.155-.265 2.03-3.37 5.555-4.51.089-.029.179-.055.269-.08a23.41 23.41 0 0 0-.554-1.16c-3.413 1.02-6.724.978-7.023.972-.001.07-.003.138-.003.209a6.81 6.81 0 0 0 1.756 4.569zM5.31 10.61c.305.005 3.12.017 6.317-.832a43.354 43.354 0 0 0-2.533-3.952 6.857 6.857 0 0 0-3.784 4.785zm5.087-5.243a36.34 36.34 0 0 1 2.55 4c2.43-.91 3.459-2.293 3.582-2.468a6.803 6.803 0 0 0-6.132-1.532zm6.89 2.322c-.143.195-1.289 1.663-3.815 2.694.159.326.311.656.454.99l.146.353c2.274-.287 4.533.171 4.759.22a6.8 6.8 0 0 0-1.543-4.257z"/></symbol><symbol id="social-facebook" viewBox="0 0 24 24"><path d="M14.842 12.702l.367-2.844h-2.817V8.042c0-.823.231-1.384 1.411-1.384l1.505-.002V4.113A19.829 19.829 0 0 0 13.114 4c-2.171 0-3.658 1.326-3.658 3.761v2.097H7v2.844h2.456V20h2.936v-7.298h2.45z"/></symbol><symbol id="social-github" viewBox="0 0 24 24"><path d="M12 4a8.002 8.002 0 0 0-2.528 15.592c.4.074.546-.173.546-.385 0-.19-.007-.693-.011-1.36-2.226.483-2.695-1.073-2.695-1.073-.365-.925-.889-1.17-.889-1.17-.727-.498.055-.488.055-.488.804.057 1.225.826 1.225.826.714 1.222 1.873.87 2.329.664.072-.517.28-.87.508-1.07-1.778-.2-3.645-.888-3.645-3.952 0-.874.312-1.588.823-2.148-.081-.202-.357-1.015.079-2.118 0 0 .672-.215 2.2.821A7.615 7.615 0 0 1 12 7.87c.68.003 1.364.092 2.004.27 1.526-1.036 2.197-.82 2.197-.82.437 1.102.163 1.914.08 2.117.512.56.822 1.274.822 2.148 0 3.072-1.871 3.748-3.654 3.946.289.247.544.736.544 1.482 0 1.07-.01 1.933-.01 2.195 0 .214.143.462.55.385A8.005 8.005 0 0 0 20 12.002 8 8 0 0 0 12 4z"/></symbol><symbol id="social-instagram" viewBox="0 0 24 24"><path d="M19.87 8.011c-.109-1.051-.511-1.983-1.295-2.73-.821-.786-1.83-1.132-2.934-1.19-1.879-.103-6.346-.168-7.913.087-1.791.292-2.965 1.339-3.461 3.108-.38 1.362-.307 7.636-.082 8.98.303 1.841 1.39 3.02 3.213 3.492 1.262.325 7.465.282 8.857.058 1.841-.299 3.027-1.38 3.505-3.2.366-1.397.237-7.343.11-8.605m-1.473 7.996c-.214 1.398-1.142 2.262-2.545 2.418-1.291.14-7.057.218-8.252-.117-1.145-.32-1.802-1.106-1.991-2.26-.182-1.1-.227-6.602-.003-8.073.211-1.387 1.138-2.25 2.535-2.407 1.418-.159 6.518-.177 7.876.032 1.396.214 2.259 1.143 2.41 2.55.146 1.313.187 6.446-.03 7.857M12 7.893a4.099 4.099 0 0 0-4.1 4.106 4.1 4.1 0 0 0 4.09 4.098A4.098 4.098 0 0 0 16.104 12 4.1 4.1 0 0 0 12 7.893m-.027 6.755c-1.448-.003-2.624-1.197-2.624-2.663a2.647 2.647 0 0 1 2.663-2.643 2.65 2.65 0 0 1 2.644 2.662c-.002 1.472-1.194 2.646-2.683 2.644m5.249-6.908a.955.955 0 0 1-.96.955.953.953 0 0 1-.961-.955.953.953 0 0 1 .97-.964c.53.002.952.43.95.964"/></symbol><symbol id="social-linkedin" viewBox="0 0 24 24"><path d="M18.7 4H5.17C4.526 4 4 4.512 4 5.145v13.583a1.16 1.16 0 0 0 1.17 1.146h13.528c.648 0 1.175-.514 1.175-1.146V5.145c0-.633-.527-1.145-1.174-1.145zM8.707 17.525H6.353V9.951h2.355v7.574zM7.53 8.915A1.365 1.365 0 1 1 8.894 7.55c0 .754-.611 1.366-1.364 1.366zm9.995 8.61h-2.352v-3.684c0-.878-.016-2.008-1.224-2.008-1.224 0-1.413.958-1.413 1.946v3.746h-2.352V9.951h2.258v1.035h.031c.316-.595 1.084-1.224 2.229-1.224 2.384 0 2.823 1.568 2.823 3.608v4.155z"/></symbol><symbol id="social-pinterest" viewBox="0 0 24 24"><path d="M12 4a8 8 0 0 0-3.21 15.328c-.023-.56-.005-1.23.137-1.838l1.03-4.36s-.256-.509-.256-1.265c0-1.184.688-2.07 1.544-2.07.727 0 1.078.546 1.078 1.2 0 .73-.467 1.826-.706 2.838-.201.85.425 1.542 1.26 1.542 1.517 0 2.538-1.947 2.538-4.254 0-1.752-1.18-3.065-3.33-3.065-2.425 0-3.937 1.808-3.937 3.83 0 .697.205 1.189.528 1.57.148.174.168.245.114.445-.037.148-.125.501-.163.642-.053.203-.217.276-.4.2-1.118-.456-1.639-1.68-1.639-3.055 0-2.273 1.916-4.999 5.717-4.999 3.054 0 5.066 2.21 5.066 4.584 0 3.138-1.746 5.482-4.318 5.482-.864 0-1.677-.466-1.954-.996 0 0-.466 1.842-.562 2.199-.17.617-.502 1.233-.806 1.713A8 8 0 0 0 20 12a8 8 0 0 0-8-8.001z"/></symbol><symbol id="social-twitter" viewBox="0 0 24 24"><path d="M20 6.539a6.569 6.569 0 0 1-1.885.517 3.29 3.29 0 0 0 1.443-1.816 6.542 6.542 0 0 1-2.084.797 3.283 3.283 0 0 0-5.596 2.993A9.317 9.317 0 0 1 5.114 5.6a3.272 3.272 0 0 0-.444 1.652c0 1.138.58 2.144 1.46 2.732a3.266 3.266 0 0 1-1.487-.41v.04a3.285 3.285 0 0 0 2.633 3.22 3.29 3.29 0 0 1-1.482.056 3.286 3.286 0 0 0 3.066 2.28A6.585 6.585 0 0 1 4 16.53a9.3 9.3 0 0 0 5.033 1.474c6.038 0 9.339-5.001 9.339-9.34 0-.141-.003-.283-.01-.425A6.727 6.727 0 0 0 20 6.54z"/></symbol><symbol id="social-vimeo" viewBox="0 0 24 24"><path d="M19.992 8.194c-.139 2.999-5.614 10.615-8.785 10.615-.933 0-1.722-.86-2.367-2.583-1.235-4.525-1.783-7.315-2.833-7.315-.119 0-.537.252-1.256.754L4 8.697c2.001-1.76 3.623-3.416 4.696-3.514 1.244-.12 2.009.728 2.294 2.546.37 2.33.902 6.095 1.83 6.095.718 0 2.49-2.918 2.584-3.98.158-1.51-1.083-1.597-2.261-1.11.79-2.56 2.295-3.804 4.52-3.731 1.648.048 2.424 1.113 2.33 3.191"/></symbol><symbol id="social-whatsapp" viewBox="0 0 24 24"><path fill-rule="evenodd" d="M4 20.086c.09-.349.167-.652.249-.952.264-.967.536-1.93.787-2.9a.713.713 0 0 0-.046-.465c-2.455-4.679.076-10.34 5.228-11.55 4.675-1.096 8.88 2.061 9.649 6.284.8 4.402-2.081 8.585-6.45 9.35-1.737.3-3.397.045-4.982-.725a.768.768 0 0 0-.491-.051C5.832 19.604 4.427 20 4 20.086zm1.859-1.833c.794-.207 1.526-.39 2.251-.594a.664.664 0 0 1 .546.076c1.373.795 2.843 1.09 4.416.836 3.62-.58 6.101-3.968 5.548-7.575-.576-3.741-4.08-6.25-7.786-5.57-4.48.824-6.86 5.819-4.63 9.776.245.438.314.8.146 1.267-.197.56-.32 1.146-.491 1.784zm8.245-2.448c-1.558-.056-4.039-1.286-5.738-4.237-.604-1.05-.516-2.246.368-3.068.3-.278.673-.209 1.024-.15.087.013.177.146.22.242.227.516.45 1.031.646 1.559.105.28-.086.54-.492 1.005-.127.145-.152.282-.052.452.652 1.106 1.566 1.908 2.768 2.377.176.07.309.025.42-.113.637-.775.702-1.003 1.037-.845 1.612.773 1.737.803 1.745.985.053 1.36-1.192 1.849-1.946 1.793z"/></symbol><symbol id="social-youtube" viewBox="0 0 24 24"><path fill-rule="evenodd" d="M5.648 16.886c-.606-.198-1.012-.595-1.23-1.193-.532-1.463-.689-7.58.334-8.785a1.99 1.99 0 0 1 1.339-.71c2.758-.297 11.285-.256 12.268.099.576.207.984.583 1.206 1.16.582 1.51.602 7.013-.076 8.468-.186.395-.485.675-.866.873-1.028.54-11.622.533-12.975.088zm4.383-2.868A5983.68 5983.68 0 0 1 15 11.44c-1.67-.87-3.314-1.729-4.97-2.593v5.17z"/></symbol><symbol id="user" viewBox="0 0 24 24"><path d="M12.215 12.495c1.653 0 3.393.791 3.393 1.139v.595H8.822v-.595c0-.348 1.74-1.139 3.393-1.139zm0-2.601c-.645 0-1.168-.51-1.168-1.139 0-.628.523-1.138 1.168-1.138.645 0 1.169.51 1.169 1.138 0 .629-.524 1.139-1.169 1.139zM12 4.044c-4.419 0-8 3.49-8 7.794 0 4.306 3.581 7.796 8 7.796 4.418 0 8-3.49 8-7.796 0-4.304-3.582-7.795-8-7.795zm.215 2.543c1.23 0 2.226.97 2.226 2.168 0 1.198-.996 2.168-2.226 2.168-1.229 0-2.225-.97-2.225-2.168 0-1.198.996-2.168 2.225-2.168zm4.45 8.672h-8.9v-1.625c0-1.442 2.965-2.169 4.45-2.169 1.484 0 4.45.727 4.45 2.169v1.625z"/></symbol></svg>