<?xml version="1.0" encoding="utf-8"?><!DOCTYPE svg PUBLIC "-//W3C//DTD SVG 1.1//EN" "http://www.w3.org/Graphics/SVG/1.1/DTD/svg11.dtd"><svg xmlns="http://www.w3.org/2000/svg" xmlns:xlink="http://www.w3.org/1999/xlink"><symbol viewBox="-10 -10 52 52" id="arrow-left"><path fill="#231F20" d="M18.559 5l3.838 3.819L15.251 16l7.146 7.182L18.559 27 7.614 16 18.559 5z"/></symbol><symbol viewBox="-10 -10 52 52" id="arrow-right"><path fill="#231F20" d="M23.396 16L12.452 27l-3.838-3.818L15.759 16 8.614 8.819 12.452 5l10.944 11z"/></symbol><symbol viewBox="-10 -10 52 52" id="delete"><g fill="#231F20"><path d="M15.617 10.784c-2.545 0-4.938-.377-7.025-1.041v13.943c4.029 4.21 14.529 2.255 14.816 0V9.479c-2.26.827-4.929 1.305-7.791 1.305zM13.08 23.253a43.161 43.161 0 0 1-1.534-.151V12.294h.032c.471.112.975.21 1.502.291v10.668zm3.686.154a38.21 38.21 0 0 1-1.531-.028V12.792c.345.016.699.024 1.058.024.158 0 .318 0 .474-.003v10.594zm3.689-.294c-.487.089-1.003.153-1.535.198V12.662a18.198 18.198 0 0 0 1.535-.245v10.696z"/><path d="M15.998 5.836c-4.14 0-7.498.945-7.498 2.107 0 1.163 3.358 2.107 7.498 2.107 4.144 0 7.502-.944 7.502-2.107 0-1.162-3.358-2.107-7.502-2.107zm.004 3.219c-2.078 0-3.763-.565-3.763-1.265 0-.698 1.685-1.262 3.763-1.262 2.074 0 3.759.564 3.759 1.262 0 .7-1.685 1.265-3.759 1.265z"/></g></symbol><symbol viewBox="-10 -10 52 52" id="edit"><g fill="#231F20"><path d="M21.882 5.04L27 10.158 13.836 23.326l-5.12-5.118z"/><path fill-rule="evenodd" clip-rule="evenodd" d="M5.717 21.204L5 26.96l5.84-.634z"/></g></symbol><symbol viewBox="-10 -10 52 52" id="home"><g fill="#231F20"><path d="M23.744 17.465l-3.919-3.787-3.919-3.789-3.922 3.789-3.919 3.787v8.973h4.922v-8.724h5.835v8.724h4.922v-8.973z"/><path d="M15.88 8.206l-9.527 9.318L5 16.203 15.88 5.562 27 16.437l-1.351 1.321-9.769-9.552z"/></g></symbol><symbol viewBox="-10 -10 52 52" id="mail"><path fill-rule="evenodd" clip-rule="evenodd" fill="#231F20" d="M16.002 19.028L5 12.044v10.96c0 1.125.925 2.03 2.06 2.03h17.875c1.145 0 2.065-.905 2.065-2.03v-10.96l-10.998 6.984zM7.06 6.966a2.053 2.053 0 0 0-2.047 1.817c-.006.07-.013.137-.013.213l11.002 6.979L27 8.996a2.054 2.054 0 0 0-2.066-2.031H7.06z"/></symbol><symbol viewBox="-10 -10 52 52" id="markup"><g fill="#231F20"><path d="M6.041 16.218l5.344-5.371-.888-.885-6.225 6.256 6.225 6.256.889-.884zM25.96 16.218l-5.345-5.371.889-.885 6.225 6.256-6.225 6.256-.889-.884zM17.602 7.81l1.59.498-4.984 15.881-1.59-.499z"/></g></symbol><symbol viewBox="-10 -10 52 52" id="menu"><g fill="#231F20"><path d="M5 6.48h22v2.941H5zM5 14.529h22v2.941H5zM5 22.577h22v2.942H5z"/></g></symbol><symbol viewBox="-10 -10 52 52" id="minus"><path fill="#231F20" d="M5.001 13.299h21.998v5.333H5.001z"/></symbol><symbol viewBox="-10 -10 52 52" id="plus"><path fill="#231F20" d="M5.001 18.633V13.33h8.329V5.001h5.344v8.329h8.325v5.303h-8.325v8.366H13.33v-8.366H5.001z"/></symbol><symbol viewBox="-10 -10 52 52" id="search"><path fill="#231F20" d="M26.925 23.856c-.883-1.434-6.061-6.06-6.061-6.06A8.473 8.473 0 1 0 5 13.666a8.472 8.472 0 0 0 8.472 8.472c1.68 0 3.245-.496 4.561-1.343 0 0 4.335 5.372 5.976 5.979.967.357 3.454-2.042 2.916-2.918zM7.75 13.666a5.732 5.732 0 0 1 5.722-5.726 5.732 5.732 0 0 1 5.726 5.726 5.731 5.731 0 0 1-5.726 5.722 5.731 5.731 0 0 1-5.722-5.722z"/></symbol><symbol viewBox="-10 -10 52 52" id="settings"><path fill="#231F20" d="M27 17.875v-3.783l-2.005-.879a9.749 9.749 0 0 0-.608-1.491l.921-2.355-2.673-2.673-2.358.92a9.621 9.621 0 0 0-1.458-.6l-.885-2.017H14.15l-.867 1.99a9.337 9.337 0 0 0-1.479.588l-2.331-.91-2.676 2.672.882 2.26a9.462 9.462 0 0 0-.674 1.616L5 14.092v3.783l1.996.877c.143.463.32.914.528 1.348l-1.093 2.798 2.673 2.673 2.797-1.093c.442.214.903.392 1.381.537l.867 1.987h3.784l.885-2.017a9.461 9.461 0 0 0 1.262-.499l2.7 1.054 2.673-2.676-1.037-2.648c.238-.47.434-.956.588-1.464L27 17.875zm-5.984-1.876A5.023 5.023 0 0 1 16 21.018a5.028 5.028 0 0 1-5.019-5.019A5.03 5.03 0 0 1 16 10.98a5.025 5.025 0 0 1 5.016 5.019z"/></symbol><symbol viewBox="-10 -10 52 52" id="social-dribbble"><path fill="#231F20" d="M15.999 27C9.934 27 5 22.064 5 16 5 9.935 9.934 5 15.999 5 22.065 5 27 9.935 27 16c0 6.064-4.935 11-11.001 11zm9.277-9.494c-.321-.103-2.908-.873-5.853-.401 1.229 3.376 1.729 6.127 1.824 6.699a9.414 9.414 0 0 0 4.029-6.298zm-5.606 7.157c-.141-.824-.686-3.697-2.005-7.125l-.062.021c-5.299 1.846-7.201 5.521-7.371 5.867A9.352 9.352 0 0 0 16 25.409a9.304 9.304 0 0 0 3.67-.746zM9.019 22.297c.213-.364 2.792-4.634 7.638-6.2.122-.04.246-.077.37-.112a32.19 32.19 0 0 0-.762-1.595c-4.692 1.404-9.245 1.346-9.656 1.338-.002.096-.005.19-.005.287 0 2.413.915 4.615 2.415 6.282zM6.802 14.09c.42.006 4.291.022 8.687-1.145a59.612 59.612 0 0 0-3.484-5.434 9.429 9.429 0 0 0-5.203 6.579zm6.995-7.21c.26.347 1.967 2.672 3.506 5.5 3.342-1.251 4.756-3.153 4.926-3.394A9.355 9.355 0 0 0 16 6.618c-.759 0-1.496.091-2.203.262zm9.475 3.193c-.198.268-1.773 2.286-5.246 3.704.218.448.427.902.623 1.361.068.162.136.323.202.485 3.126-.395 6.232.236 6.543.302a9.35 9.35 0 0 0-2.122-5.852z"/></symbol><symbol viewBox="-10 -10 52 52" id="social-facebook"><path fill="#231F20" d="M21.328 17.014l.53-4.108h-4.069v-2.623c0-1.189.333-1.999 2.038-1.999L22 8.281V4.607c-.375-.051-1.664-.163-3.169-.163-3.136 0-5.283 1.915-5.283 5.433v3.028H10v4.108h3.548v10.542h4.241V17.014h3.539z"/></symbol><symbol viewBox="-10 -10 52 52" id="social-instagram"><path fill="#231F20" d="M26.821 10.521c-.15-1.446-.703-2.727-1.78-3.754-1.13-1.08-2.516-1.557-4.034-1.637-2.584-.141-8.725-.23-10.88.121-2.463.401-4.076 1.84-4.759 4.273-.522 1.872-.422 10.498-.113 12.347.417 2.531 1.911 4.152 4.418 4.8 1.735.447 10.264.388 12.178.08 2.531-.411 4.161-1.897 4.819-4.399.503-1.921.326-10.096.151-11.831m-2.026 10.993c-.293 1.922-1.569 3.11-3.499 3.324-1.775.194-9.702.301-11.345-.16-1.575-.439-2.477-1.521-2.738-3.108-.25-1.511-.311-9.077-.004-11.099.291-1.907 1.565-3.094 3.486-3.31 1.95-.218 8.962-.243 10.829.045 1.919.294 3.105 1.571 3.314 3.505.2 1.806.256 8.863-.043 10.803M16 10.358a5.635 5.635 0 0 0-5.637 5.646 5.637 5.637 0 0 0 5.625 5.634c3.121.007 5.651-2.513 5.653-5.634S19.121 10.36 16 10.358m-.037 9.288c-1.99-.004-3.607-1.646-3.607-3.661 0-2.012 1.632-3.634 3.661-3.634a3.644 3.644 0 0 1 3.635 3.66c-.003 2.024-1.641 3.638-3.689 3.635m7.217-9.498a1.312 1.312 0 0 1-1.321 1.313 1.31 1.31 0 0 1-1.32-1.313 1.31 1.31 0 0 1 1.333-1.326c.73.003 1.31.592 1.308 1.326"/></symbol><symbol viewBox="-10 -10 52 52" id="social-pinterest"><path fill="#231F20" d="M16.001 5C9.926 5 5 9.924 5 16c0 4.504 2.709 8.375 6.585 10.076-.031-.77-.005-1.691.19-2.527.212-.893 1.416-5.994 1.416-5.994s-.352-.701-.352-1.74c0-1.629.946-2.848 2.123-2.848.999 0 1.482.752 1.482 1.652 0 1.004-.642 2.51-.971 3.902-.276 1.168.585 2.119 1.734 2.119 2.085 0 3.488-2.676 3.488-5.848 0-2.41-1.623-4.215-4.577-4.215-3.336 0-5.414 2.486-5.414 5.266 0 .959.282 1.635.725 2.158.204.24.232.338.157.613-.051.203-.172.689-.224.883-.073.279-.298.379-.551.275-1.536-.627-2.252-2.311-2.252-4.201 0-3.125 2.634-6.873 7.861-6.873 4.199 0 6.965 3.039 6.965 6.303 0 4.314-2.4 7.537-5.937 7.537-1.188 0-2.306-.641-2.687-1.369 0 0-.64 2.533-.773 3.023-.234.848-.69 1.695-1.108 2.355a10.99 10.99 0 0 0 3.121.453C22.075 27 27 22.076 27 16S22.075 5 16.001 5z"/></symbol><symbol viewBox="-10 -10 52 52" id="social-twitter"><path fill="#231F20" d="M27 9.177c-.81.359-1.68.602-2.592.711a4.523 4.523 0 0 0 1.984-2.497 8.995 8.995 0 0 1-2.865 1.096 4.515 4.515 0 0 0-7.694 4.116A12.81 12.81 0 0 1 6.53 7.887a4.499 4.499 0 0 0-.61 2.27c0 1.565.797 2.948 2.007 3.757a4.49 4.49 0 0 1-2.044-.565v.057a4.517 4.517 0 0 0 3.62 4.427 4.523 4.523 0 0 1-2.038.077 4.518 4.518 0 0 0 4.216 3.135 9.054 9.054 0 0 1-5.605 1.933c-.364 0-.723-.022-1.076-.063a12.789 12.789 0 0 0 6.92 2.027c8.302 0 12.841-6.877 12.841-12.842 0-.195-.004-.39-.012-.585A9.25 9.25 0 0 0 27 9.177z"/></symbol><symbol viewBox="-10 -10 52 52" id="social-vimeo"><path fill="#231F20" d="M26.989 10.899c-.191 4.123-7.72 14.595-12.08 14.595-1.282 0-2.367-1.183-3.254-3.551C9.957 15.72 9.203 11.885 7.76 11.885c-.164 0-.739.346-1.727 1.036L5 11.59c2.752-2.42 4.981-4.697 6.457-4.832 1.71-.165 2.762 1.002 3.154 3.501.509 3.204 1.24 8.381 2.516 8.381.987 0 3.425-4.013 3.553-5.472.218-2.077-1.489-2.196-3.109-1.528 1.086-3.518 3.156-5.229 6.215-5.129 2.266.066 3.334 1.53 3.203 4.388"/></symbol><symbol viewBox="-10 -10 52 52" id="social-whatsapp"><g fill-rule="evenodd" clip-rule="evenodd" fill="#231F20"><path d="M5 27.06c.123-.48.229-.896.342-1.309.364-1.33.737-2.654 1.083-3.988a.98.98 0 0 0-.064-.639C2.985 14.69 6.466 6.906 13.55 5.242c6.429-1.507 12.211 2.834 13.268 8.64 1.099 6.054-2.862 11.805-8.87 12.857-2.388.413-4.67.063-6.85-.997a1.056 1.056 0 0 0-.675-.07C7.519 26.397 5.587 26.943 5 27.06m2.556-2.52c1.092-.285 2.099-.538 3.096-.817.28-.077.499-.037.751.104 1.887 1.093 3.909 1.499 6.071 1.15 4.979-.797 8.39-5.456 7.63-10.417-.793-5.144-5.612-8.593-10.707-7.658-6.161 1.132-9.434 8.001-6.367 13.442.338.603.432 1.101.202 1.743-.271.77-.44 1.575-.676 2.453"/><path d="M18.894 21.173c-2.142-.077-5.554-1.768-7.891-5.826-.83-1.443-.709-3.088.506-4.218.412-.383.926-.288 1.409-.206.119.017.243.2.302.332.312.709.618 1.418.889 2.143.144.385-.119.742-.677 1.382-.175.2-.209.389-.072.622.897 1.521 2.154 2.624 3.807 3.269.242.095.424.034.577-.156.876-1.066.965-1.379 1.426-1.161 2.217 1.062 2.389 1.104 2.4 1.354.073 1.869-1.639 2.542-2.676 2.465"/></g></symbol><symbol viewBox="-10 -10 52 52" id="social-youtube"><path fill-rule="evenodd" clip-rule="evenodd" fill="#231F20" d="M7.266 23.259c-.833-.272-1.392-.817-1.691-1.64-.732-2.012-.947-10.423.459-12.079a2.735 2.735 0 0 1 1.841-.977c3.792-.408 15.517-.351 16.868.137.792.284 1.354.802 1.659 1.595.8 2.077.828 9.642-.105 11.643-.255.543-.667.928-1.19 1.201-1.414.742-15.981.733-17.841.12m6.026-3.943a8227.54 8227.54 0 0 1 6.833-3.543l-6.833-3.565v7.108z"/></symbol></svg>