<svg style="position: absolute; width: 0; height: 0; overflow: hidden;" version="1.1" xmlns="http://www.w3.org/2000/svg" xmlns:xlink="http://www.w3.org/1999/xlink">
<defs>
<symbol id="icon-add" viewBox="0 0 32 32">
<title>add</title>
<path class="path1" d="M5.001 18.633v-5.303h8.329v-8.329h5.344v8.329h8.325v5.303h-8.325v8.366h-5.344v-8.366h-8.329z"></path>
</symbol>
<symbol id="icon-delete" viewBox="0 0 32 32">
<title>delete</title>
<path class="path1" d="M15.617 10.784c-2.545 0-4.938-0.377-7.025-1.041v13.943c4.029 4.21 14.529 2.255 14.816 0v-14.207c-2.26 0.827-4.929 1.305-7.791 1.305zM13.080 23.253c-0.659-0.055-1.19-0.109-1.534-0.151v-10.808h0.032c0.471 0.112 0.975 0.21 1.502 0.291v10.668zM16.766 23.407c-0.521 0.001-1.035-0.009-1.531-0.028v-10.587c0.345 0.016 0.699 0.024 1.058 0.024 0.158 0 0.318 0 0.474-0.003v10.594zM20.455 23.113c-0.487 0.089-1.003 0.153-1.535 0.198v-10.649c0.536-0.062 1.048-0.146 1.535-0.245v10.696z"></path>
<path class="path2" d="M15.998 5.836c-4.14 0-7.498 0.945-7.498 2.107s3.358 2.107 7.498 2.107c4.144 0 7.502-0.944 7.502-2.107 0-1.162-3.358-2.107-7.502-2.107zM16.002 9.055c-2.078 0-3.763-0.565-3.763-1.265 0-0.698 1.685-1.262 3.763-1.262 2.074 0 3.759 0.564 3.759 1.262 0 0.7-1.685 1.265-3.759 1.265z"></path>
</symbol>
<symbol id="icon-edit" viewBox="0 0 32 32">
<title>edit</title>
<path class="path1" d="M21.881 5.040l5.119 5.118-13.165 13.169-5.119-5.118 13.165-13.169z"></path>
<path class="path2" d="M5.717 21.204l-0.717 5.756 5.84-0.634z"></path>
</symbol>
<symbol id="icon-home" viewBox="0 0 32 32">
<title>home</title>
<path class="path1" d="M23.744 17.465l-7.838-7.576-7.841 7.576v8.973h4.922v-8.724h5.835v8.724h4.922v-8.973z"></path>
<path class="path2" d="M15.88 8.206l-9.527 9.318-1.353-1.321 10.88-10.641 11.12 10.875-1.351 1.321-9.769-9.552z"></path>
</symbol>
<symbol id="icon-mail" viewBox="0 0 32 32">
<title>mail</title>
<path class="path1" d="M16.002 19.028l-11.002-6.984v10.96c0 1.125 0.925 2.030 2.060 2.030h17.875c1.145 0 2.065-0.905 2.065-2.030v-10.96l-10.998 6.984zM7.060 6.966c-1.062 0-1.936 0.797-2.047 1.817-0.006 0.070-0.013 0.137-0.013 0.213l11.002 6.979 10.998-6.979c0-0.079-0.003-0.152-0.013-0.227-0.115-1.010-0.985-1.804-2.053-1.804h-17.874z"></path>
</symbol>
<symbol id="icon-menu" viewBox="0 0 32 32">
<title>menu</title>
<path class="path1" d="M5 6.48h22v2.941h-22v-2.941z"></path>
<path class="path2" d="M5 14.529h22v2.941h-22v-2.941z"></path>
<path class="path3" d="M5 22.577h22v2.942h-22v-2.942z"></path>
</symbol>
<symbol id="icon-search" viewBox="0 0 32 32">
<title>search</title>
<path class="path1" d="M26.925 23.856c-0.883-1.434-6.061-6.060-6.061-6.060 0.686-1.224 1.079-2.632 1.079-4.131 0-4.682-3.793-8.475-8.472-8.475s-8.471 3.793-8.471 8.476c0 4.679 3.793 8.472 8.472 8.472 1.68 0 3.245-0.496 4.561-1.343 0 0 4.335 5.372 5.976 5.979 0.967 0.357 3.454-2.042 2.916-2.918zM7.75 13.666c0.006-3.163 2.562-5.719 5.722-5.726 3.163 0.006 5.72 2.562 5.726 5.726-0.006 3.16-2.562 5.715-5.726 5.722-3.16-0.007-5.716-2.563-5.722-5.722z"></path>
</symbol>
<symbol id="icon-settings" viewBox="0 0 32 32">
<title>settings</title>
<path class="path1" d="M27 17.875v-3.783l-2.005-0.879c-0.16-0.517-0.368-1.013-0.608-1.491l0.921-2.355-2.673-2.673-2.358 0.92c-0.463-0.237-0.953-0.439-1.458-0.6l-0.885-2.017h-3.784l-0.867 1.99c-0.514 0.154-1.009 0.354-1.479 0.588l-2.331-0.91-2.676 2.672 0.882 2.26c-0.271 0.511-0.499 1.054-0.674 1.616l-2.005 0.879v3.783l1.996 0.877c0.143 0.463 0.32 0.914 0.528 1.348l-1.093 2.798 2.673 2.673 2.797-1.093c0.442 0.214 0.903 0.392 1.381 0.537l0.867 1.987h3.784l0.885-2.017c0.434-0.137 0.858-0.304 1.262-0.499l2.7 1.054 2.673-2.676-1.037-2.648c0.238-0.47 0.434-0.956 0.588-1.464l1.996-0.877zM21.016 15.999c-0.003 2.771-2.245 5.013-5.016 5.019-2.771-0.006-5.013-2.248-5.019-5.019 0.006-2.771 2.248-5.010 5.019-5.019 2.771 0.008 5.013 2.248 5.016 5.019z"></path>
</symbol>
<symbol id="icon-social-dribbble" viewBox="0 0 32 32">
<title>social-dribbble</title>
<path class="path1" d="M15.999 27c-6.065 0-10.999-4.936-10.999-11 0-6.065 4.934-11 10.999-11 6.066 0 11.001 4.935 11.001 11 0 6.064-4.935 11-11.001 11zM25.276 17.506c-0.321-0.103-2.908-0.873-5.853-0.401 1.229 3.376 1.729 6.127 1.824 6.699 2.109-1.426 3.61-3.684 4.029-6.298zM19.67 24.663c-0.141-0.824-0.686-3.697-2.005-7.125l-0.062 0.021c-5.299 1.846-7.201 5.521-7.371 5.867 1.593 1.242 3.596 1.983 5.768 1.983 1.3 0.001 2.542-0.264 3.67-0.746zM9.019 22.297c0.213-0.364 2.792-4.634 7.638-6.2 0.122-0.040 0.246-0.077 0.37-0.112-0.236-0.533-0.493-1.068-0.762-1.595-4.692 1.404-9.245 1.346-9.656 1.338-0.002 0.096-0.005 0.19-0.005 0.287 0 2.413 0.915 4.615 2.415 6.282zM6.802 14.090c0.42 0.006 4.291 0.022 8.687-1.145-1.557-2.768-3.235-5.094-3.484-5.434-2.629 1.24-4.594 3.663-5.203 6.579zM13.797 6.88c0.26 0.347 1.967 2.672 3.506 5.5 3.342-1.251 4.756-3.153 4.926-3.394-1.659-1.473-3.842-2.368-6.229-2.368-0.759 0-1.496 0.091-2.203 0.262zM23.272 10.073c-0.198 0.268-1.773 2.286-5.246 3.704 0.218 0.448 0.427 0.902 0.623 1.361 0.068 0.162 0.136 0.323 0.202 0.485 3.126-0.395 6.232 0.236 6.543 0.302-0.021-2.217-0.813-4.253-2.122-5.852z"></path>
</symbol>
<symbol id="icon-social-facebook" viewBox="0 0 32 32">
<title>social-facebook</title>
<path class="path1" d="M21.328 17.014l0.53-4.108h-4.069v-2.623c0-1.189 0.333-1.999 2.038-1.999l2.173-0.003v-3.674c-0.375-0.051-1.664-0.163-3.169-0.163-3.136 0-5.283 1.915-5.283 5.433v3.028h-3.548v4.108h3.548v10.542h4.241v-10.541h3.539z"></path>
</symbol>
<symbol id="icon-social-instagram" viewBox="0 0 32 32">
<title>social-instagram</title>
<path class="path1" d="M26.821 10.521c-0.15-1.446-0.703-2.727-1.78-3.754-1.13-1.080-2.516-1.557-4.034-1.637-2.584-0.141-8.725-0.23-10.88 0.121-2.463 0.401-4.076 1.84-4.759 4.273-0.522 1.872-0.422 10.498-0.113 12.347 0.417 2.531 1.911 4.152 4.418 4.8 1.735 0.447 10.264 0.388 12.178 0.080 2.531-0.411 4.161-1.897 4.819-4.399 0.503-1.921 0.326-10.096 0.151-11.831zM24.795 21.514c-0.293 1.922-1.569 3.11-3.499 3.324-1.775 0.194-9.702 0.301-11.345-0.16-1.575-0.439-2.477-1.521-2.738-3.108-0.25-1.511-0.311-9.077-0.004-11.099 0.291-1.907 1.565-3.094 3.486-3.31 1.95-0.218 8.962-0.243 10.829 0.045 1.919 0.294 3.105 1.571 3.314 3.505 0.2 1.806 0.256 8.863-0.043 10.803zM16 10.358c-3.115 0-5.641 2.524-5.637 5.646 0 3.106 2.519 5.629 5.625 5.634 3.121 0.007 5.651-2.513 5.653-5.634s-2.52-5.644-5.641-5.646zM15.963 19.646c-1.99-0.004-3.607-1.646-3.607-3.661 0-2.012 1.632-3.634 3.661-3.634 2.011 0.001 3.635 1.635 3.635 3.66-0.003 2.024-1.641 3.638-3.689 3.635zM23.18 10.148c-0.002 0.731-0.588 1.313-1.321 1.313-0.736 0-1.314-0.578-1.32-1.313-0.005-0.742 0.588-1.334 1.333-1.326 0.73 0.003 1.31 0.592 1.308 1.326z"></path>
</symbol>
<symbol id="icon-social-pinterest" viewBox="0 0 32 32">
<title>social-pinterest</title>
<path class="path1" d="M16.001 5c-6.075 0-11.001 4.924-11.001 11 0 4.504 2.709 8.375 6.585 10.076-0.031-0.77-0.005-1.691 0.19-2.527 0.212-0.893 1.416-5.994 1.416-5.994s-0.352-0.701-0.352-1.74c0-1.629 0.946-2.848 2.123-2.848 0.999 0 1.482 0.752 1.482 1.652 0 1.004-0.642 2.51-0.971 3.902-0.276 1.168 0.585 2.119 1.734 2.119 2.085 0 3.488-2.676 3.488-5.848 0-2.41-1.623-4.215-4.577-4.215-3.336 0-5.414 2.486-5.414 5.266 0 0.959 0.282 1.635 0.725 2.158 0.204 0.24 0.232 0.338 0.157 0.613-0.051 0.203-0.172 0.689-0.224 0.883-0.073 0.279-0.298 0.379-0.551 0.275-1.536-0.627-2.252-2.311-2.252-4.201 0-3.125 2.634-6.873 7.861-6.873 4.199 0 6.965 3.039 6.965 6.303 0 4.314-2.4 7.537-5.937 7.537-1.188 0-2.306-0.641-2.687-1.369 0 0-0.64 2.533-0.773 3.023-0.234 0.848-0.69 1.695-1.108 2.355 0.992 0.293 2.037 0.453 3.121 0.453 6.074 0 10.999-4.924 10.999-11s-4.925-11-10.999-11z"></path>
</symbol>
<symbol id="icon-social-twitter" viewBox="0 0 32 32">
<title>social-twitter</title>
<path class="path1" d="M27 9.177c-0.81 0.359-1.68 0.602-2.592 0.711 0.932-0.559 1.647-1.442 1.984-2.497-0.871 0.518-1.837 0.894-2.865 1.096-0.824-0.878-1.998-1.426-3.296-1.426-2.492 0-4.514 2.021-4.514 4.514 0 0.354 0.040 0.698 0.116 1.028-3.751-0.188-7.076-1.984-9.303-4.716-0.388 0.667-0.61 1.442-0.61 2.27 0 1.565 0.797 2.948 2.007 3.757-0.739-0.022-1.436-0.228-2.044-0.565v0.057c0 2.188 1.556 4.012 3.62 4.427-0.378 0.103-0.778 0.159-1.188 0.159-0.291 0-0.574-0.029-0.85-0.082 0.574 1.793 2.24 3.098 4.216 3.135-1.544 1.21-3.489 1.933-5.605 1.933-0.364 0-0.723-0.022-1.076-0.063 1.997 1.279 4.37 2.027 6.92 2.027 8.302 0 12.841-6.877 12.841-12.842 0-0.195-0.004-0.39-0.012-0.585 0.88-0.638 1.645-1.433 2.251-2.338z"></path>
</symbol>
<symbol id="icon-social-vimeo" viewBox="0 0 32 32">
<title>social-vimeo</title>
<path class="path1" d="M26.989 10.899c-0.191 4.123-7.72 14.595-12.080 14.595-1.282 0-2.367-1.183-3.254-3.551-1.698-6.223-2.452-10.058-3.895-10.058-0.164 0-0.739 0.346-1.727 1.036l-1.033-1.331c2.752-2.42 4.981-4.697 6.457-4.832 1.71-0.165 2.762 1.002 3.154 3.501 0.509 3.204 1.24 8.381 2.516 8.381 0.987 0 3.425-4.013 3.553-5.472 0.218-2.077-1.489-2.196-3.109-1.528 1.086-3.518 3.156-5.229 6.215-5.129 2.266 0.066 3.334 1.53 3.203 4.388z"></path>
</symbol>
<symbol id="icon-social-whatsapp" viewBox="0 0 32 32">
<title>social-whatsapp</title>
<path class="path1" d="M5 27.060c0.123-0.48 0.229-0.896 0.342-1.309 0.364-1.33 0.737-2.654 1.083-3.988 0.051-0.197 0.028-0.461-0.064-0.639-3.376-6.434 0.105-14.218 7.189-15.882 6.429-1.507 12.211 2.834 13.268 8.64 1.099 6.054-2.862 11.805-8.87 12.857-2.388 0.413-4.67 0.063-6.85-0.997-0.195-0.097-0.469-0.122-0.675-0.070-2.904 0.725-4.836 1.271-5.423 1.388zM7.556 24.54c1.092-0.285 2.099-0.538 3.096-0.817 0.28-0.077 0.499-0.037 0.751 0.104 1.887 1.093 3.909 1.499 6.071 1.15 4.979-0.797 8.39-5.456 7.63-10.417-0.793-5.144-5.612-8.593-10.707-7.658-6.161 1.132-9.434 8.001-6.367 13.442 0.338 0.603 0.432 1.101 0.202 1.743-0.271 0.77-0.44 1.575-0.676 2.453z"></path>
<path class="path2" d="M18.894 21.173c-2.142-0.077-5.554-1.768-7.891-5.826-0.83-1.443-0.709-3.088 0.506-4.218 0.412-0.383 0.926-0.288 1.409-0.206 0.119 0.017 0.243 0.2 0.302 0.332 0.312 0.709 0.618 1.418 0.889 2.143 0.144 0.385-0.119 0.742-0.677 1.382-0.175 0.2-0.209 0.389-0.072 0.622 0.897 1.521 2.154 2.624 3.807 3.269 0.242 0.095 0.424 0.034 0.577-0.156 0.876-1.066 0.965-1.379 1.426-1.161 2.217 1.062 2.389 1.104 2.4 1.354 0.073 1.869-1.639 2.542-2.676 2.465z"></path>
</symbol>
<symbol id="icon-social-youtube" viewBox="0 0 32 32">
<title>social-youtube</title>
<path class="path1" d="M7.266 23.259c-0.833-0.272-1.392-0.817-1.691-1.64-0.732-2.012-0.947-10.423 0.459-12.079 0.483-0.567 1.104-0.898 1.841-0.977 3.792-0.408 15.517-0.351 16.868 0.137 0.792 0.284 1.354 0.802 1.659 1.595 0.8 2.077 0.828 9.642-0.105 11.643-0.255 0.543-0.667 0.928-1.19 1.201-1.414 0.742-15.981 0.733-17.841 0.12zM13.292 19.316c2.28-1.184 4.542-2.356 6.833-3.543-2.294-1.196-4.555-2.377-6.833-3.565v7.108z"></path>
</symbol>
</defs>
</svg>

