<?xml version="1.0" encoding="utf-8"?>
<!-- Generator: Adobe Illustrator 16.0.0, SVG Export Plug-In . SVG Version: 6.00 Build 0)  -->
<!DOCTYPE svg PUBLIC "-//W3C//DTD SVG 1.1//EN" "http://www.w3.org/Graphics/SVG/1.1/DTD/svg11.dtd">
<svg version="1.1" id="Layer_1" xmlns="http://www.w3.org/2000/svg" xmlns:xlink="http://www.w3.org/1999/xlink" x="0px" y="0px"
	 width="512px" height="512px" viewBox="0 0 512 512" enable-background="new 0 0 512 512" xml:space="preserve">
<g>
	<path d="M345.588,433.71c-27.337,0-48.967-18.125-64.757-33.915L112.204,231.169c-14.098-14.098-30.645-33.37-33.485-57.464
		c-2.83-23.996,8.123-47.989,33.485-73.351c14.642-14.641,30.913-22.065,48.363-22.065c41.568,0,73.315,43.105,75.998,46.855
		c14.125,18.777,8.135,41.318,2.848,61.213c-5.639,21.223-8.596,34.731,1.248,44.575l40.406,40.404
		c4.438,4.438,9.646,6.417,16.89,6.416c8.237-0.001,17.683-2.51,27.684-5.167c10.911-2.899,22.193-5.896,33.314-5.896
		c10.796,0,20.182,2.942,27.901,8.746c3.562,2.548,43.267,31.785,46.626,70.72c1.676,19.427-5.671,37.474-21.837,53.64
		C388.825,422.616,367.217,433.71,345.588,433.71z M160.567,103.29c-10.728,0-20.766,4.822-30.686,14.743
		c-19.596,19.595-28.21,36.848-26.336,52.745c1.515,12.842,9.637,26.016,26.336,42.715l168.627,168.626
		c18.391,18.391,32.91,26.592,47.079,26.592c14.661,0,30.486-8.698,48.38-26.592c10.836-10.835,15.615-21.874,14.612-33.746
		c-2.387-28.266-35.988-52.405-36.328-52.645c-0.11-0.079-0.239-0.173-0.349-0.255c-3.396-2.58-7.511-3.782-12.948-3.782
		c-7.856,0-17.104,2.457-26.896,5.058c-11.111,2.952-22.6,6.004-34.101,6.005c0,0-0.004,0-0.006,0
		c-13.819,0-25.447-4.622-34.563-13.739l-40.406-40.403c-20.525-20.526-13.432-47.223-7.731-68.673
		c5.086-19.14,7.709-31.373,1.276-39.841c-0.092-0.121-0.181-0.243-0.269-0.367C216.015,139.384,190.074,103.29,160.567,103.29z"/>
</g>
</svg>
