<?xml version="1.0" encoding="utf-8"?>
<!-- Generator: Adobe Illustrator 16.0.0, SVG Export Plug-In . SVG Version: 6.00 Build 0)  -->
<!DOCTYPE svg PUBLIC "-//W3C//DTD SVG 1.1//EN" "http://www.w3.org/Graphics/SVG/1.1/DTD/svg11.dtd">
<svg version="1.1" id="Layer_1" xmlns="http://www.w3.org/2000/svg" xmlns:xlink="http://www.w3.org/1999/xlink" x="0px" y="0px"
	 width="512px" height="512px" viewBox="0 0 512 512" enable-background="new 0 0 512 512" xml:space="preserve">
<g>
	<path d="M439.416,148.875c-18.055-29.852-56.173-40.254-86.716-24.439C325.661,104.35,292.195,92.45,256,92.45
		s-69.661,11.9-96.7,31.986c-30.542-15.815-68.661-5.413-86.716,24.439c-18.695,30.911-8.938,71.196,21.695,90.178
		c-0.51,5.232-0.779,10.534-0.779,15.897c0,46.827,19.917,89.082,51.715,118.764l-24.497,24.497c-4.882,4.882-4.881,12.796,0,17.678
		c2.441,2.441,5.64,3.661,8.839,3.661s6.398-1.221,8.839-3.661l26.467-26.468c26.008,17.683,57.386,28.029,91.137,28.029
		s65.129-10.347,91.137-28.029l26.467,26.468c2.44,2.44,5.64,3.661,8.839,3.661s6.398-1.22,8.839-3.661
		c4.881-4.881,4.882-12.796,0-17.678l-24.497-24.497c31.798-29.682,51.715-71.937,51.715-118.764c0-5.364-0.269-10.666-0.779-15.897
		C448.354,220.071,458.111,179.786,439.416,148.875z M93.976,161.813c9.378-15.505,27.475-22.559,44.244-18.704
		c-18.036,18.984-31.538,42.312-38.768,68.229C86.959,198.295,84.193,177.988,93.976,161.813z M256,392.45
		c-75.818,0-137.5-61.682-137.5-137.5s61.682-137.5,137.5-137.5s137.5,61.682,137.5,137.5S331.818,392.45,256,392.45z
		 M412.548,211.338c-7.229-25.917-20.731-49.245-38.768-68.229c16.769-3.854,34.866,3.199,44.244,18.704
		C427.807,177.988,425.041,198.295,412.548,211.338z"/>
	<path d="M268.54,251.351V151.149c0-6.903-5.596-12.5-12.5-12.5c-6.903,0-12.5,5.597-12.5,12.5v112.702
		c0,6.903,5.597,12.5,12.5,12.5h92.433c6.903,0,12.5-5.597,12.5-12.5c0-6.904-5.597-12.5-12.5-12.5H268.54z"/>
</g>
</svg>
