<?xml version="1.0" encoding="utf-8"?>
<!-- Generator: Adobe Illustrator 16.0.0, SVG Export Plug-In . SVG Version: 6.00 Build 0)  -->
<!DOCTYPE svg PUBLIC "-//W3C//DTD SVG 1.1//EN" "http://www.w3.org/Graphics/SVG/1.1/DTD/svg11.dtd">
<svg version="1.1" id="Layer_1" xmlns="http://www.w3.org/2000/svg" xmlns:xlink="http://www.w3.org/1999/xlink" x="0px" y="0px"
	 width="512px" height="512px" viewBox="0 0 512 512" enable-background="new 0 0 512 512" xml:space="preserve">
<g>
	<path d="M178.984,238.152H68.135c-6.903,0-12.5,5.597-12.5,12.5c0,37.454,30.471,67.925,67.925,67.925s67.925-30.471,67.925-67.925
		C191.484,243.749,185.888,238.152,178.984,238.152z M123.56,293.577c-19.323,0-35.705-12.833-41.069-30.425h82.138
		C159.265,280.744,142.883,293.577,123.56,293.577z"/>
	<path d="M443.865,238.152h-110.85c-6.903,0-12.5,5.597-12.5,12.5c0,37.454,30.471,67.925,67.925,67.925
		s67.925-30.471,67.925-67.925C456.365,243.749,450.769,238.152,443.865,238.152z M388.44,293.577
		c-19.323,0-35.705-12.833-41.069-30.425h82.138C424.146,280.744,407.764,293.577,388.44,293.577z"/>
	<path d="M297.248,392.388H268.5V147.684c11.115-1.328,23.868-4.048,37.157-6.889c15.352-3.281,31.226-6.674,44.558-7.855
		c16.866-1.494,22.351,1.309,23.926,2.583c0.426,0.345,1.307,1.063,1.642,3.427l-23.747,79.113
		c-1.985,6.612,1.767,13.581,8.378,15.566c6.612,1.982,13.582-1.767,15.566-8.379l12.437-41.432l12.437,41.432
		c1.625,5.414,6.591,8.909,11.967,8.909c1.19,0,2.4-0.171,3.599-0.53c6.612-1.985,10.363-8.954,8.378-15.566l-23.991-79.927
		c-0.803-11.458-6.282-18.28-10.943-22.051c-18.437-14.912-52.921-7.542-89.432,0.263c-11.521,2.463-22.607,4.828-31.932,6.135
		v-15.37c0-6.903-5.597-12.5-12.5-12.5s-12.5,5.597-12.5,12.5v15.37c-9.324-1.307-20.41-3.672-31.932-6.135
		c-36.51-7.805-70.996-15.173-89.432-0.263c-4.661,3.771-10.14,10.593-10.943,22.051l-23.991,79.927
		c-1.985,6.612,1.767,13.581,8.378,15.566c6.612,1.982,13.581-1.767,15.566-8.379l12.437-41.432l12.437,41.432
		c1.625,5.414,6.591,8.909,11.967,8.909c1.19,0,2.4-0.171,3.599-0.53c6.612-1.985,10.363-8.954,8.378-15.566l-23.747-79.113
		c0.334-2.363,1.216-3.082,1.642-3.427c1.576-1.274,7.061-4.077,23.926-2.583c13.332,1.182,29.207,4.574,44.558,7.855
		c13.289,2.841,26.042,5.561,37.157,6.889v244.704h-28.748c-6.904,0-12.5,5.597-12.5,12.5s5.596,12.5,12.5,12.5h82.496
		c6.904,0,12.5-5.597,12.5-12.5S304.152,392.388,297.248,392.388z"/>
</g>
</svg>
