<?xml version="1.0" encoding="utf-8"?>
<!-- Generator: Adobe Illustrator 16.0.0, SVG Export Plug-In . SVG Version: 6.00 Build 0)  -->
<!DOCTYPE svg PUBLIC "-//W3C//DTD SVG 1.1//EN" "http://www.w3.org/Graphics/SVG/1.1/DTD/svg11.dtd">
<svg version="1.1" id="Layer_1" xmlns="http://www.w3.org/2000/svg" xmlns:xlink="http://www.w3.org/1999/xlink" x="0px" y="0px"
	 width="512px" height="512px" viewBox="0 0 512 512" enable-background="new 0 0 512 512" xml:space="preserve">
<g>
	<path d="M373.025,256.222l-118-51.813c-4.016-1.763-8.663-1.291-12.246,1.241c-3.581,2.535-5.571,6.761-5.244,11.136l4.706,62.963
		l-95.161-24.196c-6.688-1.7-13.493,2.344-15.194,9.034s2.343,13.493,9.034,15.194l112.002,28.479
		c1.018,0.259,2.051,0.386,3.079,0.386c2.907,0,5.761-1.015,8.036-2.925c3.081-2.586,4.729-6.496,4.43-10.507l-4.451-59.554
		l98.959,43.452c6.324,2.775,13.695-0.099,16.471-6.42S379.347,258.997,373.025,256.222z"/>
	<path d="M436.442,215.002v-35.137c0-17.921-14.579-32.5-32.5-32.5H88.058c-17.921,0-32.5,14.579-32.5,32.5v152.27
		c0,17.921,14.579,32.5,32.5,32.5h315.885c17.921,0,32.5-14.579,32.5-32.5v-35.137c11.233-1.248,20-10.797,20-22.357v-37.281
		C456.442,225.799,447.676,216.25,436.442,215.002z M411.442,332.135c0,4.136-3.364,7.5-7.5,7.5H88.058c-4.136,0-7.5-3.364-7.5-7.5
		v-152.27c0-4.136,3.364-7.5,7.5-7.5h315.885c4.136,0,7.5,3.364,7.5,7.5v57.494v37.281V332.135z"/>
</g>
</svg>
