<?xml version="1.0" encoding="utf-8"?>
<!-- Generator: Adobe Illustrator 16.0.0, SVG Export Plug-In . SVG Version: 6.00 Build 0)  -->
<!DOCTYPE svg PUBLIC "-//W3C//DTD SVG 1.1//EN" "http://www.w3.org/Graphics/SVG/1.1/DTD/svg11.dtd">
<svg version="1.1" id="Layer_1" xmlns="http://www.w3.org/2000/svg" xmlns:xlink="http://www.w3.org/1999/xlink" x="0px" y="0px"
	 width="512px" height="512px" viewBox="0 0 512 512" enable-background="new 0 0 512 512" xml:space="preserve">
<g>
	<g>
		<path d="M256.001,408.5c-84.091,0-152.502-68.411-152.502-152.5s68.411-152.5,152.502-152.5c84.089,0,152.5,68.411,152.5,152.5
			S340.09,408.5,256.001,408.5z M256.001,128.5c-70.305,0-127.502,57.196-127.502,127.5s57.197,127.5,127.502,127.5
			c70.304,0,127.5-57.196,127.5-127.5S326.305,128.5,256.001,128.5z"/>
	</g>
	<g>
		<path d="M329.497,268.5H182.505c-6.903,0-12.5-5.597-12.5-12.5s5.597-12.5,12.5-12.5h146.992c6.903,0,12.5,5.597,12.5,12.5
			S336.4,268.5,329.497,268.5z"/>
	</g>
</g>
</svg>
