<?xml version="1.0" encoding="utf-8"?>
<!-- Generator: Adobe Illustrator 16.0.0, SVG Export Plug-In . SVG Version: 6.00 Build 0)  -->
<!DOCTYPE svg PUBLIC "-//W3C//DTD SVG 1.1//EN" "http://www.w3.org/Graphics/SVG/1.1/DTD/svg11.dtd">
<svg version="1.1" id="Layer_1" xmlns="http://www.w3.org/2000/svg" xmlns:xlink="http://www.w3.org/1999/xlink" x="0px" y="0px"
	 width="512px" height="512px" viewBox="0 0 512 512" enable-background="new 0 0 512 512" xml:space="preserve">
<g>
	<path d="M438,133H183.244v-21.846c0-6.904-5.596-12.5-12.5-12.5h-46.666c-6.904,0-12.5,5.596-12.5,12.5V133H74
		c-6.903,0-12.5,5.597-12.5,12.5v221c0,6.903,5.597,12.5,12.5,12.5h364c6.903,0,12.5-5.597,12.5-12.5v-221
		C450.5,138.597,444.903,133,438,133z M136.578,123.654h21.666V133h-21.666V123.654z M86.5,158h37.578h46.666h94.297
		c-38.608,15.8-65.88,53.772-65.88,98s27.272,82.2,65.88,98H86.5V158z M305,175.16c44.575,0,80.84,36.265,80.84,80.84
		s-36.265,80.84-80.84,80.84s-80.84-36.265-80.84-80.84S260.425,175.16,305,175.16z M425.5,354h-80.541
		c38.608-15.8,65.88-53.772,65.88-98s-27.272-82.2-65.88-98H425.5V354z"/>
	<path d="M305,223.594c17.869,0,32.406,14.538,32.406,32.406c0,6.903,5.597,12.5,12.5,12.5s12.5-5.597,12.5-12.5
		c0-31.654-25.752-57.406-57.406-57.406c-6.903,0-12.5,5.597-12.5,12.5S298.097,223.594,305,223.594z"/>
</g>
</svg>
