<?xml version="1.0" encoding="utf-8"?>
<!-- Generator: Adobe Illustrator 16.0.0, SVG Export Plug-In . SVG Version: 6.00 Build 0)  -->
<!DOCTYPE svg PUBLIC "-//W3C//DTD SVG 1.1//EN" "http://www.w3.org/Graphics/SVG/1.1/DTD/svg11.dtd">
<svg version="1.1" id="Layer_1" xmlns="http://www.w3.org/2000/svg" xmlns:xlink="http://www.w3.org/1999/xlink" x="0px" y="0px"
	 width="512px" height="512px" viewBox="0 0 512 512" enable-background="new 0 0 512 512" xml:space="preserve">
<path d="M426.001,133.766H161.747l-15.221-35.779c-1.558-3.662-4.767-6.363-8.64-7.275L88.864,79.178
	c-6.72-1.586-13.45,2.584-15.03,9.305c-1.582,6.72,2.584,13.449,9.305,15.03l42.86,10.085l109.723,257.924
	c-3.398,6.001-5.35,12.926-5.35,20.301c0,22.793,18.544,41.337,41.337,41.337s41.337-18.543,41.337-41.337
	c0-5.725-1.172-11.181-3.285-16.144h45.01c-2.113,4.962-3.285,10.418-3.285,16.144c0,22.793,18.545,41.337,41.339,41.337
	c22.792,0,41.335-18.543,41.335-41.337s-18.543-41.337-41.335-41.337l-138.801,0.193l-17.12-40.243h189.098
	c6.904,0,12.5-5.597,12.5-12.5v-151.67C438.501,139.363,432.905,133.766,426.001,133.766z M392.85,375.499
	c9.021,0,16.334,7.313,16.334,16.333s-7.313,16.333-16.334,16.333s-16.333-7.313-16.333-16.333S383.829,375.499,392.85,375.499z
	 M271.771,375.499c9.021,0,16.334,7.313,16.334,16.333s-7.313,16.333-16.334,16.333s-16.333-7.313-16.333-16.333
	S262.751,375.499,271.771,375.499z M413.501,209.601h-82.854c-6.903,0-12.5,5.597-12.5,12.5s5.597,12.5,12.5,12.5h82.854v50.835
	H226.269l-53.887-126.67h241.119V209.601z"/>
</svg>
