<?xml version="1.0" encoding="utf-8"?>
<!-- Generator: Adobe Illustrator 16.0.0, SVG Export Plug-In . SVG Version: 6.00 Build 0)  -->
<!DOCTYPE svg PUBLIC "-//W3C//DTD SVG 1.1//EN" "http://www.w3.org/Graphics/SVG/1.1/DTD/svg11.dtd">
<svg version="1.1" id="Layer_1" xmlns="http://www.w3.org/2000/svg" xmlns:xlink="http://www.w3.org/1999/xlink" x="0px" y="0px"
	 width="512px" height="512px" viewBox="0 0 512 512" enable-background="new 0 0 512 512" xml:space="preserve">
<g>
	<path d="M435.01,402.688L266.952,97.26c-2.197-3.993-6.394-6.474-10.952-6.474s-8.754,2.481-10.952,6.474L76.99,402.688
		c-2.131,3.872-2.058,8.582,0.191,12.387c2.249,3.805,6.34,6.139,10.76,6.139h336.117c4.42,0,8.511-2.334,10.76-6.139
		C437.068,411.27,437.141,406.56,435.01,402.688z M109.087,396.214L256,129.215l146.913,266.999H109.087z"/>
	<path d="M240.335,218.527v90.351c0,8.651,7.014,15.665,15.665,15.665s15.665-7.014,15.665-15.665v-90.351
		c0-8.651-7.014-15.665-15.665-15.665S240.335,209.876,240.335,218.527z"/>
	<path d="M256,340.806c-9.097,0-16.5,7.399-16.5,16.5c0,9.097,7.403,16.499,16.5,16.499s16.5-7.402,16.5-16.499
		C272.5,348.205,265.097,340.806,256,340.806z"/>
</g>
</svg>
