<?xml version="1.0" encoding="utf-8"?>
<!-- Generator: Adobe Illustrator 16.0.0, SVG Export Plug-In . SVG Version: 6.00 Build 0)  -->
<!DOCTYPE svg PUBLIC "-//W3C//DTD SVG 1.1//EN" "http://www.w3.org/Graphics/SVG/1.1/DTD/svg11.dtd">
<svg version="1.1" id="Layer_1" xmlns="http://www.w3.org/2000/svg" xmlns:xlink="http://www.w3.org/1999/xlink" x="0px" y="0px"
	 width="512px" height="512px" viewBox="0 0 512 512" enable-background="new 0 0 512 512" xml:space="preserve">
<g>
	<g>
		<path d="M226.595,461.126c-96.893,0-175.721-78.828-175.721-175.721s78.828-175.721,175.721-175.721c6.903,0,12.5,5.597,12.5,12.5
			v150.721h150.721c6.903,0,12.5,5.597,12.5,12.5C402.315,382.298,323.487,461.126,226.595,461.126z M214.095,135.198
			c-77.28,6.376-138.221,71.31-138.221,150.207c0,83.107,67.613,150.721,150.721,150.721c78.897,0,143.831-60.94,150.207-138.221
			H226.595c-6.903,0-12.5-5.597-12.5-12.5V135.198z"/>
	</g>
	<g>
		<path d="M448.626,239.095H285.405c-6.903,0-12.5-5.597-12.5-12.5V63.374c0-6.903,5.597-12.5,12.5-12.5
			c96.893,0,175.721,78.828,175.721,175.721C461.126,233.498,455.529,239.095,448.626,239.095z M297.905,214.095h137.707
			c-6.036-73.156-64.551-131.671-137.707-137.707V214.095z"/>
	</g>
</g>
</svg>
