<?xml version="1.0" encoding="utf-8"?>
<!-- Generator: Adobe Illustrator 16.0.0, SVG Export Plug-In . SVG Version: 6.00 Build 0)  -->
<!DOCTYPE svg PUBLIC "-//W3C//DTD SVG 1.1//EN" "http://www.w3.org/Graphics/SVG/1.1/DTD/svg11.dtd">
<svg version="1.1" id="Layer_1" xmlns="http://www.w3.org/2000/svg" xmlns:xlink="http://www.w3.org/1999/xlink" x="0px" y="0px"
	 width="512px" height="512px" viewBox="0 0 512 512" enable-background="new 0 0 512 512" xml:space="preserve">
<path d="M366.055,203.668c-16.921-26.564-46.168-42.779-78.009-42.779c-4.252,0-8.498,0.291-12.697,0.869
	c-17.288-23.797-45.246-38.258-74.926-38.258c-50.474,0-91.635,40.64-92.484,90.917c-29.947,15.991-48.864,47.139-48.864,81.584
	c0,51.004,41.495,92.499,92.499,92.499h208.852c51.004,0,92.499-41.495,92.499-92.499
	C452.925,246.885,414.449,206.587,366.055,203.668z M360.426,363.5H151.574c-37.219,0-67.499-30.28-67.499-67.499
	c0-27.28,16.258-51.726,41.419-62.278c4.965-2.083,8.04-7.11,7.629-12.479c-0.132-1.721-0.198-3.484-0.198-5.243
	c0-37.22,30.279-67.5,67.497-67.5c15.896,0,31.113,5.693,43.077,15.588v119.055l-38.661-38.659c-4.882-4.881-12.797-4.881-17.678,0
	c-4.881,4.882-4.881,12.796,0,17.678l60,59.998c2.441,2.44,5.64,3.661,8.839,3.661c3.199,0,6.398-1.221,8.839-3.661l60-60
	c4.881-4.882,4.881-12.796,0-17.678c-4.882-4.881-12.796-4.881-17.678,0L268.5,283.143v-95.121c1.27,0.098,2.569,0.008,3.857-0.299
	c5.113-1.217,10.392-1.834,15.688-1.834c25.079,0,47.953,13.786,59.698,35.979c2.211,4.178,6.578,6.772,11.316,6.65
	c0.456-0.01,0.909-0.02,1.366-0.02c37.219,0,67.499,30.281,67.499,67.502C427.925,333.22,397.645,363.5,360.426,363.5z"/>
</svg>
