<?xml version="1.0" encoding="utf-8"?>
<!-- Generator: Adobe Illustrator 16.0.0, SVG Export Plug-In . SVG Version: 6.00 Build 0)  -->
<!DOCTYPE svg PUBLIC "-//W3C//DTD SVG 1.1//EN" "http://www.w3.org/Graphics/SVG/1.1/DTD/svg11.dtd">
<svg version="1.1" id="Layer_1" xmlns="http://www.w3.org/2000/svg" xmlns:xlink="http://www.w3.org/1999/xlink" x="0px" y="0px"
	 width="512px" height="512px" viewBox="0 0 512 512" enable-background="new 0 0 512 512" xml:space="preserve">
<path d="M344.839,289.077c-4.881-4.881-12.797-4.881-17.678,0L268.5,347.738V134.084c0-6.903-5.597-12.5-12.5-12.5
	c-6.904,0-12.5,5.597-12.5,12.5v213.654l-58.661-58.659c-4.883-4.881-12.797-4.881-17.678,0c-4.882,4.882-4.882,12.796,0,17.678
	l80,79.998c2.44,2.44,5.64,3.661,8.839,3.661s6.398-1.221,8.839-3.661l80-80C349.721,301.873,349.721,293.959,344.839,289.077z"/>
</svg>
