<?xml version="1.0" encoding="utf-8"?>
<!-- Generator: Adobe Illustrator 16.0.0, SVG Export Plug-In . SVG Version: 6.00 Build 0)  -->
<!DOCTYPE svg PUBLIC "-//W3C//DTD SVG 1.1//EN" "http://www.w3.org/Graphics/SVG/1.1/DTD/svg11.dtd">
<svg version="1.1" id="Layer_1" xmlns="http://www.w3.org/2000/svg" xmlns:xlink="http://www.w3.org/1999/xlink" x="0px" y="0px"
	 width="512px" height="512px" viewBox="0 0 512 512" enable-background="new 0 0 512 512" xml:space="preserve">
<g>
	<path d="M427.813,122.006H84.188c-6.903,0-12.5,5.597-12.5,12.5v242.988c0,6.903,5.597,12.5,12.5,12.5h343.625
		c6.903,0,12.5-5.597,12.5-12.5V134.506C440.313,127.603,434.716,122.006,427.813,122.006z M415.313,364.994H96.688V147.006h318.625
		V364.994z"/>
	<path d="M129.443,205.888l120,73.937c2.01,1.239,4.283,1.858,6.557,1.858s4.547-0.619,6.557-1.858l120-73.937
		c5.878-3.621,7.707-11.322,4.086-17.199c-3.621-5.877-11.324-7.707-17.199-4.085L256,254.5l-113.443-69.896
		c-5.875-3.619-13.576-1.793-17.199,4.085C121.736,194.566,123.565,202.267,129.443,205.888z"/>
</g>
</svg>
