<?xml version="1.0" encoding="utf-8"?>
<!-- Generator: Adobe Illustrator 16.0.0, SVG Export Plug-In . SVG Version: 6.00 Build 0)  -->
<!DOCTYPE svg PUBLIC "-//W3C//DTD SVG 1.1//EN" "http://www.w3.org/Graphics/SVG/1.1/DTD/svg11.dtd">
<svg version="1.1" id="Layer_1" xmlns="http://www.w3.org/2000/svg" xmlns:xlink="http://www.w3.org/1999/xlink" x="0px" y="0px"
	 width="512px" height="512px" viewBox="0 0 512 512" enable-background="new 0 0 512 512" xml:space="preserve">
<path d="M379.816,250.036l-42.104-71.994l42.444-72.574c2.261-3.866,2.281-8.646,0.053-12.53s-6.364-6.28-10.843-6.28H155.117
	c-0.183-6.744-5.694-12.158-12.482-12.158c-6.904,0-12.5,5.596-12.5,12.5v338c0,6.904,5.596,12.5,12.5,12.5s12.5-5.596,12.5-12.5
	V269.427h214.23c0.008,0.001,0.013,0,0.02,0c6.904,0,12.5-5.596,12.5-12.5C381.885,254.38,381.124,252.012,379.816,250.036z
	 M155.135,244.427v-132.77h192.439l-35.134,60.074c-2.28,3.898-2.28,8.723,0,12.621l35.134,60.074H155.135z"/>
</svg>
