<?xml version="1.0" encoding="utf-8"?>
<!-- Generator: Adobe Illustrator 16.0.0, SVG Export Plug-In . SVG Version: 6.00 Build 0)  -->
<!DOCTYPE svg PUBLIC "-//W3C//DTD SVG 1.1//EN" "http://www.w3.org/Graphics/SVG/1.1/DTD/svg11.dtd">
<svg version="1.1" id="Layer_1" xmlns="http://www.w3.org/2000/svg" xmlns:xlink="http://www.w3.org/1999/xlink" x="0px" y="0px"
	 width="512px" height="512px" viewBox="0 0 512 512" enable-background="new 0 0 512 512" xml:space="preserve">
<g>
	<path d="M256,178.01c-6.904,0-12.5,5.597-12.5,12.5v169.354c0,6.903,5.596,12.5,12.5,12.5c6.903,0,12.5-5.597,12.5-12.5V190.51
		C268.5,183.607,262.903,178.01,256,178.01z"/>
	<path d="M375,120.297h-61V94.423c0-6.903-5.597-12.5-12.5-12.5h-91c-6.903,0-12.5,5.597-12.5,12.5v25.874h-61
		c-6.904,0-12.5,5.596-12.5,12.5s5.596,12.5,12.5,12.5h11.255v272.279c0,6.903,5.597,12.5,12.5,12.5h190.49
		c6.903,0,12.5-5.597,12.5-12.5V145.297H375c6.903,0,12.5-5.596,12.5-12.5S381.903,120.297,375,120.297z M223,106.923h66v13.374h-66
		V106.923z M338.745,405.077h-165.49V145.297H210.5h91h37.245V405.077z"/>
</g>
</svg>
