<?xml version="1.0" encoding="utf-8"?>
<!-- Generator: Adobe Illustrator 16.0.0, SVG Export Plug-In . SVG Version: 6.00 Build 0)  -->
<!DOCTYPE svg PUBLIC "-//W3C//DTD SVG 1.1//EN" "http://www.w3.org/Graphics/SVG/1.1/DTD/svg11.dtd">
<svg version="1.1" id="Layer_1" xmlns="http://www.w3.org/2000/svg" xmlns:xlink="http://www.w3.org/1999/xlink" x="0px" y="0px"
	 width="512px" height="512px" viewBox="0 0 512 512" enable-background="new 0 0 512 512" xml:space="preserve">
<path d="M387.244,162.264h-13.537c4.111-5.801,7.141-12.379,8.875-19.496c3.604-14.794,1.23-30.107-6.684-43.116
	c-10.432-17.149-28.654-27.388-48.745-27.388c-10.416,0-20.646,2.873-29.581,8.308c-15.162,9.221-30.998,38.1-41.572,60.589
	c-10.574-22.489-26.41-51.367-41.572-60.588c-8.936-5.436-19.165-8.309-29.581-8.309c-20.091,0-38.313,10.239-48.744,27.388
	c-7.915,13.009-10.288,28.322-6.685,43.116c1.734,7.117,4.763,13.695,8.875,19.496h-13.537c-6.903,0-12.5,5.597-12.5,12.5v252.473
	c0,6.903,5.597,12.5,12.5,12.5h262.488c6.903,0,12.5-5.597,12.5-12.5V174.764C399.744,167.86,394.147,162.264,387.244,162.264z
	 M310.564,101.932c5.02-3.054,10.756-4.668,16.589-4.668c11.29,0,21.528,5.75,27.386,15.381c4.443,7.304,5.776,15.9,3.753,24.206
	s-7.16,15.326-14.466,19.77c-1.939,1.18-9.767,4.737-33.912,5.497c5.711-4.212,10.461-9.126,13.934-14.615
	c3.69-5.834,1.952-13.556-3.883-17.246c-5.831-3.689-13.555-1.952-17.246,3.882c-3.781,5.978-11.777,11.99-23.092,15.65
	C289.931,128.268,302.243,106.992,310.564,101.932z M157.461,112.644c5.857-9.631,16.096-15.38,27.386-15.38
	c5.833,0,11.569,1.614,16.59,4.668c8.308,5.052,20.62,26.329,30.929,47.854c-11.311-3.66-19.305-9.67-23.084-15.647
	c-3.69-5.834-11.411-7.572-17.246-3.883c-5.834,3.69-7.573,11.411-3.883,17.246c3.472,5.489,8.223,10.403,13.934,14.615
	c-24.146-0.761-31.973-4.317-33.914-5.498c-7.304-4.442-12.44-11.463-14.464-19.769S153.018,119.948,157.461,112.644z
	 M137.256,187.264h74.402h0.007H243.5v227.473H137.256V187.264z M374.744,414.736H268.5V187.264h31.841h0.003h74.4V414.736z"/>
</svg>
