<?xml version="1.0" encoding="utf-8"?>
<!-- Generator: Adobe Illustrator 16.0.0, SVG Export Plug-In . SVG Version: 6.00 Build 0)  -->
<!DOCTYPE svg PUBLIC "-//W3C//DTD SVG 1.1//EN" "http://www.w3.org/Graphics/SVG/1.1/DTD/svg11.dtd">
<svg version="1.1" id="Layer_1" xmlns="http://www.w3.org/2000/svg" xmlns:xlink="http://www.w3.org/1999/xlink" x="0px" y="0px"
	 width="512px" height="512px" viewBox="0 0 512 512" enable-background="new 0 0 512 512" xml:space="preserve">
<g>
	<g>
		<g>
			<path d="M281.547,136c6.622,0,13.267,2.332,18.607,7.076l68.855,61.155c12.036,12.296,23.427,33.273,23.427,51.304v60.223
				c0,33.269-24.142,60.242-53.93,60.242l-68.719-0.026c-15.48,0-28.035-12.557-28.035-28.033c0-5.087,1.378-9.846,3.748-13.963
				c-12.984-2.444-22.81-13.832-22.81-27.534c0-5.558,1.637-10.72,4.429-15.079c-10.464-4.072-17.882-14.218-17.882-26.109
				c0-5.22,1.45-10.082,3.934-14.271h-65.576c-15.486,0-28.034-12.557-28.034-28.033c0-15.487,12.548-28.033,28.034-28.033H274.09
				l-11.173-9.928c-11.576-10.273-12.621-27.994-2.344-39.57C266.114,139.183,273.814,136,281.547,136 M281.547,111
				c-15.148,0-29.605,6.494-39.664,17.816c-9.408,10.598-14.125,24.217-13.29,38.354c0.055,0.921,0.132,1.838,0.233,2.748h-81.229
				c-29.243,0-53.034,23.791-53.034,53.033s23.791,53.033,53.034,53.033h37.729c1.437,6.988,4.282,13.621,8.429,19.564
				c1.305,1.869,2.718,3.643,4.232,5.314c-0.196,1.847-0.294,3.709-0.294,5.58c0,16.174,7.32,30.912,19.067,40.725
				c-0.004,0.258-0.006,0.515-0.006,0.772c0,29.243,23.792,53.033,53.035,53.033L338.498,401c21.622,0,41.781-9.224,56.772-25.971
				c14.294-15.97,22.167-37.02,22.167-59.271v-60.223c0-12.144-3.346-25.51-9.677-38.652c-5.385-11.178-12.801-21.881-20.884-30.139
				c-0.407-0.416-0.829-0.818-1.264-1.205l-68.855-61.154C307.042,115.754,294.537,111,281.547,111L281.547,111z"/>
		</g>
	</g>
</g>
</svg>
