<?xml version="1.0" encoding="utf-8"?>
<!-- Generator: Adobe Illustrator 16.0.0, SVG Export Plug-In . SVG Version: 6.00 Build 0)  -->
<!DOCTYPE svg PUBLIC "-//W3C//DTD SVG 1.1//EN" "http://www.w3.org/Graphics/SVG/1.1/DTD/svg11.dtd">
<svg version="1.1" id="Layer_1" xmlns="http://www.w3.org/2000/svg" xmlns:xlink="http://www.w3.org/1999/xlink" x="0px" y="0px"
	 width="512px" height="512px" viewBox="0 0 512 512" enable-background="new 0 0 512 512" xml:space="preserve">
<g>
	<path d="M374.118,422.544c-3.614,0-7.136-1.57-9.558-4.441L256,289.389L147.44,418.103c-3.384,4.013-8.916,5.481-13.845,3.682
		c-4.93-1.802-8.21-6.492-8.21-11.741V101.957c0-6.903,5.597-12.5,12.5-12.5h236.23c6.903,0,12.5,5.597,12.5,12.5v308.086
		c0,5.249-3.28,9.939-8.21,11.741C377.003,422.296,375.553,422.544,374.118,422.544z M256,257.5c3.684,0,7.18,1.625,9.555,4.441
		l96.06,113.893V114.457h-211.23v261.377l96.06-113.893C248.82,259.125,252.316,257.5,256,257.5z"/>
</g>
</svg>
