<?xml version="1.0" encoding="utf-8"?>
<!-- Generator: Adobe Illustrator 16.0.0, SVG Export Plug-In . SVG Version: 6.00 Build 0)  -->
<!DOCTYPE svg PUBLIC "-//W3C//DTD SVG 1.1//EN" "http://www.w3.org/Graphics/SVG/1.1/DTD/svg11.dtd">
<svg version="1.1" id="Layer_1" xmlns="http://www.w3.org/2000/svg" xmlns:xlink="http://www.w3.org/1999/xlink" x="0px" y="0px"
	 width="512px" height="512px" viewBox="0 0 512 512" enable-background="new 0 0 512 512" xml:space="preserve">
<path d="M425.5,110.765h-339c-6.904,0-12.5,5.596-12.5,12.5v217c0,6.904,5.596,12.5,12.5,12.5H208v23.471h-29.748
	c-6.904,0-12.5,5.597-12.5,12.5s5.596,12.5,12.5,12.5H220.5h71h42.248c6.903,0,12.5-5.597,12.5-12.5s-5.597-12.5-12.5-12.5H304
	v-23.471h121.5c6.903,0,12.5-5.596,12.5-12.5v-217C438,116.361,432.403,110.765,425.5,110.765z M279,376.235h-46v-23.471h46V376.235
	z M413,327.765h-14.219v-10.59c0-6.903-5.598-12.5-12.5-12.5c-6.903,0-12.5,5.597-12.5,12.5v10.59h-20.5v-10.59
	c0-6.903-5.597-12.5-12.5-12.5s-12.5,5.597-12.5,12.5v10.59H99v-192h314V327.765z"/>
</svg>
