<?xml version="1.0" encoding="utf-8"?>
<!-- Generator: Adobe Illustrator 16.0.0, SVG Export Plug-In . SVG Version: 6.00 Build 0)  -->
<!DOCTYPE svg PUBLIC "-//W3C//DTD SVG 1.1//EN" "http://www.w3.org/Graphics/SVG/1.1/DTD/svg11.dtd">
<svg version="1.1" id="Layer_1" xmlns="http://www.w3.org/2000/svg" xmlns:xlink="http://www.w3.org/1999/xlink" x="0px" y="0px"
	 width="512px" height="512px" viewBox="0 0 512 512" enable-background="new 0 0 512 512" xml:space="preserve">
<path d="M377.916,243.5H164.262l58.659-58.661c4.882-4.882,4.882-12.796,0-17.678c-4.883-4.881-12.797-4.881-17.678,0l-79.998,80
	c-4.882,4.882-4.882,12.796,0,17.678l80,80c2.44,2.44,5.64,3.661,8.839,3.661s6.398-1.221,8.839-3.661
	c4.882-4.882,4.882-12.796,0-17.678L164.262,268.5h213.654c6.903,0,12.5-5.597,12.5-12.5S384.819,243.5,377.916,243.5z"/>
</svg>
