<?xml version="1.0" encoding="utf-8"?>
<!-- Generator: Adobe Illustrator 16.0.0, SVG Export Plug-In . SVG Version: 6.00 Build 0)  -->
<!DOCTYPE svg PUBLIC "-//W3C//DTD SVG 1.1//EN" "http://www.w3.org/Graphics/SVG/1.1/DTD/svg11.dtd">
<svg version="1.1" id="Layer_1" xmlns="http://www.w3.org/2000/svg" xmlns:xlink="http://www.w3.org/1999/xlink" x="0px" y="0px"
	 width="512px" height="512px" viewBox="0 0 512 512" enable-background="new 0 0 512 512" xml:space="preserve">
<g>
	<path d="M256,428.607c-3.478,0-6.798-1.449-9.164-3.998l-147.67-159.16c-0.038-0.041-0.076-0.082-0.113-0.124
		c-17.925-19.846-27.796-46.147-27.796-74.061s9.871-54.215,27.796-74.061l2.244-2.484c18.246-20.201,42.608-31.327,68.599-31.327
		c25.991,0,50.354,11.126,68.601,31.328L256,134.1l17.503-19.379c18.246-20.202,42.608-31.328,68.6-31.328
		c25.991,0,50.353,11.126,68.6,31.329l2.241,2.478c17.928,19.851,27.799,46.152,27.799,74.065s-9.872,54.215-27.796,74.061
		c-0.037,0.042-0.075,0.083-0.113,0.124l-147.671,159.16C262.798,427.158,259.478,428.607,256,428.607z M117.552,248.509
		L256,397.729l138.448-149.221c28.486-31.603,28.467-82.97-0.054-114.549l-2.24-2.478c-13.449-14.891-31.223-23.09-50.051-23.09
		s-36.602,8.199-50.047,23.085l-26.779,29.649c-2.37,2.624-5.741,4.121-9.276,4.121s-6.906-1.497-9.276-4.121l-26.779-29.648
		c-13.446-14.887-31.22-23.086-50.048-23.086s-36.602,8.199-50.047,23.085l-2.244,2.484
		C89.085,165.539,89.066,216.906,117.552,248.509z"/>
</g>
</svg>
