<?xml version="1.0" encoding="utf-8"?>
<!-- Generator: Adobe Illustrator 16.0.0, SVG Export Plug-In . SVG Version: 6.00 Build 0)  -->
<!DOCTYPE svg PUBLIC "-//W3C//DTD SVG 1.1//EN" "http://www.w3.org/Graphics/SVG/1.1/DTD/svg11.dtd">
<svg version="1.1" id="Layer_1" xmlns="http://www.w3.org/2000/svg" xmlns:xlink="http://www.w3.org/1999/xlink" x="0px" y="0px"
	 width="512px" height="512px" viewBox="0 0 512 512" enable-background="new 0 0 512 512" xml:space="preserve">
<g>
	<g>
		<path d="M256,448.5c-9.209,0-18.442-6.437-35.991-38.477c-10.677-19.493-23.208-46.455-35.287-75.92
			c-21.741-53.034-44.972-121.435-44.972-154.354c0-64.101,52.149-116.25,116.25-116.25s116.25,52.149,116.25,116.25
			c0,32.919-23.231,101.319-44.972,154.354c-12.079,29.465-24.61,56.427-35.287,75.92C274.442,442.063,265.209,448.5,256,448.5z
			 M256,88.5c-50.315,0-91.25,40.935-91.25,91.25c0,22.752,15.666,76.525,39.909,136.992c10.956,27.324,22.621,53.232,32.848,72.953
			c9.113,17.572,15.069,26.398,18.493,30.73c3.424-4.332,9.38-13.158,18.493-30.73c10.227-19.721,21.892-45.629,32.848-72.953
			c24.244-60.467,39.909-114.24,39.909-136.992C347.25,129.435,306.315,88.5,256,88.5z"/>
	</g>
	<g>
		<path d="M256,221.964c-26.191,0-47.5-21.309-47.5-47.5s21.309-47.5,47.5-47.5s47.5,21.309,47.5,47.5S282.191,221.964,256,221.964z
			 M256,151.964c-12.407,0-22.5,10.094-22.5,22.5s10.093,22.5,22.5,22.5s22.5-10.094,22.5-22.5S268.407,151.964,256,151.964z"/>
	</g>
</g>
</svg>
