<?xml version="1.0" encoding="utf-8"?>
<!-- Generator: Adobe Illustrator 16.0.0, SVG Export Plug-In . SVG Version: 6.00 Build 0)  -->
<!DOCTYPE svg PUBLIC "-//W3C//DTD SVG 1.1//EN" "http://www.w3.org/Graphics/SVG/1.1/DTD/svg11.dtd">
<svg version="1.1" id="Layer_1" xmlns="http://www.w3.org/2000/svg" xmlns:xlink="http://www.w3.org/1999/xlink" x="0px" y="0px"
	 width="512px" height="512px" viewBox="0 0 512 512" enable-background="new 0 0 512 512" xml:space="preserve">
<g>
	<path d="M393.344,33.992H118.656c-6.903,0-12.5,5.597-12.5,12.5v149.332c0,1.597,0.306,3.179,0.901,4.661l33.101,82.378
		c-10.55,19.315-16.115,41.021-16.115,63.189c0,72.761,59.195,131.957,131.957,131.957s131.957-59.195,131.957-131.957
		c0-22.167-5.565-43.874-16.115-63.189l33.101-82.378c0.596-1.482,0.901-3.064,0.901-4.661V46.492
		C405.844,39.588,400.247,33.992,393.344,33.992z M380.844,58.992v111.88H131.156V58.992H380.844z M354.697,258.478
		c-9.502-10.697-20.717-19.846-33.167-26.983c-19.858-11.383-42.519-17.399-65.53-17.399s-45.671,6.017-65.529,17.399
		c-12.451,7.137-23.666,16.286-33.168,26.983l-25.156-62.606h247.707L354.697,258.478z M256,453.008
		c-58.977,0-106.957-47.98-106.957-106.957c0-19.714,5.407-38.977,15.637-55.707c19.623-32.091,53.762-51.25,91.32-51.25
		s71.697,19.159,91.32,51.25c10.229,16.73,15.637,35.993,15.637,55.707C362.957,405.028,314.977,453.008,256,453.008z"/>
	<path d="M335.765,305.275l-47.372-6.883l-21.184-42.924c-2.105-4.267-6.451-6.968-11.209-6.968s-9.104,2.701-11.209,6.968
		l-21.186,42.924l-47.37,6.883c-4.708,0.684-8.62,3.982-10.091,8.507c-1.47,4.525-0.243,9.493,3.164,12.814l34.278,33.413
		l-8.093,47.178c-0.804,4.689,1.124,9.429,4.973,12.226c3.85,2.797,8.956,3.166,13.164,0.951L256,398.09l42.369,22.275
		c1.829,0.962,3.825,1.436,5.815,1.436c2.591,0,5.171-0.805,7.349-2.387c3.849-2.797,5.776-7.537,4.973-12.226l-8.093-47.178
		l34.278-33.413c3.407-3.321,4.634-8.289,3.164-12.814C344.385,309.258,340.473,305.959,335.765,305.275z M286.258,346.694
		c-2.946,2.872-4.291,7.009-3.596,11.064l4.922,28.692l-25.768-13.546c-1.82-0.958-3.818-1.436-5.816-1.436
		s-3.996,0.479-5.816,1.436l-25.768,13.546l4.922-28.692c0.695-4.055-0.649-8.193-3.596-11.064l-20.847-20.32l28.809-4.186
		c4.071-0.592,7.591-3.148,9.411-6.838L256,289.245l12.883,26.104c1.82,3.689,5.34,6.247,9.411,6.838l28.811,4.186L286.258,346.694z
		"/>
</g>
</svg>
