<?xml version="1.0" encoding="utf-8"?>
<!-- Generator: Adobe Illustrator 16.0.0, SVG Export Plug-In . SVG Version: 6.00 Build 0)  -->
<!DOCTYPE svg PUBLIC "-//W3C//DTD SVG 1.1//EN" "http://www.w3.org/Graphics/SVG/1.1/DTD/svg11.dtd">
<svg version="1.1" id="Layer_1" xmlns="http://www.w3.org/2000/svg" xmlns:xlink="http://www.w3.org/1999/xlink" x="0px" y="0px"
	 width="512px" height="512px" viewBox="0 0 512 512" enable-background="new 0 0 512 512" xml:space="preserve">
<path d="M377.994,217.625c0-6.903-5.597-12.5-12.5-12.5c-6.904,0-12.5,5.597-12.5,12.5c0,55.6-36.895,101.652-84.494,108.597
	v-27.124h0.08c34.463,0,62.5-28.037,62.5-62.5V113.34c0-34.463-28.037-62.5-62.5-62.5h-25.16c-34.463,0-62.5,28.037-62.5,62.5
	v123.258c0,34.463,28.037,62.5,62.5,62.5h0.08v27.124c-47.6-6.944-84.494-52.997-84.494-108.597c0-6.903-5.598-12.5-12.5-12.5
	c-6.903,0-12.5,5.597-12.5,12.5c0,69.514,48.076,126.879,109.494,133.803v97.232c0,6.903,5.597,12.5,12.5,12.5s12.5-5.597,12.5-12.5
	v-97.232C329.918,344.504,377.994,287.139,377.994,217.625z M243.42,75.84h25.16c20.678,0,37.5,16.822,37.5,37.5v14.449H205.92
	V113.34C205.92,92.662,222.742,75.84,243.42,75.84z M205.92,236.598v-83.809h100.16v83.809c0,20.678-16.822,37.5-37.5,37.5h-25.16
	C222.742,274.098,205.92,257.275,205.92,236.598z"/>
</svg>
