<?xml version="1.0" encoding="utf-8"?>
<!-- Generator: Adobe Illustrator 16.0.0, SVG Export Plug-In . SVG Version: 6.00 Build 0)  -->
<!DOCTYPE svg PUBLIC "-//W3C//DTD SVG 1.1//EN" "http://www.w3.org/Graphics/SVG/1.1/DTD/svg11.dtd">
<svg version="1.1" id="Layer_1" xmlns="http://www.w3.org/2000/svg" xmlns:xlink="http://www.w3.org/1999/xlink" x="0px" y="0px"
	 width="512px" height="512px" viewBox="0 0 512 512" enable-background="new 0 0 512 512" xml:space="preserve">
<path d="M364.691,66.5h-218c-6.903,0-12.5,5.597-12.5,12.5v354c0,6.903,5.597,12.5,12.5,12.5h218c6.902,0,12.5-5.597,12.5-12.5V79
	C377.191,72.097,371.594,66.5,364.691,66.5z M159.191,372.573V139.427h193v233.146H159.191z M309.051,91.5v0.765
	c0,6.904,5.597,12.5,12.5,12.5s12.5-5.596,12.5-12.5V91.5h18.141v22.927h-193V91.5H309.051z M159.191,420.5v-22.927h79.914
	c2.736,6.46,9.141,11.004,16.586,11.004s13.85-4.543,16.586-11.004h79.914V420.5H159.191z"/>
</svg>
