<?xml version="1.0" encoding="utf-8"?>
<!-- Generator: Adobe Illustrator 16.0.0, SVG Export Plug-In . SVG Version: 6.00 Build 0)  -->
<!DOCTYPE svg PUBLIC "-//W3C//DTD SVG 1.1//EN" "http://www.w3.org/Graphics/SVG/1.1/DTD/svg11.dtd">
<svg version="1.1" id="Layer_1" xmlns="http://www.w3.org/2000/svg" xmlns:xlink="http://www.w3.org/1999/xlink" x="0px" y="0px"
	 width="512px" height="512px" viewBox="0 0 512 512" enable-background="new 0 0 512 512" xml:space="preserve">
<g>
	<path d="M387.993,63.591H196.914c-3.315,0-6.495,1.317-8.839,3.661l-72.907,72.909c-2.344,2.344-3.661,5.524-3.661,8.839v286.908
		c0,6.903,5.597,12.5,12.5,12.5h263.986c6.903,0,12.5-5.597,12.5-12.5V76.091C400.493,69.188,394.896,63.591,387.993,63.591z
		 M184.414,106.27V136.5h-30.23L184.414,106.27z M375.493,423.409H136.507V161.5h60.407c6.903,0,12.5-5.597,12.5-12.5V88.591
		h166.079V423.409z"/>
	<path d="M188.5,221.32c-6.903,0-12.5,5.596-12.5,12.5s5.597,12.5,12.5,12.5h37c6.903,0,12.5-5.596,12.5-12.5s-5.597-12.5-12.5-12.5
		H188.5z"/>
	<path d="M256.5,246.32h67c6.903,0,12.5-5.596,12.5-12.5s-5.597-12.5-12.5-12.5h-67c-6.903,0-12.5,5.596-12.5,12.5
		S249.597,246.32,256.5,246.32z"/>
	<path d="M188.5,296.32h77c6.903,0,12.5-5.597,12.5-12.5s-5.597-12.5-12.5-12.5h-77c-6.903,0-12.5,5.597-12.5,12.5
		S181.597,296.32,188.5,296.32z"/>
	<path d="M323.5,271.32h-27c-6.903,0-12.5,5.596-12.5,12.5s5.597,12.5,12.5,12.5h27c6.903,0,12.5-5.596,12.5-12.5
		S330.403,271.32,323.5,271.32z"/>
	<path d="M220.5,321.32h-32c-6.903,0-12.5,5.596-12.5,12.5s5.597,12.5,12.5,12.5h32c6.903,0,12.5-5.596,12.5-12.5
		S227.403,321.32,220.5,321.32z"/>
	<path d="M323.5,321.32h-72c-6.903,0-12.5,5.597-12.5,12.5s5.597,12.5,12.5,12.5h72c6.903,0,12.5-5.597,12.5-12.5
		S330.403,321.32,323.5,321.32z"/>
</g>
</svg>
