<?xml version="1.0" encoding="utf-8"?>
<!-- Generator: Adobe Illustrator 16.0.0, SVG Export Plug-In . SVG Version: 6.00 Build 0)  -->
<!DOCTYPE svg PUBLIC "-//W3C//DTD SVG 1.1//EN" "http://www.w3.org/Graphics/SVG/1.1/DTD/svg11.dtd">
<svg version="1.1" id="Layer_1" xmlns="http://www.w3.org/2000/svg" xmlns:xlink="http://www.w3.org/1999/xlink" x="0px" y="0px"
	 width="512px" height="512px" viewBox="0 0 512 512" enable-background="new 0 0 512 512" xml:space="preserve">
<g>
	<path d="M373.461,201.246h-24.539v-50.833c0-36.756-29.903-66.659-66.659-66.659h-52.527c-36.756,0-66.659,29.903-66.659,66.659
		v50.833h-24.539c-6.904,0-12.5,5.596-12.5,12.5v122.095c0,50.953,41.453,92.405,92.406,92.405h75.11
		c50.953,0,92.406-41.453,92.406-92.405V213.746C385.961,206.842,380.365,201.246,373.461,201.246z M188.078,150.413
		c0-22.971,18.688-41.659,41.659-41.659h52.527c22.971,0,41.659,18.688,41.659,41.659v50.833H188.078V150.413z M360.961,335.841
		c0,37.167-30.238,67.405-67.406,67.405h-75.11c-37.167,0-67.406-30.238-67.406-67.405V226.246h209.922V335.841z"/>
	<path d="M243.5,361.746c0,6.904,5.596,12.5,12.5,12.5s12.5-5.596,12.5-12.5v-35.69c1.488-2.057,2.375-4.577,2.375-7.31
		c0-6.903-5.597-12.5-12.5-12.5h-4.75c-6.903,0-12.5,5.597-12.5,12.5c0,2.732,0.887,5.253,2.375,7.31V361.746z"/>
</g>
</svg>
