<?xml version="1.0" encoding="utf-8"?>
<!-- Generator: Adobe Illustrator 16.0.0, SVG Export Plug-In . SVG Version: 6.00 Build 0)  -->
<!DOCTYPE svg PUBLIC "-//W3C//DTD SVG 1.1//EN" "http://www.w3.org/Graphics/SVG/1.1/DTD/svg11.dtd">
<svg version="1.1" id="Layer_1" xmlns="http://www.w3.org/2000/svg" xmlns:xlink="http://www.w3.org/1999/xlink" x="0px" y="0px"
	 width="512px" height="512px" viewBox="0 0 512 512" enable-background="new 0 0 512 512" xml:space="preserve">
<path d="M424.839,174.11l-43.452-43.453c-0.008-0.007-0.014-0.016-0.02-0.023c-0.008-0.007-0.018-0.014-0.023-0.021l-43.453-43.454
	c-2.344-2.344-5.523-3.661-8.839-3.661s-6.494,1.317-8.839,3.661l-210.43,210.427c-1.727,1.726-2.909,3.92-3.404,6.312
	L83.758,413.473c-0.851,4.12,0.429,8.392,3.403,11.366c2.368,2.368,5.558,3.661,8.839,3.661c0.841,0,1.688-0.085,2.527-0.258
	l109.57-22.625c2.392-0.494,4.585-1.677,6.312-3.403l210.43-210.427C429.721,186.907,429.721,178.992,424.839,174.11z
	 M126.176,331.659l54.164,54.164l-68.256,14.093L126.176,331.659z M205.57,375.698l-69.271-69.272l192.753-192.749l25.796,25.797
	L238.21,256.114c-4.882,4.882-4.882,12.796,0,17.678c2.44,2.441,5.64,3.661,8.839,3.661s6.398-1.22,8.839-3.661l116.639-116.64
	l25.796,25.797L205.57,375.698z"/>
</svg>
