<?xml version="1.0" encoding="utf-8"?>
<!-- Generator: Adobe Illustrator 16.0.0, SVG Export Plug-In . SVG Version: 6.00 Build 0)  -->
<!DOCTYPE svg PUBLIC "-//W3C//DTD SVG 1.1//EN" "http://www.w3.org/Graphics/SVG/1.1/DTD/svg11.dtd">
<svg version="1.1" id="Layer_1" xmlns="http://www.w3.org/2000/svg" xmlns:xlink="http://www.w3.org/1999/xlink" x="0px" y="0px"
	 width="512px" height="512px" viewBox="0 0 512 512" enable-background="new 0 0 512 512" xml:space="preserve">
<g>
	<path d="M299.729,256c48.343-53.181,62.551-158.461,63.166-163.191c0.464-3.566-0.63-7.16-3.005-9.862
		c-2.372-2.702-5.794-4.251-9.391-4.251h-189c-3.597,0-7.019,1.549-9.391,4.251c-2.375,2.703-3.469,6.296-3.005,9.862
		c0.615,4.73,14.823,110.01,63.166,163.191c-48.343,53.181-62.551,158.461-63.166,163.191c-0.464,3.566,0.63,7.16,3.005,9.862
		c2.372,2.702,5.794,4.251,9.391,4.251h189c3.597,0,7.019-1.549,9.391-4.251c2.375-2.703,3.469-6.296,3.005-9.862
		C362.28,414.461,348.072,309.181,299.729,256z M176.214,408.304c5.843-31.889,23.525-109.277,62.067-142.882
		c2.723-2.374,4.285-5.81,4.285-9.422s-1.563-7.048-4.285-9.422c-38.545-33.608-56.227-111-62.067-142.882h159.572
		c-5.843,31.889-23.526,109.277-62.067,142.882c-2.723,2.374-4.285,5.81-4.285,9.422s1.563,7.048,4.285,9.422
		c38.541,33.605,56.225,110.994,62.067,142.882H176.214z"/>
	<path d="M256,282.039c-16.228,0-29.653,16.388-42.253,51.573c-7.929,22.141-12.743,43.903-12.944,44.819
		c-0.813,3.698,0.096,7.565,2.468,10.516c2.372,2.95,5.955,4.666,9.741,4.666l85.977-0.002c3.787,0,7.368-1.716,9.741-4.667
		c2.372-2.95,3.28-6.817,2.468-10.515c-0.201-0.916-5.016-22.678-12.944-44.818C285.653,298.426,272.227,282.039,256,282.039z
		 M282.973,368.61l-53.947,0.001c1.816-6.691,4.229-14.931,7.113-23.312c10.205-29.641,17.768-36.568,19.861-37.999
		c2.09,1.428,9.623,8.328,19.793,37.803C278.703,353.536,281.139,361.857,282.973,368.61z"/>
</g>
</svg>
