<?xml version="1.0" encoding="utf-8"?>
<!-- Generator: Adobe Illustrator 16.0.0, SVG Export Plug-In . SVG Version: 6.00 Build 0)  -->
<!DOCTYPE svg PUBLIC "-//W3C//DTD SVG 1.1//EN" "http://www.w3.org/Graphics/SVG/1.1/DTD/svg11.dtd">
<svg version="1.1" id="Layer_1" xmlns="http://www.w3.org/2000/svg" xmlns:xlink="http://www.w3.org/1999/xlink" x="0px" y="0px"
	 width="512px" height="512px" viewBox="0 0 512 512" enable-background="new 0 0 512 512" xml:space="preserve">
<path d="M404.486,286.678c-0.281-47.624-12.478-88.82-35.331-119.218c-26.279-34.956-65.408-53.432-113.155-53.432
	s-86.876,18.476-113.156,53.432c-22.853,30.398-35.049,71.595-35.33,119.218c-5.461,10.501-8.566,22.415-8.566,35.046
	c0,42.043,34.204,76.247,76.246,76.247c6.903,0,12.5-5.596,12.5-12.5V257.979c0-6.904-5.597-12.5-12.5-12.5
	c-14.921,0-28.844,4.325-40.611,11.763c8.432-61.609,43.419-118.213,121.418-118.213s112.986,56.604,121.418,118.213
	c-11.768-7.438-25.691-11.763-40.611-11.763c-6.903,0-12.5,5.596-12.5,12.5v127.493c0,6.904,5.597,12.5,12.5,12.5
	c42.042,0,76.246-34.204,76.246-76.247C413.053,309.093,409.947,297.18,404.486,286.678z M162.693,272.02v99.41
	c-22.236-5.594-38.746-25.757-38.746-49.705C123.947,297.777,140.457,277.614,162.693,272.02z M349.307,371.43v-99.41
	c22.236,5.594,38.746,25.757,38.746,49.705C388.053,345.672,371.543,365.836,349.307,371.43z"/>
</svg>
