<?xml version="1.0" encoding="utf-8"?>
<!-- Generator: Adobe Illustrator 16.0.0, SVG Export Plug-In . SVG Version: 6.00 Build 0)  -->
<!DOCTYPE svg PUBLIC "-//W3C//DTD SVG 1.1//EN" "http://www.w3.org/Graphics/SVG/1.1/DTD/svg11.dtd">
<svg version="1.1" id="Layer_1" xmlns="http://www.w3.org/2000/svg" xmlns:xlink="http://www.w3.org/1999/xlink" x="0px" y="0px"
	 width="512px" height="512px" viewBox="0 0 512 512" enable-background="new 0 0 512 512" xml:space="preserve">
<path d="M412.38,174.518h-132.74l62.796-62.797c4.881-4.882,4.881-12.796,0-17.678c-4.882-4.881-12.796-4.881-17.678,0L256,162.803
	l-90.641-90.644c-4.881-4.882-12.795-4.88-17.678,0c-4.881,4.882-4.881,12.796,0,17.678l84.678,84.681H99.62
	c-6.903,0-12.5,5.597-12.5,12.5v187.552c0,6.903,5.597,12.5,12.5,12.5h104.912v9.869l-50.471,22.656
	c-6.298,2.827-9.112,10.225-6.285,16.522c2.081,4.636,6.638,7.384,11.411,7.384c1.71,0,3.45-0.354,5.112-1.1l55.409-24.872h72.586
	l55.409,24.872c1.663,0.746,3.401,1.1,5.112,1.1c4.772,0,9.33-2.748,11.411-7.384c2.827-6.298,0.013-13.695-6.285-16.522
	l-50.471-22.656v-9.869H412.38c6.903,0,12.5-5.597,12.5-12.5V187.018C424.88,180.114,419.284,174.518,412.38,174.518z
	 M282.469,392.529h-52.938v-5.46h52.938V392.529z M399.88,362.069H112.12V199.518H399.88V362.069z"/>
</svg>
