<?xml version="1.0" encoding="utf-8"?>
<!-- Generator: Adobe Illustrator 16.0.0, SVG Export Plug-In . SVG Version: 6.00 Build 0)  -->
<!DOCTYPE svg PUBLIC "-//W3C//DTD SVG 1.1//EN" "http://www.w3.org/Graphics/SVG/1.1/DTD/svg11.dtd">
<svg version="1.1" id="Layer_1" xmlns="http://www.w3.org/2000/svg" xmlns:xlink="http://www.w3.org/1999/xlink" x="0px" y="0px"
	 width="512px" height="512px" viewBox="0 0 512 512" enable-background="new 0 0 512 512" xml:space="preserve">
<path d="M344.839,205.243l-80-79.998c-4.881-4.881-12.797-4.881-17.678,0l-80,80c-4.882,4.882-4.882,12.796,0,17.678
	c2.44,2.44,5.64,3.661,8.839,3.661s6.398-1.221,8.839-3.661l58.661-58.661v213.654c0,6.903,5.597,12.5,12.5,12.5
	c6.902,0,12.5-5.597,12.5-12.5V164.262l58.661,58.659c4.883,4.881,12.797,4.881,17.678,0
	C349.721,218.039,349.721,210.125,344.839,205.243z"/>
</svg>
