<?xml version="1.0" encoding="utf-8"?>
<!-- Generator: Adobe Illustrator 16.0.0, SVG Export Plug-In . SVG Version: 6.00 Build 0)  -->
<!DOCTYPE svg PUBLIC "-//W3C//DTD SVG 1.1//EN" "http://www.w3.org/Graphics/SVG/1.1/DTD/svg11.dtd">
<svg version="1.1" id="Layer_1" xmlns="http://www.w3.org/2000/svg" xmlns:xlink="http://www.w3.org/1999/xlink" x="0px" y="0px"
	 width="512px" height="512px" viewBox="0 0 512 512" enable-background="new 0 0 512 512" xml:space="preserve">
<g>
	<path d="M256,376.283c-49.708,0-103.206-19.44-154.71-56.219c-38.502-27.494-62.266-54.734-63.259-55.881
		c-4.068-4.697-4.068-11.67,0-16.367c0.993-1.146,24.756-28.387,63.259-55.881c51.505-36.777,105.003-56.219,154.71-56.219
		s103.206,19.441,154.71,56.219c38.502,27.494,62.266,54.734,63.259,55.881c4.068,4.697,4.068,11.67,0,16.367
		c-0.993,1.146-24.756,28.387-63.259,55.881C359.206,356.843,305.708,376.283,256,376.283z M64.618,256
		c9.61,9.799,27.747,27.03,51.694,44.071c32.83,23.362,83.714,51.212,139.688,51.212s106.858-27.85,139.688-51.212
		c23.944-17.038,42.082-34.27,51.694-44.071c-9.61-9.799-27.747-27.03-51.694-44.071c-32.83-23.362-83.714-51.212-139.688-51.212
		s-106.858,27.85-139.688,51.212C92.368,228.968,74.23,246.198,64.618,256z"/>
</g>
<g>
	<path d="M256,333.5c-42.734,0-77.5-34.767-77.5-77.5s34.766-77.5,77.5-77.5c18.794,0,36.924,6.814,51.048,19.188
		c5.193,4.549,5.715,12.446,1.166,17.639c-4.549,5.193-12.447,5.714-17.639,1.166C281.011,208.114,268.732,203.5,256,203.5
		c-28.949,0-52.5,23.552-52.5,52.5s23.551,52.5,52.5,52.5s52.5-23.552,52.5-52.5c0-6.903,5.597-12.5,12.5-12.5s12.5,5.597,12.5,12.5
		C333.5,298.733,298.734,333.5,256,333.5z"/>
</g>
<g>
	<path d="M256,281c-13.785,0-25-11.215-25-25s11.215-25,25-25s25,11.215,25,25S269.785,281,256,281z"/>
</g>
</svg>
