<?xml version="1.0" encoding="utf-8"?>
<!-- Generator: Adobe Illustrator 16.0.0, SVG Export Plug-In . SVG Version: 6.00 Build 0)  -->
<!DOCTYPE svg PUBLIC "-//W3C//DTD SVG 1.1//EN" "http://www.w3.org/Graphics/SVG/1.1/DTD/svg11.dtd">
<svg version="1.1" id="Layer_1" xmlns="http://www.w3.org/2000/svg" xmlns:xlink="http://www.w3.org/1999/xlink" x="0px" y="0px"
	 width="512px" height="512px" viewBox="0 0 512 512" enable-background="new 0 0 512 512" xml:space="preserve">
<g>
	<path d="M416.194,185.962l-26.264-7.037c-6.668-1.785-13.522,2.171-15.31,8.839c-1.786,6.669,2.171,13.522,8.839,15.31
		l26.264,7.037c1.084,0.29,2.172,0.429,3.243,0.429c5.519,0,10.57-3.684,12.066-9.268
		C426.819,194.603,422.862,187.749,416.194,185.962z"/>
	<path d="M308.922,128.539c1.495,5.586,6.546,9.27,12.066,9.27c1.07,0,2.158-0.139,3.241-0.429
		c6.669-1.785,10.627-8.639,8.841-15.308l-7.033-26.264c-1.785-6.669-8.641-10.626-15.308-8.841
		c-6.669,1.785-10.627,8.639-8.841,15.308L308.922,128.539z"/>
	<path d="M400.876,128.801c4.882-4.882,4.882-12.797,0-17.678c-4.883-4.881-12.797-4.881-17.678,0l-19.225,19.226
		c-4.882,4.882-4.882,12.797,0,17.679c2.441,2.439,5.64,3.66,8.839,3.66s6.398-1.221,8.839-3.66L400.876,128.801z"/>
	<path d="M325.51,150.763c-9.543,0-18.515,3.717-25.263,10.465L97.005,364.469c-6.748,6.748-10.464,15.72-10.464,25.263
		c0,9.544,3.716,18.515,10.464,25.263s15.72,10.464,25.263,10.464s18.515-3.716,25.263-10.464l164.851-164.852
		c0.006-0.006,0.013-0.011,0.019-0.017s0.011-0.013,0.017-0.019l38.355-38.355c6.749-6.748,10.466-15.72,10.466-25.264
		c-0.001-9.542-3.717-18.514-10.466-25.262C344.023,154.479,335.053,150.763,325.51,150.763z M129.853,397.316
		c-2.025,2.026-4.72,3.142-7.585,3.142s-5.56-1.115-7.585-3.142c-2.026-2.025-3.142-4.72-3.142-7.585s1.115-5.56,3.142-7.585
		l156.03-156.029l15.17,15.17L129.853,397.316z M333.095,194.074l-29.534,29.535l-15.17-15.17l29.534-29.534
		c2.026-2.026,4.721-3.143,7.585-3.143c2.865,0,5.56,1.116,7.585,3.142c2.026,2.026,3.143,4.72,3.143,7.585
		S335.121,192.048,333.095,194.074z"/>
</g>
</svg>
