<!--
 @swanix/icons - v0.1.1
 https://github.com/swanix/icons
 @license MIT
 -->
<svg xmlns="http://www.w3.org/2000/svg"><symbol id="arrow-left" viewBox="0 0 24 24"><path d="M14.97 6l-2.01-2L5 12l7.96 8 2.01-2L9 12l5.97-6z"/></symbol><symbol id="arrow-right" viewBox="0 0 24 24"><path d="M8 6l2.01-2 7.96 8-7.96 8L8 18l5.97-6L8 6z"/></symbol><symbol id="caret-down" viewBox="0 0 24 24"><path d="M16 10l-4 4.5L8 10h8z"/></symbol><symbol id="caret-up" viewBox="0 0 24 24"><path d="M8 14.5l4-4.5 4 4.5H8z"/></symbol><symbol id="check" viewBox="0 0 24 24"><path fill-rule="evenodd" clip-rule="evenodd" d="M12 3.3a8.7 8.7 0 1 0 0 17.4 8.7 8.7 0 0 0 0-17.4zM4.7 12a7.3 7.3 0 1 1 14.6 0 7.3 7.3 0 0 1-14.6 0zm10.355-3.345l-3.861 5.147-2.316-2.316-1.029 1.028 3.502 3.502 4.867-6.489-1.163-.872z"/></symbol><symbol id="close" viewBox="0 0 24 24"><path fill-rule="evenodd" clip-rule="evenodd" d="M18.827 6.368L17.367 5l-4.954 5.285L7.46 5 6 6.368l5.043 5.379L6 17.126l1.46 1.368 4.954-5.285 4.954 5.285 1.459-1.368-5.043-5.38 5.043-5.378z"/></symbol><symbol id="code" viewBox="0 0 24 24"><path fill-rule="evenodd" clip-rule="evenodd" d="M10.116 7.216l-4.497 4.52 4.498 4.52-.748.744-5.239-5.264L9.37 6.47l.747.745zm3.767 0l4.498 4.52-4.498 4.52.748.744 5.238-5.264-5.238-5.265-.748.745z"/></symbol><symbol id="delete" viewBox="0 0 24 24"><path fill-rule="evenodd" clip-rule="evenodd" d="M16.216 4.856h-1.034c0-.013.003-.027.005-.04.002-.015.004-.03.004-.045 0-.976-.795-1.771-1.771-1.771h-2.255c-.975 0-1.77.795-1.77 1.771 0 .016.001.032.004.048l.004.037H8.368C7.06 4.856 6 5.635 6 6.596v.062h12.585v-.063c0-.96-1.06-1.739-2.369-1.739zm-9.51 12.776V7.572H17.88v10.06A2.368 2.368 0 0 1 15.513 20h-6.44a2.368 2.368 0 0 1-2.368-2.368zm2.622-.057a.55.55 0 0 0 .549-.548v-7.26a.549.549 0 0 0-1.097 0v7.26c0 .302.246.548.548.548zm3.513-.548a.548.548 0 1 1-1.098 0v-7.26a.548.548 0 0 1 1.098 0v7.26zm2.416.548a.549.549 0 0 0 .548-.548v-7.26a.548.548 0 0 0-1.099 0v7.26a.55.55 0 0 0 .55.548zM11.165 3.721c-.579 0-1.05.471-1.05 1.05 0 .02.003.041.006.061l.003.024h4.338c0-.011.002-.023.004-.034a.354.354 0 0 0 .004-.05c0-.58-.471-1.051-1.05-1.051h-2.255z"/></symbol><symbol id="download" viewBox="0 0 24 24"><path fill-rule="evenodd" clip-rule="evenodd" d="M11.25 5.522a.75.75 0 0 1 1.5 0v7.728c0 .04-.003.08-.01.118l2.044-1.552 1.216.872-4 3.04-4-3.04 1.216-.872 2.043 1.552a.759.759 0 0 1-.009-.118V5.522zM4 15h2v3h12v-3h2v5H4v-5z"/></symbol><symbol id="edit" viewBox="0 0 24 24"><path fill-rule="evenodd" clip-rule="evenodd" d="M20 7.73l-3.723-3.722-9.574 9.577 3.723 3.722L20 7.73zM4 19.95l.521-4.186 3.726 3.725-4.247.46z"/></symbol><symbol id="email" viewBox="0 0 24 24"><path fill-rule="evenodd" clip-rule="evenodd" d="M12.002 13.773L4 8.693v7.972c0 .818.673 1.476 1.498 1.476h13c.833 0 1.502-.658 1.502-1.476V8.694l-7.998 5.08zM5.498 5.001c-.772 0-1.408.58-1.489 1.321-.004.051-.009.1-.009.155l8.002 5.076L20 6.477A1.494 1.494 0 0 0 18.497 5H5.498z"/></symbol><symbol id="help" viewBox="0 0 24 24"><path fill-rule="evenodd" clip-rule="evenodd" d="M12 3.3A8.7 8.7 0 0 0 3.3 12a8.7 8.7 0 1 0 17.4 0A8.7 8.7 0 0 0 12 3.3zM4.7 12a7.3 7.3 0 1 1 14.6 0 7.3 7.3 0 0 1-14.6 0zm9.863-.444c-.307.444-.69.816-1.15 1.117-.252.193-.416.388-.494.584-.079.195-.118.463-.118.805h-1.796c.004-.576.09-.998.256-1.266.167-.267.499-.592.997-.975.292-.239.526-.496.701-.772.175-.275.263-.584.263-.925 0-.379-.1-.675-.3-.89-.2-.213-.485-.32-.856-.32-.304 0-.562.09-.774.271-.212.181-.32.447-.324.797H9.214l-.012-.037c-.012-.79.248-1.395.78-1.815.534-.42 1.228-.63 2.084-.63.922 0 1.645.234 2.17.7.524.468.787 1.102.787 1.905 0 .523-.153 1.006-.46 1.45zm-1.75 4.29a.772.772 0 0 1-.771.771h-.272a.772.772 0 1 1 0-1.543h.272c.426 0 .771.346.771.772z"/></symbol><symbol id="home" viewBox="0 0 24 24"><path fill-rule="evenodd" clip-rule="evenodd" d="M3.544 11.633a1 1 0 0 0 1.306 0l7.1-6.132 7.297 6.3a1 1 0 0 0 1.307 0l.446-.386-8.396-7.25a1 1 0 0 0-1.307 0l-8.2 7.082.447.386zm9.209-2.438l2.344 2.035 2.655 2.304a1 1 0 0 1 .344.755V19a1 1 0 0 1-1 1H14.33v-4.996a1 1 0 0 0-1-1h-2.466a1 1 0 0 0-1 1V20H7.096a1 1 0 0 1-1-1v-4.71a1 1 0 0 1 .345-.756l2.655-2.304 2.346-2.035a1 1 0 0 1 1.31 0z"/></symbol><symbol id="info" viewBox="0 0 24 24"><path fill-rule="evenodd" clip-rule="evenodd" d="M4.7 12a7.3 7.3 0 1 1 14.6 0 7.3 7.3 0 0 1-14.6 0zM12 3.3a8.7 8.7 0 1 0 0 17.4 8.7 8.7 0 0 0 0-17.4zm-1 4.71c0 .266.096.498.289.695a.944.944 0 0 0 .7.295.977.977 0 0 0 .712-.295A.946.946 0 0 0 13 8.01c0-.28-.1-.518-.299-.715A.977.977 0 0 0 11.99 7a.944.944 0 0 0-.701.295.984.984 0 0 0-.289.715zm2 8.399c-.016-.805-.027-1.627-.035-2.467-.008-.84-.02-1.662-.036-2.467a.73.73 0 0 0-.388-.36 1.452 1.452 0 0 0-.576-.115c-.22 0-.416.043-.588.129a.784.784 0 0 0-.377.385c.016.805.027 1.627.035 2.467.008.84.02 1.661.036 2.467a.613.613 0 0 0 .353.417c.188.09.392.135.611.135.236 0 .451-.05.647-.148.196-.098.302-.246.318-.443z"/></symbol><symbol id="menu" viewBox="0 0 24 24"><path fill-rule="evenodd" clip-rule="evenodd" d="M4 5h16v2.139H4V5zm0 5.854h16v2.139H4v-2.14zm16 5.853H4v2.14h16v-2.14z"/></symbol><symbol id="minus" viewBox="0 0 24 24"><path d="M4 11h16v2H4z"/></symbol><symbol id="plus" viewBox="0 0 24 24"><path d="M4 13v-2h7V4h2v7h7v2h-7v7h-2v-7H4z"/></symbol><symbol id="search" viewBox="0 0 24 24"><path fill-rule="evenodd" clip-rule="evenodd" d="M15.537 13.168s3.766 3.364 4.408 4.407c.392.637-1.417 2.382-2.12 2.122-1.194-.441-4.347-4.348-4.347-4.348a6.11 6.11 0 0 1-3.317.977A6.161 6.161 0 0 1 4 10.164a6.161 6.161 0 1 1 11.537 3.004zM10.161 6A4.169 4.169 0 0 0 6 10.164a4.168 4.168 0 0 0 4.161 4.162 4.168 4.168 0 0 0 4.165-4.162A4.169 4.169 0 0 0 10.16 6z"/></symbol><symbol id="settings" viewBox="0 0 24 24"><path fill-rule="evenodd" clip-rule="evenodd" d="M20 12.713a1 1 0 0 1-.598.916l-.854.375c-.112.37-.254.723-.427 1.064l.516 1.317a1 1 0 0 1-.224 1.072l-1.02 1.02a1 1 0 0 1-1.071.226l-1.355-.53a6.879 6.879 0 0 1-.918.364l-.38.868a1 1 0 0 1-.916.599h-1.444a1 1 0 0 1-.917-.6l-.369-.846a6.888 6.888 0 0 1-1.004-.39l-1.425.557a1 1 0 0 1-1.072-.224l-1.02-1.02a1 1 0 0 1-.223-1.07l.557-1.427a7.15 7.15 0 0 1-.384-.98l-.854-.375A1 1 0 0 1 4 12.713v-1.445a1 1 0 0 1 .598-.916l.86-.377c.127-.408.293-.803.49-1.175l-.403-1.034a1 1 0 0 1 .225-1.072l1.021-1.02a1 1 0 0 1 1.07-.223l1.087.424a6.79 6.79 0 0 1 1.076-.428l.369-.846A1 1 0 0 1 11.31 4h1.443a1 1 0 0 1 .916.598l.381.869c.367.117.724.264 1.06.436l1.107-.431a1 1 0 0 1 1.07.224l1.02 1.02a1 1 0 0 1 .224 1.071L18.1 8.891c.174.348.325.708.442 1.084l.86.377a1 1 0 0 1 .598.916v1.445zM16 12a4 4 0 1 1-8 0 4 4 0 0 1 8 0z"/></symbol><symbol id="social-dribbble" viewBox="0 0 24 25"><path fill-rule="evenodd" clip-rule="evenodd" d="M12 20.5c-4.412 0-8-3.59-8-8s3.588-8 8-8c4.41 0 8 3.59 8 8s-3.59 8-8 8zm6.746-6.905c-.233-.075-2.115-.635-4.256-.291.893 2.455 1.257 4.456 1.326 4.872a6.847 6.847 0 0 0 2.93-4.58zm-5.535.023a28.52 28.52 0 0 1 1.458 5.182c-.82.35-1.724.544-2.669.543A6.802 6.802 0 0 1 7.805 17.9c.124-.252 1.507-2.925 5.36-4.267l.046-.016zM6.923 17.08c.155-.265 2.03-3.37 5.555-4.51.088-.029.179-.056.269-.08a23.348 23.348 0 0 0-.554-1.16c-3.413 1.02-6.724.978-7.023.972l-.001.053a6.81 6.81 0 0 0 1.754 4.724zm4.705-6.802c-3.197.849-6.012.837-6.317.833a6.857 6.857 0 0 1 3.784-4.785 43.358 43.358 0 0 1 2.533 3.952zm-1.23-4.41a36.33 36.33 0 0 1 2.55 4c2.43-.91 3.459-2.294 3.582-2.47a6.803 6.803 0 0 0-6.132-1.53zm3.075 5.015C16 9.852 17.145 8.384 17.29 8.19a6.8 6.8 0 0 1 1.543 4.256c-.226-.047-2.485-.507-4.759-.22-.04-.1-.082-.2-.125-.3a22.096 22.096 0 0 0-.475-1.042z"/></symbol><symbol id="social-facebook" viewBox="0 0 24 25"><path d="M14.842 13.202l.367-2.844h-2.817V8.542c0-.823.231-1.384 1.411-1.384l1.505-.002V4.613a19.827 19.827 0 0 0-2.194-.113c-2.171 0-3.658 1.326-3.658 3.761v2.097H7v2.844h2.456V20.5h2.936v-7.298h2.45z"/></symbol><symbol id="social-github" viewBox="0 0 24 25"><path d="M12 4.5a8.002 8.002 0 0 0-2.528 15.592c.4.075.546-.173.546-.385 0-.19-.007-.694-.011-1.36-2.226.483-2.695-1.073-2.695-1.073-.365-.925-.889-1.17-.889-1.17-.727-.498.055-.488.055-.488.804.057 1.225.826 1.225.826.714 1.222 1.873.87 2.329.664.072-.517.28-.87.508-1.07-1.778-.2-3.645-.888-3.645-3.952 0-.874.312-1.588.823-2.148-.081-.202-.357-1.015.079-2.118 0 0 .672-.215 2.2.821A7.615 7.615 0 0 1 12 8.37c.68.003 1.364.092 2.004.27 1.526-1.036 2.197-.82 2.197-.82.437 1.102.163 1.914.08 2.117.512.56.822 1.274.822 2.148 0 3.072-1.871 3.748-3.654 3.946.289.247.544.735.544 1.482 0 1.07-.01 1.933-.01 2.195 0 .214.143.462.55.385A8.005 8.005 0 0 0 20 12.502 8 8 0 0 0 12 4.5z"/></symbol><symbol id="social-instagram" viewBox="0 0 24 24"><path fill-rule="evenodd" clip-rule="evenodd" d="M19.87 8.011c-.109-1.051-.511-1.983-1.295-2.73-.822-.786-1.83-1.132-2.934-1.19-1.879-.103-6.346-.168-7.913.087-1.791.292-2.965 1.339-3.461 3.108-.38 1.362-.307 7.636-.082 8.98.303 1.841 1.39 3.02 3.213 3.492 1.262.325 7.465.282 8.857.058 1.841-.299 3.027-1.38 3.505-3.2.366-1.397.237-7.343.11-8.605zm-1.474 7.996c-.213 1.398-1.14 2.262-2.544 2.417-1.291.142-7.057.22-8.252-.116-1.145-.32-1.802-1.106-1.991-2.26-.182-1.1-.227-6.602-.003-8.073.211-1.387 1.138-2.25 2.535-2.407 1.418-.159 6.518-.177 7.876.032 1.396.214 2.259 1.143 2.41 2.55.146 1.313.187 6.446-.03 7.857zM7.9 11.999A4.099 4.099 0 0 1 12 7.893a4.1 4.1 0 0 1 4.102 4.106 4.099 4.099 0 0 1-4.111 4.098A4.1 4.1 0 0 1 7.9 12zm4.073 2.65c-1.448-.004-2.624-1.198-2.624-2.663a2.647 2.647 0 0 1 2.663-2.644 2.65 2.65 0 0 1 2.644 2.662c-.002 1.473-1.194 2.646-2.683 2.644zm4.288-5.954c.533 0 .96-.423.96-.955a.954.954 0 0 0-.95-.964.953.953 0 0 0-.97.964.953.953 0 0 0 .96.955z"/></symbol><symbol id="social-linkedin" viewBox="0 0 24 25"><path fill-rule="evenodd" clip-rule="evenodd" d="M5.17 4.5H18.7c.646 0 1.174.512 1.173 1.145v13.583c0 .632-.527 1.146-1.175 1.146H5.171A1.16 1.16 0 0 1 4 19.228V5.645C4 5.012 4.525 4.5 5.17 4.5zm3.538 13.525v-7.574H6.353v7.574h2.355zM7.53 9.415A1.365 1.365 0 1 1 8.894 8.05c0 .754-.611 1.366-1.364 1.366zm7.643 8.61h2.352v-4.154c0-2.04-.439-3.609-2.823-3.609-1.145 0-1.913.629-2.229 1.224h-.031V10.45h-2.258v7.574h2.352V14.28c0-.988.189-1.946 1.413-1.946 1.209 0 1.224 1.13 1.224 2.008v3.684z"/></symbol><symbol id="social-pinterest" viewBox="0 0 24 25"><path d="M12 4.5a8 8 0 0 0-3.21 15.328c-.023-.56-.005-1.23.137-1.838l1.03-4.36s-.256-.509-.256-1.264c0-1.185.688-2.072 1.544-2.072.727 0 1.078.547 1.078 1.202 0 .73-.467 1.825-.706 2.838-.201.849.425 1.54 1.26 1.54 1.517 0 2.537-1.946 2.537-4.253 0-1.752-1.18-3.065-3.328-3.065-2.426 0-3.938 1.808-3.938 3.83 0 .697.205 1.189.528 1.57.148.174.168.245.114.445-.037.148-.125.501-.163.642-.053.203-.217.276-.4.2-1.118-.456-1.639-1.68-1.639-3.055 0-2.273 1.916-4.999 5.718-4.999 3.053 0 5.065 2.21 5.065 4.585 0 3.137-1.745 5.48-4.318 5.48-.864 0-1.677-.465-1.954-.995 0 0-.466 1.843-.562 2.199-.17.617-.502 1.233-.806 1.713A8 8 0 0 0 20 12.5a8 8 0 0 0-8-8.001z"/></symbol><symbol id="social-twitter" viewBox="0 0 24 25"><path d="M20 7.039a6.569 6.569 0 0 1-1.885.517 3.29 3.29 0 0 0 1.443-1.816 6.541 6.541 0 0 1-2.084.797 3.283 3.283 0 0 0-5.596 2.993A9.317 9.317 0 0 1 5.114 6.1a3.283 3.283 0 0 0 1.016 4.383 3.266 3.266 0 0 1-1.487-.41v.041a3.285 3.285 0 0 0 2.633 3.22 3.29 3.29 0 0 1-1.482.056 3.286 3.286 0 0 0 3.066 2.28A6.585 6.585 0 0 1 4 17.03a9.3 9.3 0 0 0 5.033 1.474c6.037 0 9.339-5.001 9.339-9.34 0-.141-.003-.283-.01-.425A6.726 6.726 0 0 0 20 7.04z"/></symbol><symbol id="social-vimeo" viewBox="0 0 24 25"><path d="M19.992 8.694c-.139 2.999-5.614 10.615-8.785 10.615-.933 0-1.722-.86-2.367-2.583-1.235-4.525-1.783-7.315-2.833-7.315-.119 0-.537.252-1.256.754L4 9.197c2.001-1.76 3.623-3.416 4.696-3.514 1.244-.12 2.009.728 2.294 2.546.37 2.33.902 6.095 1.83 6.095.718 0 2.49-2.918 2.584-3.98.158-1.51-1.083-1.597-2.261-1.11.79-2.56 2.295-3.804 4.52-3.731 1.648.048 2.424 1.113 2.33 3.191"/></symbol><symbol id="social-whatsapp" viewBox="0 0 24 25"><path fill-rule="evenodd" clip-rule="evenodd" d="M4 20.586l.02-.075c.08-.318.152-.598.229-.877l.21-.764c.196-.711.392-1.422.577-2.136a.713.713 0 0 0-.046-.465c-2.455-4.679.076-10.34 5.228-11.55 4.675-1.096 8.88 2.061 9.649 6.283.8 4.403-2.082 8.585-6.45 9.35-1.737.3-3.397.046-4.982-.724a.768.768 0 0 0-.491-.051c-1.065.265-1.95.498-2.62.674-.66.174-1.112.293-1.324.335zm1.859-1.833l.607-.157a85.358 85.358 0 0 0 1.644-.437.664.664 0 0 1 .546.076c1.373.795 2.843 1.09 4.416.836 3.62-.58 6.101-3.968 5.548-7.575-.576-3.741-4.08-6.25-7.786-5.57-4.48.824-6.86 5.819-4.63 9.776.245.438.314.8.146 1.268-.137.389-.238.79-.344 1.213a36.86 36.86 0 0 1-.147.57zm2.507-6.685c1.7 2.951 4.18 4.18 5.738 4.237.754.056 2-.434 1.946-1.793-.007-.156-.1-.2-1.151-.701a264.29 264.29 0 0 1-.594-.284c-.269-.127-.364-.006-.719.446-.088.112-.191.245-.318.399-.111.138-.244.182-.42.113-1.202-.469-2.116-1.271-2.768-2.377-.1-.17-.075-.307.052-.452.406-.466.597-.726.492-1.006a29.682 29.682 0 0 0-.646-1.558c-.043-.096-.133-.229-.22-.241l-.017-.003c-.346-.06-.713-.122-1.007.152-.884.822-.972 2.018-.368 3.068z"/></symbol><symbol id="social-youtube" viewBox="0 0 24 24"><path fill-rule="evenodd" clip-rule="evenodd" d="M5.648 16.886c-.606-.198-1.012-.595-1.23-1.193-.532-1.463-.689-7.58.334-8.785a1.99 1.99 0 0 1 1.339-.71c2.758-.297 11.285-.256 12.268.099.576.207.984.583 1.206 1.16.582 1.51.602 7.013-.076 8.468-.186.395-.485.675-.866.873-1.028.54-11.622.533-12.975.088zm4.383-2.868A6039.45 6039.45 0 0 1 15 11.44c-1.67-.87-3.314-1.729-4.97-2.593v5.17z"/></symbol><symbol id="sync" viewBox="0 0 24 24"><path fill-rule="evenodd" clip-rule="evenodd" d="M19.07 14.774c.21-.541-.146-1.11-.71-1.244-.564-.134-1.12.222-1.357.75a5.588 5.588 0 1 1-.978-6.05c.083.09.176.168.277.232l-2.05 1.735 5.535 1.018-.089-5.626-1.838 1.555a7.687 7.687 0 1 0 1.21 7.63z"/></symbol><symbol id="upload" viewBox="0 0 24 24"><path fill-rule="evenodd" clip-rule="evenodd" d="M12.75 8.019l2.034 1.545L16 8.692l-4-3.04-4 3.04 1.216.872L11.25 8.02v7.231a.75.75 0 0 0 1.5 0V8.019zM4 15h2v3h12v-3h2v5H4v-5z"/></symbol><symbol id="view-grid" viewBox="0 0 24 25"><path fill-rule="evenodd" clip-rule="evenodd" d="M11.155 4.777H4.39v6.764h6.765V4.777zm0 8.459H4.39V20h6.765v-6.764zm1.69 0h6.765V20h-6.764v-6.764zm6.765-8.459h-6.764v6.764h6.764V4.777z"/></symbol></svg>