<?xml version="1.0" encoding="utf-8"?>
<!-- Generator: Adobe Illustrator 16.0.0, SVG Export Plug-In . SVG Version: 6.00 Build 0)  -->
<!DOCTYPE svg PUBLIC "-//W3C//DTD SVG 1.1//EN" "http://www.w3.org/Graphics/SVG/1.1/DTD/svg11.dtd">
<svg version="1.1" id="Layer_1" xmlns="http://www.w3.org/2000/svg" xmlns:xlink="http://www.w3.org/1999/xlink" x="0px" y="0px"
	 width="512px" height="512px" viewBox="0 0 512 512" enable-background="new 0 0 512 512" xml:space="preserve">
<path d="M416.005,439.469L396.411,140.71c-0.431-6.572-5.887-11.682-12.473-11.682h-54.69v-8.041c0-34.462-28.038-62.5-62.5-62.5
	h-21.494c-34.462,0-62.5,28.038-62.5,62.5v8.041h-54.69c-6.586,0-12.042,5.11-12.473,11.682L95.948,440.195
	c-0.227,3.45,0.986,6.839,3.35,9.363s5.666,3.955,9.124,3.955h295.158c0.007,0,0.013,0,0.02,0c6.903,0,12.5-5.597,12.5-12.5
	C416.099,440.49,416.067,439.975,416.005,439.469z M207.753,120.987c0-20.678,16.822-37.5,37.5-37.5h21.494
	c20.678,0,37.5,16.822,37.5,37.5v8.041h-96.494V120.987z M121.768,428.513l18.002-274.484h42.983v11.154
	c-8.895,4.56-15,13.818-15,24.482c0,15.164,12.336,27.5,27.5,27.5s27.5-12.336,27.5-27.5c0-10.664-6.105-19.922-15-24.482v-11.154
	h96.494v11.154c-8.895,4.56-15,13.818-15,24.482c0,15.164,12.336,27.5,27.5,27.5s27.5-12.336,27.5-27.5
	c0-10.664-6.105-19.922-15-24.482v-11.154h42.983l18.002,274.484H121.768z"/>
</svg>
