<?xml version="1.0" encoding="utf-8"?>
<!-- Generator: Adobe Illustrator 16.0.0, SVG Export Plug-In . SVG Version: 6.00 Build 0)  -->
<!DOCTYPE svg PUBLIC "-//W3C//DTD SVG 1.1//EN" "http://www.w3.org/Graphics/SVG/1.1/DTD/svg11.dtd">
<svg version="1.1" id="Layer_1" xmlns="http://www.w3.org/2000/svg" xmlns:xlink="http://www.w3.org/1999/xlink" x="0px" y="0px"
	 width="512px" height="512px" viewBox="0 0 512 512" enable-background="new 0 0 512 512" xml:space="preserve">
<g>
	<path d="M390.517,187.588h-19.373c-0.475-22.646-3.228-42.759-17.149-59.082c-12.265-14.381-31.558-23.295-59.505-27.249
		c-3.753-6.281-10.886-10.535-19.057-10.535h-38.865c-8.17,0-15.304,4.254-19.057,10.535c-27.947,3.954-47.24,12.868-59.505,27.249
		c-13.921,16.323-16.674,36.436-17.149,59.082h-19.373c-26.191,0-47.5,21.309-47.5,47.5c0,22.229,15.348,40.94,36.003,46.094v77.597
		c0,34.463,28.037,62.5,62.5,62.5h167.026c34.463,0,62.5-28.037,62.5-62.5v-77.597c20.655-5.153,36.003-23.865,36.003-46.094
		C438.017,208.896,416.708,187.588,390.517,187.588z M177.027,144.729c8.145-9.55,22.702-15.759,44.12-18.758
		c3.957,3.719,9.408,6.021,15.42,6.021h38.865c6.012,0,11.463-2.302,15.42-6.021c21.418,2.999,35.976,9.208,44.12,18.758
		c8.833,10.355,10.774,24.979,11.164,42.859H165.863C166.253,169.708,168.195,155.084,177.027,144.729z M390.517,257.588h-1.206
		c-3.504,0-6.717,1.471-9.085,4.054s-3.238,6.093-3.238,9.531l0.026,87.605c0,20.678-16.822,37.5-37.5,37.5H172.487
		c-20.678,0-37.5-16.822-37.5-37.5l-0.006-87.605c0-3.657-0.871-6.948-3.238-9.531s-5.549-4.054-9.053-4.054h-1.206
		c-12.407,0-22.5-10.094-22.5-22.5s10.093-22.5,22.5-22.5h269.033c12.407,0,22.5,10.094,22.5,22.5S402.923,257.588,390.517,257.588z
		"/>
	<path d="M186,281.148c-6.904,0-12.5,5.597-12.5,12.5v54c0,6.903,5.596,12.5,12.5,12.5s12.5-5.597,12.5-12.5v-54
		C198.5,286.745,192.904,281.148,186,281.148z"/>
	<path d="M256,281.148c-6.904,0-12.5,5.597-12.5,12.5v54c0,6.903,5.596,12.5,12.5,12.5s12.5-5.597,12.5-12.5v-54
		C268.5,286.745,262.904,281.148,256,281.148z"/>
	<path d="M326,281.148c-6.904,0-12.5,5.597-12.5,12.5v54c0,6.903,5.596,12.5,12.5,12.5s12.5-5.597,12.5-12.5v-54
		C338.5,286.745,332.904,281.148,326,281.148z"/>
</g>
</svg>
