<?xml version="1.0" encoding="utf-8"?>
<!-- Generator: Adobe Illustrator 16.0.0, SVG Export Plug-In . SVG Version: 6.00 Build 0)  -->
<!DOCTYPE svg PUBLIC "-//W3C//DTD SVG 1.1//EN" "http://www.w3.org/Graphics/SVG/1.1/DTD/svg11.dtd">
<svg version="1.1" id="Layer_1" xmlns="http://www.w3.org/2000/svg" xmlns:xlink="http://www.w3.org/1999/xlink" x="0px" y="0px"
	 width="512px" height="512px" viewBox="0 0 512 512" enable-background="new 0 0 512 512" xml:space="preserve">
<path d="M410.741,148.421H333.43v-13.834c0-16.314-13.272-29.587-29.586-29.587h-95.688c-16.313,0-29.586,13.272-29.586,29.587
	v13.834h-77.312c-15.785,0-28.627,12.841-28.627,28.625v201.328c0,15.784,12.842,28.626,28.627,28.626h309.482
	c15.785,0,28.627-12.842,28.627-28.626V177.046C439.368,161.263,426.526,148.421,410.741,148.421z M203.57,134.587
	c0-2.529,2.058-4.587,4.586-4.587h95.688c2.528,0,4.586,2.058,4.586,4.587v13.834H203.57V134.587z M101.259,173.421h309.482
	c2,0,3.627,1.626,3.627,3.625v65.598c-38.738,14.37-97.169,22.858-158.474,22.858c-61.17,0-119.521-8.459-158.263-22.781v-65.675
	C97.632,175.047,99.259,173.421,101.259,173.421z M410.741,382H101.259c-2,0-3.627-1.626-3.627-3.626V269.207
	c35.458,11.697,82.077,19.008,132.882,20.84c-0.003,0.145-0.021,0.285-0.021,0.431v5.513c0,10.335,8.408,18.743,18.744,18.743
	h13.527c10.336,0,18.744-8.408,18.744-18.743v-5.513c0-0.147-0.019-0.291-0.022-0.437c50.837-1.848,97.45-9.18,132.883-20.901
	v109.235C414.368,380.374,412.741,382,410.741,382z"/>
</svg>
