<?xml version="1.0" encoding="utf-8"?>
<!-- Generator: Adobe Illustrator 16.0.0, SVG Export Plug-In . SVG Version: 6.00 Build 0)  -->
<!DOCTYPE svg PUBLIC "-//W3C//DTD SVG 1.1//EN" "http://www.w3.org/Graphics/SVG/1.1/DTD/svg11.dtd">
<svg version="1.1" id="Layer_1" xmlns="http://www.w3.org/2000/svg" xmlns:xlink="http://www.w3.org/1999/xlink" x="0px" y="0px"
	 width="512px" height="512px" viewBox="0 0 512 512" enable-background="new 0 0 512 512" xml:space="preserve">
<g>
	<path d="M428.019,65.691H403.5v-6.817c0-6.903-5.596-12.5-12.5-12.5s-12.5,5.597-12.5,12.5v6.817h-65v-6.817
		c0-6.903-5.596-12.5-12.5-12.5s-12.5,5.597-12.5,12.5v6.817h-65v-6.817c0-6.903-5.596-12.5-12.5-12.5s-12.5,5.597-12.5,12.5v6.817
		h-65v-6.817c0-6.903-5.596-12.5-12.5-12.5s-12.5,5.597-12.5,12.5v6.817H83.981c-17.92,0-32.5,14.579-32.5,32.5v47.272
		c0,13.495,8.268,25.091,20.003,29.998v257.664c0,17.921,14.58,32.5,32.5,32.5h304.031c17.92,0,32.5-14.579,32.5-32.5V175.462
		c11.735-4.907,20.003-16.503,20.003-29.998V98.191C460.519,80.271,445.939,65.691,428.019,65.691z M76.481,98.191
		c0-4.136,3.364-7.5,7.5-7.5H108.5v5.682c0,6.904,5.596,12.5,12.5,12.5s12.5-5.596,12.5-12.5v-5.682h65v5.682
		c0,6.904,5.596,12.5,12.5,12.5s12.5-5.596,12.5-12.5v-5.682h65v5.682c0,6.904,5.596,12.5,12.5,12.5s12.5-5.596,12.5-12.5v-5.682h65
		v5.682c0,6.904,5.596,12.5,12.5,12.5s12.5-5.596,12.5-12.5v-5.682h24.519c4.136,0,7.5,3.364,7.5,7.5v47.272
		c0,4.136-3.364,7.5-7.5,7.5H83.981c-4.136,0-7.5-3.364-7.5-7.5V98.191z M408.016,440.626H103.984c-4.136,0-7.5-3.364-7.5-7.5
		V177.964h319.031v255.162C415.516,437.262,412.151,440.626,408.016,440.626z"/>
	<path d="M298.193,246.209c6.904,0,12.5-5.597,12.5-12.5s-5.596-12.5-12.5-12.5h-84.386c-6.904,0-12.5,5.597-12.5,12.5v61.578
		c0,6.903,5.596,12.5,12.5,12.5h71.886v43.422h-71.886c-6.904,0-12.5,5.597-12.5,12.5s5.596,12.5,12.5,12.5h84.386
		c6.904,0,12.5-5.597,12.5-12.5v-68.422c0-6.903-5.596-12.5-12.5-12.5h-71.886v-36.578H298.193z"/>
</g>
</svg>
