<?xml version="1.0" encoding="utf-8"?>
<!-- Generator: Adobe Illustrator 16.0.0, SVG Export Plug-In . SVG Version: 6.00 Build 0)  -->
<!DOCTYPE svg PUBLIC "-//W3C//DTD SVG 1.1//EN" "http://www.w3.org/Graphics/SVG/1.1/DTD/svg11.dtd">
<svg version="1.1" id="Layer_1" xmlns="http://www.w3.org/2000/svg" xmlns:xlink="http://www.w3.org/1999/xlink" x="0px" y="0px"
	 width="512px" height="512px" viewBox="0 0 512 512" enable-background="new 0 0 512 512" xml:space="preserve">
<g>
	<path d="M443.5,139.906c0-32.001-8.288-54.097-25.338-67.551c-17.097-13.49-39.671-15.221-57.428-15.221H151.268
		c-17.757,0-40.332,1.73-57.43,15.222c-17.051,13.454-25.339,35.55-25.338,67.55c0,30.827,15.645,46.365,28.769,53.971
		c6.401,3.709,13.323,6.186,20.142,7.826c-17.013,16.604-27.185,39.674-27.185,64.682v98.113c0,49.829,40.538,90.367,90.367,90.367
		h150.814c49.829,0,90.367-40.538,90.367-90.367v-98.113c0-25.008-10.269-48.08-27.24-64.67c6.837-1.64,13.779-4.119,20.197-7.838
		C427.855,186.271,443.5,170.734,443.5,139.906z M396.774,266.385v98.113c0,36.044-29.323,65.367-65.367,65.367H180.593
		c-36.044,0-65.367-29.323-65.367-65.367v-98.113c0-28.44,18.301-53.009,45.187-62.195c22.883-7.818,34.099-21.988,43.348-37.93
		c9.408-16.215,15.752-26.152,27.146-26.152l50.19-0.002c11.395,0,17.001,10.39,27.146,26.153
		c20.72,32.195,39.472,36.807,39.614,36.844C376.658,210.566,396.774,236.589,396.774,266.385z M402.196,172.246
		c-10.554,6.116-24.263,7.4-33.904,7.4c-8.743,0-15.099-1.061-15.137-1.067c-0.148-0.025-0.298-0.049-0.447-0.069
		c-8.567-1.171-14.346-10.148-22.843-24.796c-9.979-17.201-22.397-38.608-48.77-38.608l-50.193,0.002
		c-26.367,0-38.787,21.406-48.767,38.605c-8.498,14.648-14.277,23.627-22.846,24.799c-0.133,0.019-0.291,0.043-0.423,0.065
		c-0.063,0.011-6.416,1.07-15.157,1.07c-33.317,0-50.21-13.371-50.21-39.741c-0.001-23.846,5.175-39.521,15.823-47.924
		c8.632-6.811,21.567-9.848,41.944-9.848h209.467c37.464,0,57.766,9.207,57.766,57.771
		C418.5,155.311,413.167,165.889,402.196,172.246z"/>
	<path d="M256,234.85c-45.123,0-81.834,36.712-81.834,81.836c0,45.121,36.711,81.83,81.834,81.83s81.834-36.709,81.834-81.83
		C337.834,271.562,301.123,234.85,256,234.85z M256,373.516c-31.338,0-56.834-25.494-56.834-56.83
		c0-31.34,25.496-56.836,56.834-56.836s56.834,25.496,56.834,56.836C312.834,348.021,287.338,373.516,256,373.516z"/>
</g>
</svg>
