<?xml version="1.0" encoding="utf-8"?>
<!-- Generator: Adobe Illustrator 16.0.0, SVG Export Plug-In . SVG Version: 6.00 Build 0)  -->
<!DOCTYPE svg PUBLIC "-//W3C//DTD SVG 1.1//EN" "http://www.w3.org/Graphics/SVG/1.1/DTD/svg11.dtd">
<svg version="1.1" id="Layer_1" xmlns="http://www.w3.org/2000/svg" xmlns:xlink="http://www.w3.org/1999/xlink" x="0px" y="0px"
	 width="512px" height="512px" viewBox="0 0 512 512" enable-background="new 0 0 512 512" xml:space="preserve">
<path d="M422.357,236.751c-2.852-2.374-6.611-3.359-10.263-2.687l-43.302,7.977v-27.225c0-6.904-5.597-12.5-12.5-12.5h-7.586
	c15.98-14.406,26.047-35.254,26.047-58.413c0-43.37-35.284-78.654-78.653-78.654c-27.735,0-52.146,14.443-66.153,36.19
	c-14.008-21.747-38.417-36.19-66.152-36.19c-43.37,0-78.654,35.284-78.654,78.654c0,23.159,10.066,44.006,26.047,58.413h-7.586
	c-6.903,0-12.5,5.596-12.5,12.5v149.449c0,6.904,5.597,12.5,12.5,12.5h97.5l-48.645,48.645c-4.882,4.882-4.882,12.796,0,17.678
	c4.883,4.882,12.797,4.881,17.678,0l59.813-59.814l59.813,59.814c2.441,2.441,5.64,3.661,8.839,3.661
	c3.198,0,6.398-1.221,8.839-3.661c4.882-4.881,4.882-12.796,0-17.678l-48.645-48.645h97.499c6.903,0,12.5-5.596,12.5-12.5v-27.225
	l43.302,7.978c0.753,0.139,1.511,0.207,2.265,0.207c2.898,0,5.734-1.009,7.998-2.894c2.853-2.375,4.502-5.895,4.502-9.606v-86.369
	C426.859,242.646,425.21,239.126,422.357,236.751z M296.101,90.25c29.585,0,53.653,24.069,53.653,53.654
	c0,29.584-24.068,53.653-53.653,53.653s-53.653-24.068-53.653-53.653C242.447,114.319,266.516,90.25,296.101,90.25z
	 M229.947,186.367c3.801,5.9,8.354,11.269,13.547,15.95h-27.093C221.594,197.636,226.146,192.267,229.947,186.367z M110.141,143.904
	c0-29.585,24.069-53.654,53.654-53.654c29.584,0,53.652,24.069,53.652,53.654c0,29.584-24.068,53.653-53.652,53.653
	C134.21,197.557,110.141,173.489,110.141,143.904z M343.793,351.766H116.102V227.317h227.691V351.766z M401.859,317.713
	l-33.066-6.092v-44.158l33.066-6.092V317.713z"/>
</svg>
