<?xml version="1.0" encoding="utf-8"?>
<!-- Generator: Adobe Illustrator 16.0.0, SVG Export Plug-In . SVG Version: 6.00 Build 0)  -->
<!DOCTYPE svg PUBLIC "-//W3C//DTD SVG 1.1//EN" "http://www.w3.org/Graphics/SVG/1.1/DTD/svg11.dtd">
<svg version="1.1" id="Layer_1" xmlns="http://www.w3.org/2000/svg" xmlns:xlink="http://www.w3.org/1999/xlink" x="0px" y="0px"
	 width="512px" height="512px" viewBox="0 0 512 512" enable-background="new 0 0 512 512" xml:space="preserve">
<g>
	<path d="M360.426,388.5H151.574c-51.004,0-92.499-41.495-92.499-92.499c0-34.445,18.917-65.593,48.864-81.584
		c0.849-50.276,42.01-90.917,92.483-90.917c29.681,0,57.638,14.46,74.925,38.258c4.199-0.578,8.445-0.87,12.698-0.87
		c31.842,0,61.089,16.215,78.01,42.78c48.394,2.918,86.869,43.216,86.869,92.333C452.925,347.005,411.43,388.5,360.426,388.5z
		 M200.423,148.5c-37.218,0-67.497,30.28-67.497,67.5c0,1.759,0.066,3.523,0.198,5.244c0.409,5.369-2.664,10.397-7.629,12.479
		c-25.162,10.553-41.42,34.999-41.42,62.278c0,37.219,30.28,67.499,67.499,67.499h208.852c37.219,0,67.499-30.28,67.499-67.499
		c0-37.221-30.28-67.502-67.499-67.502c-0.457,0-0.91,0.01-1.365,0.02c-4.748,0.093-9.105-2.473-11.317-6.65
		c-11.745-22.193-34.618-35.979-59.697-35.979c-5.297,0-10.575,0.617-15.688,1.834c-5.347,1.27-10.894-1.093-13.675-5.831
		C246.591,161.295,224.267,148.5,200.423,148.5z"/>
</g>
</svg>
