<?xml version="1.0" encoding="utf-8"?>
<!-- Generator: Adobe Illustrator 16.0.0, SVG Export Plug-In . SVG Version: 6.00 Build 0)  -->
<!DOCTYPE svg PUBLIC "-//W3C//DTD SVG 1.1//EN" "http://www.w3.org/Graphics/SVG/1.1/DTD/svg11.dtd">
<svg version="1.1" id="Layer_1" xmlns="http://www.w3.org/2000/svg" xmlns:xlink="http://www.w3.org/1999/xlink" x="0px" y="0px"
	 width="512px" height="512px" viewBox="0 0 512 512" enable-background="new 0 0 512 512" xml:space="preserve">
<g>
	<path d="M136,349.15c-6.904,0-12.5,5.597-12.5,12.5v28.699c0,6.903,5.596,12.5,12.5,12.5c6.903,0,12.5-5.597,12.5-12.5V361.65
		C148.5,354.747,142.903,349.15,136,349.15z"/>
	<path d="M196,289.15c-6.903,0-12.5,5.597-12.5,12.5v88.699c0,6.903,5.597,12.5,12.5,12.5s12.5-5.597,12.5-12.5V301.65
		C208.5,294.747,202.903,289.15,196,289.15z"/>
	<path d="M256,229.15c-6.903,0-12.5,5.597-12.5,12.5V390.35c0,6.903,5.597,12.5,12.5,12.5s12.5-5.597,12.5-12.5V241.65
		C268.5,234.747,262.903,229.15,256,229.15z"/>
	<path d="M316,169.15c-6.903,0-12.5,5.597-12.5,12.5V390.35c0,6.903,5.597,12.5,12.5,12.5s12.5-5.597,12.5-12.5V181.65
		C328.5,174.747,322.903,169.15,316,169.15z"/>
	<path d="M376,109.15c-6.903,0-12.5,5.597-12.5,12.5V390.35c0,6.903,5.597,12.5,12.5,12.5s12.5-5.597,12.5-12.5V121.65
		C388.5,114.747,382.903,109.15,376,109.15z"/>
</g>
</svg>
