<?xml version="1.0" encoding="utf-8"?>
<!-- Generator: Adobe Illustrator 16.0.0, SVG Export Plug-In . SVG Version: 6.00 Build 0)  -->
<!DOCTYPE svg PUBLIC "-//W3C//DTD SVG 1.1//EN" "http://www.w3.org/Graphics/SVG/1.1/DTD/svg11.dtd">
<svg version="1.1" id="Layer_1" xmlns="http://www.w3.org/2000/svg" xmlns:xlink="http://www.w3.org/1999/xlink" x="0px" y="0px"
	 width="512px" height="512px" viewBox="0 0 512 512" enable-background="new 0 0 512 512" xml:space="preserve">
<path d="M431,352.594h-53.406v-200.51l42.91-42.91c4.881-4.882,4.881-12.796,0-17.678c-4.881-4.881-12.797-4.881-17.678,0
	l-42.91,42.91h-200.51V81c0-6.903-5.597-12.5-12.5-12.5s-12.5,5.597-12.5,12.5v53.406H81c-6.903,0-12.5,5.597-12.5,12.5
	s5.597,12.5,12.5,12.5h53.406v205.688c0,6.903,5.597,12.5,12.5,12.5h205.688V431c0,6.903,5.596,12.5,12.5,12.5
	c6.903,0,12.5-5.597,12.5-12.5v-53.406H431c6.902,0,12.5-5.597,12.5-12.5S437.902,352.594,431,352.594z M334.916,159.406
	l-175.51,175.51v-175.51H334.916z M177.084,352.594l175.51-175.51v175.51H177.084z"/>
</svg>
