<?xml version="1.0" encoding="utf-8"?>
<!-- Generator: Adobe Illustrator 16.0.0, SVG Export Plug-In . SVG Version: 6.00 Build 0)  -->
<!DOCTYPE svg PUBLIC "-//W3C//DTD SVG 1.1//EN" "http://www.w3.org/Graphics/SVG/1.1/DTD/svg11.dtd">
<svg version="1.1" id="Layer_1" xmlns="http://www.w3.org/2000/svg" xmlns:xlink="http://www.w3.org/1999/xlink" x="0px" y="0px"
	 width="512px" height="512px" viewBox="0 0 512 512" enable-background="new 0 0 512 512" xml:space="preserve">
<g>
	<g>
		<g>
			<path d="M230.453,136c7.732,0.001,15.432,3.183,20.973,9.42c10.277,11.576,9.232,29.297-2.344,39.57l-11.172,9.928h126.492
				c15.486,0,28.035,12.546,28.035,28.033c0,15.477-12.549,28.033-28.035,28.033h-65.576c2.484,4.188,3.934,9.051,3.934,14.271
				c0,11.892-7.416,22.037-17.881,26.109c2.791,4.359,4.428,9.521,4.428,15.079c0,13.702-9.824,25.089-22.809,27.534
				c2.369,4.117,3.748,8.876,3.748,13.963c0,15.477-12.555,28.033-28.035,28.033L173.492,376c-29.787,0-53.93-26.974-53.93-60.242
				v-60.223c0-18.03,11.393-39.008,23.428-51.304l68.855-61.155C217.186,138.332,223.83,136,230.453,136 M230.455,111L230.455,111
				c-12.99-0.001-25.496,4.753-35.213,13.387l-68.854,61.152c-0.436,0.387-0.857,0.789-1.265,1.205
				c-8.083,8.258-15.499,18.961-20.884,30.139c-6.332,13.143-9.678,26.509-9.678,38.652v60.223c0,22.252,7.873,43.302,22.168,59.271
				C131.723,391.776,151.881,401,173.492,401l68.729-0.026c29.234,0,53.025-23.79,53.025-53.033c0-0.258-0.002-0.516-0.006-0.773
				c11.746-9.812,19.066-24.55,19.066-40.724c0-1.871-0.099-3.732-0.295-5.58c1.516-1.672,2.93-3.445,4.234-5.316
				c4.146-5.941,6.99-12.574,8.428-19.563h37.729c29.244,0,53.035-23.791,53.035-53.033s-23.791-53.033-53.035-53.033h-81.229
				c0.101-0.91,0.178-1.827,0.232-2.748c0.837-14.138-3.882-27.757-13.284-38.348C260.059,117.495,245.604,111.002,230.455,111
				L230.455,111L230.455,111z"/>
		</g>
	</g>
</g>
</svg>
