<?xml version="1.0" encoding="utf-8"?>
<!-- Generator: Adobe Illustrator 16.0.0, SVG Export Plug-In . SVG Version: 6.00 Build 0)  -->
<!DOCTYPE svg PUBLIC "-//W3C//DTD SVG 1.1//EN" "http://www.w3.org/Graphics/SVG/1.1/DTD/svg11.dtd">
<svg version="1.1" id="Layer_1" xmlns="http://www.w3.org/2000/svg" xmlns:xlink="http://www.w3.org/1999/xlink" x="0px" y="0px"
	 width="512px" height="512px" viewBox="0 0 512 512" enable-background="new 0 0 512 512" xml:space="preserve">
<g>
	<path d="M371.742,84.988H140.258c-34.463,0-62.5,28.037-62.5,62.5v142.78c0,34.463,28.037,62.5,62.5,62.5l147.443,0.001
		l70.581,70.581c2.392,2.392,5.588,3.661,8.842,3.661c1.61,0,3.234-0.312,4.78-0.952c4.671-1.935,7.717-6.492,7.717-11.548v-62.237
		c30.759-3.885,54.621-30.211,54.621-62.006v-142.78C434.242,113.025,406.205,84.988,371.742,84.988z M409.242,290.269
		c0,20.678-16.822,37.5-37.5,37.5h-4.621c-6.903,0-12.5,5.597-12.5,12.5v44.064l-52.903-52.903
		c-2.344-2.345-5.523-3.661-8.839-3.661H140.258c-20.678,0-37.5-16.822-37.5-37.5v-142.78c0-20.678,16.822-37.5,37.5-37.5h231.484
		c20.678,0,37.5,16.822,37.5,37.5V290.269z"/>
	<path d="M348,173.5H164c-6.903,0-12.5,5.596-12.5,12.5c0,6.903,5.597,12.5,12.5,12.5h184c6.903,0,12.5-5.597,12.5-12.5
		C360.5,179.096,354.903,173.5,348,173.5z"/>
	<path d="M348,243.5H164c-6.903,0-12.5,5.596-12.5,12.5c0,6.903,5.597,12.5,12.5,12.5h184c6.903,0,12.5-5.597,12.5-12.5
		C360.5,249.096,354.903,243.5,348,243.5z"/>
</g>
</svg>
