<?xml version="1.0" encoding="utf-8"?>
<!-- Generator: Adobe Illustrator 16.0.0, SVG Export Plug-In . SVG Version: 6.00 Build 0)  -->
<!DOCTYPE svg PUBLIC "-//W3C//DTD SVG 1.1//EN" "http://www.w3.org/Graphics/SVG/1.1/DTD/svg11.dtd">
<svg version="1.1" id="Layer_1" xmlns="http://www.w3.org/2000/svg" xmlns:xlink="http://www.w3.org/1999/xlink" x="0px" y="0px"
	 width="512px" height="512px" viewBox="0 0 512 512" enable-background="new 0 0 512 512" xml:space="preserve">
<g>
	<path d="M298.979,87.879c-4.203-2.13-9.245-1.715-13.043,1.071L149.57,188.99c-2.183-1.861-5.008-2.99-8.101-2.99H94.861
		c-6.903,0-12.5,5.597-12.5,12.5v115c0,6.903,5.597,12.5,12.5,12.5h46.607c3.094,0,5.919-1.13,8.102-2.991L285.938,423.05
		c2.186,1.604,4.783,2.421,7.395,2.421c1.928,0,3.864-0.445,5.648-1.35c4.202-2.129,6.851-6.439,6.851-11.15L305.83,99.029
		C305.83,94.318,303.182,90.008,298.979,87.879z M107.361,211h21.607v90h-21.607V211z M153.969,295.229v-78.458l126.861-93.068
		l0.002,264.596L153.969,295.229z"/>
	<path d="M389.356,256l36.621-36.621c4.881-4.882,4.881-12.796,0-17.678c-4.882-4.881-12.796-4.881-17.678,0l-36.621,36.621
		l-36.621-36.621c-4.882-4.881-12.796-4.881-17.678,0c-4.881,4.882-4.881,12.796,0,17.678L354.001,256l-36.621,36.621
		c-4.881,4.882-4.881,12.796,0,17.678c2.441,2.44,5.64,3.661,8.839,3.661s6.397-1.221,8.839-3.661l36.621-36.621l36.621,36.621
		c2.44,2.44,5.64,3.661,8.839,3.661s6.398-1.221,8.839-3.661c4.881-4.882,4.881-12.796,0-17.678L389.356,256z"/>
</g>
</svg>
