<?xml version="1.0" encoding="utf-8"?>
<!-- Generator: Adobe Illustrator 16.0.0, SVG Export Plug-In . SVG Version: 6.00 Build 0)  -->
<!DOCTYPE svg PUBLIC "-//W3C//DTD SVG 1.1//EN" "http://www.w3.org/Graphics/SVG/1.1/DTD/svg11.dtd">
<svg version="1.1" id="Layer_1" xmlns="http://www.w3.org/2000/svg" xmlns:xlink="http://www.w3.org/1999/xlink" x="0px" y="0px"
	 width="512px" height="512px" viewBox="0 0 512 512" enable-background="new 0 0 512 512" xml:space="preserve">
<g>
	<path d="M162.303,429.453c-32.118,0-58.248-26.129-58.248-58.247c0-32.118,26.13-58.248,58.248-58.248
		c6.902,0,12.5,5.596,12.5,12.5c0,6.903-5.598,12.5-12.5,12.5c-18.333,0-33.248,14.915-33.248,33.248
		c0,18.333,14.915,33.247,33.248,33.247c18.332,0,33.246-14.915,33.246-33.247l-0.045-234.678
		c-0.001-5.864,4.074-10.94,9.799-12.207l187.441-41.479c3.699-0.819,7.578,0.086,10.533,2.462c2.955,2.375,4.672,5.965,4.668,9.757
		l-0.254,227.333c0,32.104-26.129,58.233-58.246,58.233c-32.119,0-58.248-26.129-58.248-58.247
		c0-32.118,26.129-58.248,58.248-58.248c6.903,0,12.5,5.597,12.5,12.5c0,6.904-5.597,12.5-12.5,12.5
		c-18.333,0-33.248,14.915-33.248,33.248c0,18.333,14.915,33.247,33.248,33.247c18.332,0,33.246-14.915,33.246-33.247l0.236-211.761
		l-162.422,35.942l0.043,224.643C220.549,403.324,194.42,429.453,162.303,429.453z"/>
</g>
</svg>
