<?xml version="1.0" encoding="utf-8"?>
<!-- Generator: Adobe Illustrator 16.0.0, SVG Export Plug-In . SVG Version: 6.00 Build 0)  -->
<!DOCTYPE svg PUBLIC "-//W3C//DTD SVG 1.1//EN" "http://www.w3.org/Graphics/SVG/1.1/DTD/svg11.dtd">
<svg version="1.1" id="Layer_1" xmlns="http://www.w3.org/2000/svg" xmlns:xlink="http://www.w3.org/1999/xlink" x="0px" y="0px"
	 width="512px" height="512px" viewBox="0 0 512 512" enable-background="new 0 0 512 512" xml:space="preserve">
<path d="M471,334.226h-19.51V113.237c0-6.903-5.597-12.5-12.5-12.5H73.01c-6.903,0-12.5,5.597-12.5,12.5v220.988H41
	c-6.904,0-12.5,5.597-12.5,12.5v28.037c0,4.251,2.16,8.21,5.732,10.511c4.135,2.66,45.463,25.989,221.768,25.989
	s217.633-23.329,221.767-25.989c3.573-2.301,5.733-6.26,5.733-10.511v-28.037C483.5,339.822,477.903,334.226,471,334.226z
	 M85.51,125.737H243.5v1.577c0,6.903,5.596,12.5,12.5,12.5c6.903,0,12.5-5.597,12.5-12.5v-1.577h157.99v208.488H85.51V125.737z
	 M458.5,366.699c-15.715,5.736-67.635,19.563-202.5,19.563c-133.637,0-186.316-13.871-202.5-19.674v-7.363h19.51h217.771v3.537
	c0,6.903,5.597,12.5,12.5,12.5s12.5-5.597,12.5-12.5v-3.537h13v3.537c0,6.903,5.597,12.5,12.5,12.5s12.5-5.597,12.5-12.5v-3.537
	h85.209h19.51V366.699z"/>
</svg>
