<?xml version="1.0" encoding="utf-8"?>
<!-- Generator: Adobe Illustrator 16.0.0, SVG Export Plug-In . SVG Version: 6.00 Build 0)  -->
<!DOCTYPE svg PUBLIC "-//W3C//DTD SVG 1.1//EN" "http://www.w3.org/Graphics/SVG/1.1/DTD/svg11.dtd">
<svg version="1.1" id="Layer_1" xmlns="http://www.w3.org/2000/svg" xmlns:xlink="http://www.w3.org/1999/xlink" x="0px" y="0px"
	 width="512px" height="512px" viewBox="0 0 512 512" enable-background="new 0 0 512 512" xml:space="preserve">
<g>
	<path d="M256,79.741c-76.645,0-139,62.355-139,139c0,28.248,8.428,55.441,24.374,78.639c14.717,21.411,34.875,38.124,58.495,48.55
		l45.251,79.984c2.218,3.921,6.375,6.345,10.879,6.345s8.661-2.424,10.879-6.345l45.251-79.984
		c23.62-10.426,43.778-27.139,58.495-48.55C386.572,274.182,395,246.989,395,218.741C395,142.096,332.645,79.741,256,79.741z
		 M298.664,324.484c-2.621,1.059-4.806,2.975-6.198,5.435L256,394.374l-36.466-64.455c-1.392-2.46-3.577-4.376-6.198-5.435
		C170.001,306.98,142,265.474,142,218.741c0-62.86,51.14-114,114-114s114,51.14,114,114C370,265.474,341.999,306.98,298.664,324.484
		z"/>
	<path d="M256,165.5c-28.949,0-52.5,23.551-52.5,52.5s23.551,52.5,52.5,52.5s52.5-23.551,52.5-52.5S284.949,165.5,256,165.5z
		 M256,245.5c-15.164,0-27.5-12.336-27.5-27.5s12.336-27.5,27.5-27.5s27.5,12.336,27.5,27.5S271.164,245.5,256,245.5z"/>
</g>
</svg>
