<?xml version="1.0" encoding="utf-8"?>
<!-- Generator: Adobe Illustrator 16.0.0, SVG Export Plug-In . SVG Version: 6.00 Build 0)  -->
<!DOCTYPE svg PUBLIC "-//W3C//DTD SVG 1.1//EN" "http://www.w3.org/Graphics/SVG/1.1/DTD/svg11.dtd">
<svg version="1.1" id="Layer_1" xmlns="http://www.w3.org/2000/svg" xmlns:xlink="http://www.w3.org/1999/xlink" x="0px" y="0px"
	 width="512px" height="512px" viewBox="0 0 512 512" enable-background="new 0 0 512 512" xml:space="preserve">
<path d="M405.385,127.67C365.396,93.131,312.343,74.109,256,74.109S146.604,93.131,106.615,127.67
	c-40.512,34.991-62.822,81.667-62.822,131.43c0,6.724,5.314,12.193,11.97,12.473c0.668,0.109,1.338,0.184,2.006,0.184
	c4.448,0,8.754-2.38,11.013-6.569c11.576-21.465,38.952-39.452,68.885-32.29c17.222,4.119,32.172,15.889,41.018,32.29
	c3.277,6.077,10.86,8.346,16.936,5.068c2.177-1.175,3.856-2.907,4.976-4.92c0.032-0.049,0.064-0.097,0.093-0.149
	c8.077-14.976,23.851-28.248,42.812-32.477v157.885c0,26.079,21.216,47.295,47.295,47.295s47.295-21.216,47.295-47.295
	c0-6.903-5.596-12.5-12.5-12.5c-6.903,0-12.5,5.597-12.5,12.5c0,12.293-10.001,22.295-22.295,22.295S268.5,402.89,268.5,390.596
	V232.669c0.357,0.079,0.714,0.144,1.072,0.229c17.204,4.115,32.14,15.864,40.988,32.237c0-0.002,0.001-0.004,0.001-0.006
	c1.117,2.103,2.844,3.912,5.097,5.127c1.887,1.018,3.919,1.5,5.923,1.5c4.448,0,8.753-2.38,11.013-6.569
	c11.576-21.466,38.953-39.453,68.885-32.29c17.223,4.12,32.173,15.889,41.018,32.29c2.59,4.805,7.873,7.215,12.974,6.399
	c0.079,0.002,0.156,0.012,0.236,0.012c6.903,0,12.5-5.597,12.5-12.5C468.208,209.337,445.897,162.661,405.385,127.67z
	 M407.296,208.584c-19.467-4.655-39.388-2.271-57.609,6.895c-10.682,5.374-20.245,12.893-28.023,21.869
	c-12.126-14.283-28.28-24.459-46.275-28.764c-19.468-4.655-39.388-2.271-57.609,6.895c-10.675,5.37-20.238,12.879-28.013,21.85
	c-12.127-14.28-28.292-24.44-46.285-28.745c-19.466-4.655-39.388-2.271-57.608,6.895c-4.279,2.153-8.375,4.654-12.255,7.449
	C92.853,152.073,167.325,99.109,256,99.109c88.771,0,163.308,53.079,182.443,124.051
	C429.142,216.285,418.578,211.283,407.296,208.584z"/>
</svg>
