<?xml version="1.0" encoding="utf-8"?>
<!-- Generator: Adobe Illustrator 16.0.0, SVG Export Plug-In . SVG Version: 6.00 Build 0)  -->
<!DOCTYPE svg PUBLIC "-//W3C//DTD SVG 1.1//EN" "http://www.w3.org/Graphics/SVG/1.1/DTD/svg11.dtd">
<svg version="1.1" id="Layer_1" xmlns="http://www.w3.org/2000/svg" xmlns:xlink="http://www.w3.org/1999/xlink" x="0px" y="0px"
	 width="512px" height="512px" viewBox="0 0 512 512" enable-background="new 0 0 512 512" xml:space="preserve">
<g>
	<path d="M308.893,87.879c-4.203-2.128-9.244-1.715-13.043,1.072L159.484,188.992c-2.184-1.862-5.01-2.992-8.104-2.992h-46.607
		c-6.902,0-12.5,5.597-12.5,12.5v115c0,6.903,5.598,12.5,12.5,12.5h46.607c3.094,0,5.92-1.13,8.104-2.992l136.367,100.041
		c2.186,1.604,4.781,2.421,7.395,2.421c1.928,0,3.863-0.445,5.648-1.349c4.201-2.129,6.85-6.44,6.85-11.151l-0.002-313.94
		C315.742,94.319,313.094,90.008,308.893,87.879z M138.881,301h-21.607v-90h21.607V301z M163.881,295.229v-78.458l126.861-93.068
		l0.002,264.594L163.881,295.229z"/>
	<path d="M370.688,160.826c-5.62-4.012-13.425-2.707-17.437,2.912c-4.011,5.619-2.707,13.425,2.911,17.436
		c24.147,17.236,38.563,45.208,38.563,74.826s-14.416,57.59-38.563,74.826c-5.618,4.011-6.922,11.817-2.911,17.436
		c2.439,3.418,6.282,5.239,10.185,5.239c2.513,0,5.051-0.756,7.252-2.327c30.706-21.918,49.038-57.497,49.038-95.174
		S401.395,182.744,370.688,160.826z"/>
</g>
</svg>
