<?xml version="1.0" encoding="utf-8"?>
<!-- Generator: Adobe Illustrator 16.0.0, SVG Export Plug-In . SVG Version: 6.00 Build 0)  -->
<!DOCTYPE svg PUBLIC "-//W3C//DTD SVG 1.1//EN" "http://www.w3.org/Graphics/SVG/1.1/DTD/svg11.dtd">
<svg version="1.1" id="Layer_1" xmlns="http://www.w3.org/2000/svg" xmlns:xlink="http://www.w3.org/1999/xlink" x="0px" y="0px"
	 width="512px" height="512px" viewBox="0 0 512 512" enable-background="new 0 0 512 512" xml:space="preserve">
<path d="M416.61,325.104c-2.132-6.566-9.183-10.155-15.75-8.026l-16.254,5.281c9.958-20.592,15.173-43.236,15.173-66.359
	c0-84.089-68.411-152.5-152.5-152.5s-152.5,68.411-152.5,152.5s68.411,152.5,152.5,152.5c6.903,0,12.5-5.597,12.5-12.5
	s-5.597-12.5-12.5-12.5c-70.304,0-127.5-57.196-127.5-127.5s57.196-127.5,127.5-127.5s127.5,57.196,127.5,127.5
	c0,19.372-4.371,38.337-12.722,55.568l-5.554-17.095c-2.133-6.565-9.185-10.156-15.75-8.026c-6.566,2.134-10.159,9.186-8.026,15.751
	l14.739,45.369c1.716,5.283,6.616,8.641,11.886,8.641c1.279,0,2.582-0.198,3.865-0.614l45.368-14.738
	C415.149,338.723,418.743,331.671,416.61,325.104z"/>
</svg>
