<?xml version="1.0" encoding="utf-8"?>
<!-- Generator: Adobe Illustrator 15.1.0, SVG Export Plug-In . SVG Version: 6.00 Build 0)  -->
<!DOCTYPE svg PUBLIC "-//W3C//DTD SVG 1.1//EN" "http://www.w3.org/Graphics/SVG/1.1/DTD/svg11.dtd">
<svg version="1.1" id="icons" xmlns="http://www.w3.org/2000/svg" xmlns:xlink="http://www.w3.org/1999/xlink" x="0px" y="0px"
	 width="32px" height="32px" viewBox="0 0 32 32" enable-background="new 0 0 32 32" xml:space="preserve">
<path id="search" fill="#231F20" d="M26.925,23.856c-0.883-1.434-6.061-6.06-6.061-6.06c0.686-1.224,1.079-2.632,1.079-4.131
	c0-4.682-3.793-8.475-8.472-8.475S5,8.983,5,13.666c0,4.679,3.793,8.472,8.472,8.472c1.68,0,3.245-0.496,4.561-1.343
	c0,0,4.335,5.372,5.976,5.979C24.976,27.131,27.463,24.732,26.925,23.856z M7.75,13.666c0.006-3.163,2.562-5.719,5.722-5.726
	c3.163,0.006,5.72,2.562,5.726,5.726c-0.006,3.16-2.562,5.715-5.726,5.722C10.312,19.381,7.756,16.825,7.75,13.666z"/>
</svg>
