<?xml version="1.0" encoding="utf-8"?>
<!-- Generator: Adobe Illustrator 15.1.0, SVG Export Plug-In . SVG Version: 6.00 Build 0)  -->
<!DOCTYPE svg PUBLIC "-//W3C//DTD SVG 1.1//EN" "http://www.w3.org/Graphics/SVG/1.1/DTD/svg11.dtd">
<svg version="1.1" id="icons" xmlns="http://www.w3.org/2000/svg" xmlns:xlink="http://www.w3.org/1999/xlink" x="0px" y="0px"
	 width="32px" height="32px" viewBox="0 0 32 32" enable-background="new 0 0 32 32" xml:space="preserve">
<g id="whatsapp">
	<path fill-rule="evenodd" clip-rule="evenodd" fill="#231F20" d="M5,27.06c0.123-0.48,0.229-0.896,0.342-1.309
		c0.364-1.33,0.737-2.654,1.083-3.988c0.051-0.197,0.028-0.461-0.064-0.639C2.985,14.69,6.466,6.906,13.55,5.242
		c6.429-1.507,12.211,2.834,13.268,8.64c1.099,6.054-2.862,11.805-8.87,12.857c-2.388,0.413-4.67,0.063-6.85-0.997
		c-0.195-0.097-0.469-0.122-0.675-0.07C7.519,26.397,5.587,26.943,5,27.06 M7.556,24.54c1.092-0.285,2.099-0.538,3.096-0.817
		c0.28-0.077,0.499-0.037,0.751,0.104c1.887,1.093,3.909,1.499,6.071,1.15c4.979-0.797,8.39-5.456,7.63-10.417
		c-0.793-5.144-5.612-8.593-10.707-7.658c-6.161,1.132-9.434,8.001-6.367,13.442c0.338,0.603,0.432,1.101,0.202,1.743
		C7.961,22.857,7.792,23.662,7.556,24.54"/>
	<path fill-rule="evenodd" clip-rule="evenodd" fill="#231F20" d="M18.894,21.173c-2.142-0.077-5.554-1.768-7.891-5.826
		c-0.83-1.443-0.709-3.088,0.506-4.218c0.412-0.383,0.926-0.288,1.409-0.206c0.119,0.017,0.243,0.2,0.302,0.332
		c0.312,0.709,0.618,1.418,0.889,2.143c0.144,0.385-0.119,0.742-0.677,1.382c-0.175,0.2-0.209,0.389-0.072,0.622
		c0.897,1.521,2.154,2.624,3.807,3.269c0.242,0.095,0.424,0.034,0.577-0.156c0.876-1.066,0.965-1.379,1.426-1.161
		c2.217,1.062,2.389,1.104,2.4,1.354C21.643,20.577,19.931,21.25,18.894,21.173"/>
</g>
</svg>
