<?xml version="1.0" encoding="utf-8"?>
<!-- Generator: Adobe Illustrator 15.1.0, SVG Export Plug-In . SVG Version: 6.00 Build 0)  -->
<!DOCTYPE svg PUBLIC "-//W3C//DTD SVG 1.1//EN" "http://www.w3.org/Graphics/SVG/1.1/DTD/svg11.dtd">
<svg version="1.1" id="icons" xmlns="http://www.w3.org/2000/svg" xmlns:xlink="http://www.w3.org/1999/xlink" x="0px" y="0px"
	 width="32px" height="32px" viewBox="0 0 32 32" enable-background="new 0 0 32 32" xml:space="preserve">
<path id="twitter" fill="#231F20" d="M27,9.177c-0.81,0.359-1.68,0.602-2.592,0.711c0.932-0.559,1.647-1.442,1.984-2.497
	c-0.871,0.518-1.837,0.894-2.865,1.096c-0.824-0.878-1.998-1.426-3.296-1.426c-2.492,0-4.514,2.021-4.514,4.514
	c0,0.354,0.04,0.698,0.116,1.028c-3.751-0.188-7.076-1.984-9.303-4.716c-0.388,0.667-0.61,1.442-0.61,2.27
	c0,1.565,0.797,2.948,2.007,3.757c-0.739-0.022-1.436-0.228-2.044-0.565v0.057c0,2.188,1.556,4.012,3.62,4.427
	c-0.378,0.103-0.778,0.159-1.188,0.159c-0.291,0-0.574-0.029-0.85-0.082c0.574,1.793,2.24,3.098,4.216,3.135
	c-1.544,1.21-3.489,1.933-5.605,1.933c-0.364,0-0.723-0.022-1.076-0.063c1.997,1.279,4.37,2.027,6.92,2.027
	c8.302,0,12.841-6.877,12.841-12.842c0-0.195-0.004-0.39-0.012-0.585C25.629,10.877,26.394,10.082,27,9.177z"/>
</svg>
