<?xml version="1.0" encoding="utf-8"?>
<!-- Generator: Adobe Illustrator 15.1.0, SVG Export Plug-In . SVG Version: 6.00 Build 0)  -->
<!DOCTYPE svg PUBLIC "-//W3C//DTD SVG 1.1//EN" "http://www.w3.org/Graphics/SVG/1.1/DTD/svg11.dtd">
<svg version="1.1" id="icons" xmlns="http://www.w3.org/2000/svg" xmlns:xlink="http://www.w3.org/1999/xlink" x="0px" y="0px"
	 width="32px" height="32px" viewBox="0 0 32 32" enable-background="new 0 0 32 32" xml:space="preserve">
<path id="pinterest" fill="#231F20" d="M16.001,5C9.926,5,5,9.924,5,16c0,4.504,2.709,8.375,6.585,10.076
	c-0.031-0.77-0.005-1.691,0.19-2.527c0.212-0.893,1.416-5.994,1.416-5.994s-0.352-0.701-0.352-1.74c0-1.629,0.946-2.848,2.123-2.848
	c0.999,0,1.482,0.752,1.482,1.652c0,1.004-0.642,2.51-0.971,3.902c-0.276,1.168,0.585,2.119,1.734,2.119
	c2.085,0,3.488-2.676,3.488-5.848c0-2.41-1.623-4.215-4.577-4.215c-3.336,0-5.414,2.486-5.414,5.266
	c0,0.959,0.282,1.635,0.725,2.158c0.204,0.24,0.232,0.338,0.157,0.613c-0.051,0.203-0.172,0.689-0.224,0.883
	c-0.073,0.279-0.298,0.379-0.551,0.275c-1.536-0.627-2.252-2.311-2.252-4.201c0-3.125,2.634-6.873,7.861-6.873
	c4.199,0,6.965,3.039,6.965,6.303c0,4.314-2.4,7.537-5.937,7.537c-1.188,0-2.306-0.641-2.687-1.369c0,0-0.64,2.533-0.773,3.023
	c-0.234,0.848-0.69,1.695-1.108,2.355C13.872,26.84,14.917,27,16.001,27C22.075,27,27,22.076,27,16S22.075,5,16.001,5z"/>
</svg>
