<svg version="1.1" id="Layer_1" xmlns="http://www.w3.org/2000/svg" xmlns:xlink="http://www.w3.org/1999/xlink" x="0px" y="0px"
	 width="256px" height="256px" viewBox="0 0 256 256" enable-background="new 0 0 256 256" xml:space="preserve">
<g>
	<circle cx="174.229" cy="66.771" r="4.187"/>
	<path d="M129.136,7.237c-66.276,0-120,53.726-120,119.999c0,66.281,53.724,120.003,120,120.003c66.274,0,120-53.723,120-120.003
		C249.136,60.963,195.41,7.237,129.136,7.237z M190.519,167.977c-0.426,9.068-3.019,17.482-7.78,25.245
		c-4.76,7.76-11.354,13.612-19.777,17.578c-8.425,3.96-17.772,5.631-28.047,5.006c-13.028-0.785-23.839-3.697-32.432-8.724
		c-8.503-4.974-15.038-12.059-19.617-21.246c-15.16-7.903-31.832-26.448-31.832-26.448l22.291,5.084l-18.312-21.419
		c28.758,0.488,42.591,11.355,47.449,16.353c4.167-1.025,8.589-1.771,13.201-2.149c26.77-2.223,49.48,8.162,50.727,23.194
		c0.116,1.396,0.035,2.783-0.213,4.155c0.396-0.496,0.778-1.007,1.136-1.533c2.925-4.29,4.509-9.07,4.758-14.342
		c0.251-5.351-0.842-10.103-3.272-14.256c-2.434-4.149-6.597-7.763-12.49-10.841c-3.78-2.018-12.189-5.301-25.238-9.862
		c-13.045-4.562-22.141-8.666-27.287-12.322c-6.675-4.679-11.551-10.277-14.623-16.8c-3.077-6.523-4.432-13.699-4.065-21.527
		c0.403-8.607,2.84-16.523,7.314-23.755c4.476-7.233,10.764-12.547,18.865-15.945c8.102-3.396,16.998-4.803,26.685-4.217
		c10.669,0.646,19.959,3.289,27.94,7.812c13.341,7.56,18.9,24.843,19.628,26.936l-15.325-0.031
		c-2.281,0.375-13.622,1.465-16.486-13.386c-3.802-2.141-8.648-3.837-14.802-4.365c-11.501-0.985-21.133,4.263-26.637,8.941
		c-5.504,4.686-8.421,10.555-8.749,17.607c-0.288,6.125,1.344,11.276,4.889,15.454c3.478,4.178,12.865,8.807,28.151,13.891
		c15.28,5.082,25.733,9.347,31.352,12.796c8.166,5.08,14.077,11.249,17.742,18.506C189.327,150.626,190.945,158.829,190.519,167.977
		z M185.653,78.792l-1.907,22.837l-16.018-22.323L185.653,78.792z"/>
</g>
</svg>
