<?xml version="1.0" encoding="utf-8"?>
<!-- Generator: Adobe Illustrator 15.1.0, SVG Export Plug-In . SVG Version: 6.00 Build 0)  -->
<!DOCTYPE svg PUBLIC "-//W3C//DTD SVG 1.1//EN" "http://www.w3.org/Graphics/SVG/1.1/DTD/svg11.dtd">
<svg version="1.1" id="icons" xmlns="http://www.w3.org/2000/svg" xmlns:xlink="http://www.w3.org/1999/xlink" x="0px" y="0px"
	 width="32px" height="32px" viewBox="0 0 32 32" enable-background="new 0 0 32 32" xml:space="preserve">
<g id="delete">
	<path fill="#231F20" d="M15.617,10.784c-2.545,0-4.938-0.377-7.025-1.041v13.943c4.029,4.21,14.529,2.255,14.816,0V9.479
		C21.148,10.306,18.479,10.784,15.617,10.784z M13.08,23.253c-0.659-0.055-1.19-0.109-1.534-0.151V12.294h0.032
		c0.471,0.112,0.975,0.21,1.502,0.291V23.253z M16.766,23.407c-0.521,0.001-1.035-0.009-1.531-0.028V12.792
		c0.345,0.016,0.699,0.024,1.058,0.024c0.158,0,0.318,0,0.474-0.003V23.407z M20.455,23.113c-0.487,0.089-1.003,0.153-1.535,0.198
		V12.662c0.536-0.062,1.048-0.146,1.535-0.245V23.113z"/>
	<path fill="#231F20" d="M15.998,5.836c-4.14,0-7.498,0.945-7.498,2.107c0,1.163,3.358,2.107,7.498,2.107
		c4.144,0,7.502-0.944,7.502-2.107C23.5,6.781,20.142,5.836,15.998,5.836z M16.002,9.055c-2.078,0-3.763-0.565-3.763-1.265
		c0-0.698,1.685-1.262,3.763-1.262c2.074,0,3.759,0.564,3.759,1.262C19.761,8.49,18.076,9.055,16.002,9.055z"/>
</g>
</svg>
