<?xml version="1.0" encoding="utf-8"?>
<!-- Generator: Adobe Illustrator 15.1.0, SVG Export Plug-In . SVG Version: 6.00 Build 0)  -->
<!DOCTYPE svg PUBLIC "-//W3C//DTD SVG 1.1//EN" "http://www.w3.org/Graphics/SVG/1.1/DTD/svg11.dtd">
<svg version="1.1" id="icons" xmlns="http://www.w3.org/2000/svg" xmlns:xlink="http://www.w3.org/1999/xlink" x="0px" y="0px"
	 width="32px" height="32px" viewBox="0 0 32 32" enable-background="new 0 0 32 32" xml:space="preserve">
<path id="settings" fill="#231F20" d="M27,17.875v-3.783l-2.005-0.879c-0.16-0.517-0.368-1.013-0.608-1.491l0.921-2.355
	l-2.673-2.673l-2.358,0.92c-0.463-0.237-0.953-0.439-1.458-0.6l-0.885-2.017h-3.784l-0.867,1.99
	c-0.514,0.154-1.009,0.354-1.479,0.588L9.473,6.665L6.797,9.337l0.882,2.26c-0.271,0.511-0.499,1.054-0.674,1.616L5,14.092v3.783
	l1.996,0.877c0.143,0.463,0.32,0.914,0.528,1.348l-1.093,2.798l2.673,2.673l2.797-1.093c0.442,0.214,0.903,0.392,1.381,0.537
	l0.867,1.987h3.784l0.885-2.017c0.434-0.137,0.858-0.304,1.262-0.499l2.7,1.054l2.673-2.676l-1.037-2.648
	c0.238-0.47,0.434-0.956,0.588-1.464L27,17.875z M21.016,15.999c-0.003,2.771-2.245,5.013-5.016,5.019
	c-2.771-0.006-5.013-2.248-5.019-5.019c0.006-2.771,2.248-5.01,5.019-5.019C18.771,10.988,21.013,13.228,21.016,15.999z"/>
</svg>
