<?xml version="1.0" encoding="utf-8"?>
<!-- Generator: Adobe Illustrator 15.1.0, SVG Export Plug-In . SVG Version: 6.00 Build 0)  -->
<!DOCTYPE svg PUBLIC "-//W3C//DTD SVG 1.1//EN" "http://www.w3.org/Graphics/SVG/1.1/DTD/svg11.dtd">
<svg version="1.1" id="icons" xmlns="http://www.w3.org/2000/svg" xmlns:xlink="http://www.w3.org/1999/xlink" x="0px" y="0px"
	 width="32px" height="32px" viewBox="0 0 32 32" enable-background="new 0 0 32 32" xml:space="preserve">
<path id="youtube" fill-rule="evenodd" clip-rule="evenodd" fill="#231F20" d="M7.266,23.259c-0.833-0.272-1.392-0.817-1.691-1.64
	C4.843,19.607,4.628,11.196,6.034,9.54c0.483-0.567,1.104-0.898,1.841-0.977C11.667,8.155,23.392,8.212,24.743,8.7
	c0.792,0.284,1.354,0.802,1.659,1.595c0.8,2.077,0.828,9.642-0.105,11.643c-0.255,0.543-0.667,0.928-1.19,1.201
	C23.693,23.881,9.126,23.872,7.266,23.259 M13.292,19.316c2.28-1.184,4.542-2.356,6.833-3.543c-2.294-1.196-4.555-2.377-6.833-3.565
	V19.316z"/>
</svg>
