<?xml version="1.0" encoding="utf-8"?>
<!-- Generator: Adobe Illustrator 15.1.0, SVG Export Plug-In . SVG Version: 6.00 Build 0)  -->
<!DOCTYPE svg PUBLIC "-//W3C//DTD SVG 1.1//EN" "http://www.w3.org/Graphics/SVG/1.1/DTD/svg11.dtd">
<svg version="1.1" id="icons" xmlns="http://www.w3.org/2000/svg" xmlns:xlink="http://www.w3.org/1999/xlink" x="0px" y="0px"
	 width="32px" height="32px" viewBox="0 0 32 32" enable-background="new 0 0 32 32" xml:space="preserve">
<path id="dribbble" fill="#231F20" d="M15.999,27C9.934,27,5,22.064,5,16C5,9.935,9.934,5,15.999,5C22.065,5,27,9.935,27,16
	C27,22.064,22.065,27,15.999,27z M25.276,17.506c-0.321-0.103-2.908-0.873-5.853-0.401c1.229,3.376,1.729,6.127,1.824,6.699
	C23.356,22.378,24.857,20.12,25.276,17.506z M19.67,24.663c-0.141-0.824-0.686-3.697-2.005-7.125l-0.062,0.021
	c-5.299,1.846-7.201,5.521-7.371,5.867c1.593,1.242,3.596,1.983,5.768,1.983C17.3,25.41,18.542,25.145,19.67,24.663z M9.019,22.297
	c0.213-0.364,2.792-4.634,7.638-6.2c0.122-0.04,0.246-0.077,0.37-0.112c-0.236-0.533-0.493-1.068-0.762-1.595
	c-4.692,1.404-9.245,1.346-9.656,1.338c-0.002,0.096-0.005,0.19-0.005,0.287C6.604,18.428,7.519,20.63,9.019,22.297z M6.802,14.09
	c0.42,0.006,4.291,0.022,8.687-1.145c-1.557-2.768-3.235-5.094-3.484-5.434C9.376,8.751,7.411,11.174,6.802,14.09z M13.797,6.88
	c0.26,0.347,1.967,2.672,3.506,5.5c3.342-1.251,4.756-3.153,4.926-3.394c-1.659-1.473-3.842-2.368-6.229-2.368
	C15.241,6.618,14.504,6.709,13.797,6.88z M23.272,10.073c-0.198,0.268-1.773,2.286-5.246,3.704c0.218,0.448,0.427,0.902,0.623,1.361
	c0.068,0.162,0.136,0.323,0.202,0.485c3.126-0.395,6.232,0.236,6.543,0.302C25.373,13.708,24.581,11.672,23.272,10.073z"/>
</svg>
