<?xml version="1.0" encoding="utf-8"?>
<!-- Generator: Adobe Illustrator 15.1.0, SVG Export Plug-In . SVG Version: 6.00 Build 0)  -->
<!DOCTYPE svg PUBLIC "-//W3C//DTD SVG 1.1//EN" "http://www.w3.org/Graphics/SVG/1.1/DTD/svg11.dtd">
<svg version="1.1" id="icons" xmlns="http://www.w3.org/2000/svg" xmlns:xlink="http://www.w3.org/1999/xlink" x="0px" y="0px"
	 width="32px" height="32px" viewBox="0 0 32 32" enable-background="new 0 0 32 32" xml:space="preserve">
<path id="instagram" fill="#231F20" d="M26.821,10.521c-0.15-1.446-0.703-2.727-1.78-3.754c-1.13-1.08-2.516-1.557-4.034-1.637
	c-2.584-0.141-8.725-0.23-10.88,0.121c-2.463,0.401-4.076,1.84-4.759,4.273c-0.522,1.872-0.422,10.498-0.113,12.347
	c0.417,2.531,1.911,4.152,4.418,4.8c1.735,0.447,10.264,0.388,12.178,0.08c2.531-0.411,4.161-1.897,4.819-4.399
	C27.173,20.431,26.996,12.256,26.821,10.521 M24.795,21.514c-0.293,1.922-1.569,3.11-3.499,3.324
	c-1.775,0.194-9.702,0.301-11.345-0.16c-1.575-0.439-2.477-1.521-2.738-3.108c-0.25-1.511-0.311-9.077-0.004-11.099
	c0.291-1.907,1.565-3.094,3.486-3.31c1.95-0.218,8.962-0.243,10.829,0.045c1.919,0.294,3.105,1.571,3.314,3.505
	C25.038,12.517,25.094,19.574,24.795,21.514 M16,10.358c-3.115,0-5.641,2.524-5.637,5.646c0,3.106,2.519,5.629,5.625,5.634
	c3.121,0.007,5.651-2.513,5.653-5.634S19.121,10.36,16,10.358 M15.963,19.646c-1.99-0.004-3.607-1.646-3.607-3.661
	c0-2.012,1.632-3.634,3.661-3.634c2.011,0.001,3.635,1.635,3.635,3.66C19.649,18.035,18.011,19.649,15.963,19.646 M23.18,10.148
	c-0.002,0.731-0.588,1.313-1.321,1.313c-0.736,0-1.314-0.578-1.32-1.313c-0.005-0.742,0.588-1.334,1.333-1.326
	C22.602,8.825,23.182,9.414,23.18,10.148"/>
</svg>
