<?xml version="1.0" encoding="utf-8"?>
<!-- Generator: Adobe Illustrator 15.1.0, SVG Export Plug-In . SVG Version: 6.00 Build 0)  -->
<!DOCTYPE svg PUBLIC "-//W3C//DTD SVG 1.1//EN" "http://www.w3.org/Graphics/SVG/1.1/DTD/svg11.dtd">
<svg version="1.1" id="icons" xmlns="http://www.w3.org/2000/svg" xmlns:xlink="http://www.w3.org/1999/xlink" x="0px" y="0px"
	 width="32px" height="32px" viewBox="0 0 32 32" enable-background="new 0 0 32 32" xml:space="preserve">
<path id="vimeo" fill="#231F20" d="M26.989,10.899c-0.191,4.123-7.72,14.595-12.08,14.595c-1.282,0-2.367-1.183-3.254-3.551
	C9.957,15.72,9.203,11.885,7.76,11.885c-0.164,0-0.739,0.346-1.727,1.036L5,11.59c2.752-2.42,4.981-4.697,6.457-4.832
	c1.71-0.165,2.762,1.002,3.154,3.501c0.509,3.204,1.24,8.381,2.516,8.381c0.987,0,3.425-4.013,3.553-5.472
	c0.218-2.077-1.489-2.196-3.109-1.528c1.086-3.518,3.156-5.229,6.215-5.129C26.052,6.577,27.12,8.041,26.989,10.899"/>
</svg>
